<svg width="84" height="85" viewBox="0 0 84 85" fill="none" xmlns="http://www.w3.org/2000/svg">
<g filter="url(#filter0_d_10_72)">
<rect width="81" height="81" rx="40.5" fill="#3300FF"/>
<path d="M39.868 60.7493C31.421 60.7604 23.8014 55.6749 20.5707 47.8702C17.3399 40.0652 19.1361 31.0824 25.1197 25.12C30.3852 19.8355 38.0724 17.7658 45.2793 19.6923C52.4863 21.6187 58.1156 27.2479 60.0421 34.4549C61.9686 41.6619 59.8989 49.349 54.6143 54.6146C50.7155 58.5466 45.4056 60.7558 39.868 60.7493ZM36.7704 46.6865C40.6115 46.6065 44.3977 47.6089 47.6958 49.5793C47.8992 49.7158 48.1385 49.7886 48.3835 49.7884C48.8297 49.7771 49.2402 49.5413 49.4745 49.1613C49.657 48.8091 49.6886 48.3982 49.5623 48.0222C49.4555 47.7362 49.2331 47.5086 48.9499 47.3951C45.2365 45.1862 40.9773 44.0644 36.6575 44.1574C33.9773 44.1779 31.3075 44.4927 28.696 45.0959C28.0113 45.2784 27.595 45.9713 27.7554 46.6614C27.9171 47.2185 28.4117 47.6135 28.9907 47.648C29.1018 47.6476 29.2123 47.6315 29.3189 47.5999C31.7609 47.0189 34.2603 46.7124 36.7704 46.6865ZM36.3733 40.4661C41.0726 40.4107 45.7018 41.6093 49.7839 43.9379C50.0165 44.107 50.2968 44.1977 50.5844 44.1971C51.1477 44.1752 51.6665 43.8855 51.9807 43.4175C52.2261 43.0594 52.3026 42.6119 52.1897 42.1926C52.1132 41.8291 51.8851 41.5158 51.5626 41.3315C46.9469 38.6659 41.7009 37.2865 36.3712 37.3371C33.5615 37.32 30.7644 37.7142 28.0689 38.5076C27.2407 38.7802 26.7782 39.6608 27.0239 40.4975C27.2289 41.1737 27.867 41.6239 28.5727 41.5907C28.7227 41.5921 28.8723 41.5746 29.0179 41.5384C31.4003 40.8062 33.881 40.4446 36.3733 40.4661ZM36.7683 34.0116C42.1275 33.8571 47.4366 35.0805 52.1876 37.565C52.5078 37.7399 52.8677 37.83 53.2327 37.8262C53.8809 37.8398 54.4985 37.5518 54.9048 37.0466C55.1575 36.5842 55.2234 36.0427 55.0888 35.5333C54.9629 35.0251 54.6333 34.5912 54.1774 34.3335C48.8199 31.486 42.8169 30.0718 36.7516 30.2284C33.3931 30.1939 30.0461 30.6258 26.8065 31.5118C25.8965 31.7932 25.3323 32.7014 25.4832 33.6419C25.6341 34.5824 26.454 35.2685 27.4064 35.2511C27.5918 35.2513 27.7763 35.2245 27.954 35.1717C30.8202 34.3591 33.7894 33.9676 36.7683 34.0096V34.0116Z" fill="#FFD89F"/>
<rect x="0.5" y="0.5" width="80" height="80" rx="40" stroke="#133834"/>
</g>
<defs>
<filter id="filter0_d_10_72" x="0" y="0" width="84" height="85" filterUnits="userSpaceOnUse" color-interpolation-filters="sRGB">
<feFlood flood-opacity="0" result="BackgroundImageFix"/>
<feColorMatrix in="SourceAlpha" type="matrix" values="0 0 0 0 0 0 0 0 0 0 0 0 0 0 0 0 0 0 127 0" result="hardAlpha"/>
<feOffset dx="3" dy="4"/>
<feComposite in2="hardAlpha" operator="out"/>
<feColorMatrix type="matrix" values="0 0 0 0 1 0 0 0 0 0.886266 0 0 0 0 0.720833 0 0 0 1 0"/>
<feBlend mode="normal" in2="BackgroundImageFix" result="effect1_dropShadow_10_72"/>
<feBlend mode="normal" in="SourceGraphic" in2="effect1_dropShadow_10_72" result="shape"/>
</filter>
</defs>
</svg>
