<svg width="114" height="115" viewBox="0 0 114 115" fill="none" xmlns="http://www.w3.org/2000/svg">
<g filter="url(#filter0_d_10_75)">
<path d="M54.269 1.95099C56.849 -0.967197 61.6273 0.0547415 62.7879 3.77292L70.7953 29.4258C71.2283 30.8129 72.2433 31.9431 73.5761 32.522L98.2246 43.229C101.797 44.7808 102.302 49.6411 99.1243 51.8939L77.2014 67.4365C76.016 68.277 75.2548 69.5915 75.116 71.038L72.5499 97.7888C72.178 101.666 67.7116 103.648 64.5871 101.322L43.0306 85.2751C41.865 84.4074 40.3796 84.0897 38.961 84.4047L12.7266 90.2306C8.92409 91.0751 5.65903 87.4397 6.90557 83.7494L15.5058 58.2891C15.9709 56.9125 15.814 55.4016 15.076 54.1498L1.42835 30.9996C-0.549773 27.6442 1.89873 23.4155 5.79358 23.4607L32.6653 23.7724C34.1184 23.7893 35.5068 23.1732 36.4693 22.0845L54.269 1.95099Z" fill="white"/>
<path d="M54.6436 2.28217C56.9656 -0.344203 61.2661 0.575542 62.3106 3.9219L70.318 29.5748C70.7943 31.1006 71.9108 32.3438 73.3769 32.9806L98.0254 43.6876C101.241 45.0843 101.695 49.4585 98.8351 51.486L76.9122 67.0286C75.6082 67.9531 74.771 69.3991 74.6183 70.9902L72.0522 97.741C71.7175 101.231 67.6977 103.014 64.8857 100.921L43.3292 84.874C42.047 83.9195 40.4131 83.5701 38.8526 83.9166L12.6182 89.7425C9.19595 90.5025 6.25739 87.2306 7.37928 83.9094L15.9796 58.4492C16.4911 56.9348 16.3185 55.2728 15.5068 53.8959L1.85907 30.7457C0.0787626 27.7258 2.28242 23.92 5.78778 23.9607L32.6595 24.2724C34.2579 24.2909 35.7852 23.6132 36.8439 22.4157L54.6436 2.28217Z" stroke="black"/>
</g>
<defs>
<filter id="filter0_d_10_75" x="0.727783" y="0.260559" width="112.505" height="114.057" filterUnits="userSpaceOnUse" color-interpolation-filters="sRGB">
<feFlood flood-opacity="0" result="BackgroundImageFix"/>
<feColorMatrix in="SourceAlpha" type="matrix" values="0 0 0 0 0 0 0 0 0 0 0 0 0 0 0 0 0 0 127 0" result="hardAlpha"/>
<feOffset dx="12" dy="12"/>
<feComposite in2="hardAlpha" operator="out"/>
<feColorMatrix type="matrix" values="0 0 0 0 1 0 0 0 0 0.886266 0 0 0 0 0.720833 0 0 0 1 0"/>
<feBlend mode="normal" in2="BackgroundImageFix" result="effect1_dropShadow_10_75"/>
<feBlend mode="normal" in="SourceGraphic" in2="effect1_dropShadow_10_75" result="shape"/>
</filter>
</defs>
</svg>
