<svg width="146" height="9" viewBox="0 0 146 9" fill="none" xmlns="http://www.w3.org/2000/svg">
<path d="M145.426 4.92029C145.294 5.08391 145.161 5.24755 145.001 5.44546C144.501 5.47506 143.973 5.50624 143.442 5.53741L143.458 5.54829C143.493 5.48752 143.538 5.42987 143.563 5.36754C143.614 5.25067 143.52 5.14938 143.393 5.17275C143.067 5.22885 142.745 5.29428 142.419 5.34882C142.135 5.39557 141.848 5.46726 141.563 5.46726C141.044 5.46726 140.57 5.58415 140.123 5.7618C138.404 6.44745 136.597 6.96949 134.809 7.51801C133.486 7.92473 132.099 8.18186 130.651 8.10862C129.945 8.07434 129.233 8.09927 128.532 7.99018C128.37 7.96525 128.194 7.94497 128.034 7.96835C127.236 8.08366 126.452 7.97457 125.673 7.87795C124.713 7.75796 123.767 7.75952 122.813 7.91691C121.917 8.06651 121.012 8.17874 120.11 8.30341C120.079 8.30808 120.024 8.28158 120.007 8.25665C119.993 8.23951 120.017 8.18341 120.036 8.17717C120.309 8.09926 120.592 8.03849 120.859 7.94811C121.006 7.89824 121.127 7.79852 121.26 7.7206C121.42 7.72372 121.58 7.73148 121.74 7.72524C121.855 7.72057 121.886 7.6645 121.82 7.60061C121.8 7.58191 121.738 7.57254 121.706 7.58345C121.56 7.62864 121.418 7.68318 121.273 7.7346C121.023 7.72993 120.768 7.69408 120.526 7.72524C119.702 7.83121 118.883 7.96367 118.061 8.0821C117.856 8.11171 117.648 8.12729 117.443 8.15534C117.154 8.19429 116.846 8.19742 116.584 8.28469C115.589 8.61817 114.547 8.58544 113.505 8.59479C113.421 8.59479 113.337 8.5948 113.255 8.60415C113.216 8.60882 113.183 8.63532 113.146 8.65091C113.181 8.92984 113.13 9.01866 112.931 8.99685C112.518 8.95321 112.1 8.9205 111.694 8.84725C110.592 8.65247 109.497 8.43895 108.398 8.23481C107.421 8.05249 106.435 7.90601 105.427 7.89043C105.218 7.88731 105.007 7.87953 104.802 7.85303C104.219 7.77668 103.641 7.78136 103.056 7.86083C102.687 7.9107 102.306 7.90448 101.932 7.91539C101.555 7.92474 101.179 7.90913 100.804 7.93095C100.256 7.96367 99.719 7.95432 99.1922 7.81408C98.9463 7.74863 98.6868 7.75018 98.4585 7.84991C97.7014 8.18028 96.9306 8.12886 96.1482 7.93251C96.1208 7.91848 96.0955 7.90134 96.0642 7.89199C96.0428 7.88576 96.0174 7.89043 95.994 7.88887C96.0506 7.89822 96.1052 7.90912 96.1618 7.91847C96.0369 8.00418 95.9218 8.10705 95.7813 8.17249C95.5374 8.28625 95.1881 8.23481 94.9774 8.07586C94.9988 7.79069 94.7705 7.76733 94.4993 7.78292C94.2495 7.79694 93.9998 7.7985 93.752 7.81876C92.47 7.9294 91.188 8.04314 89.9059 8.1569C89.7401 8.17092 89.5703 8.17249 89.4103 8.20521C88.5537 8.38442 87.6756 8.36572 86.8033 8.39844C86.3467 8.41558 85.8921 8.40156 85.4433 8.5122C85.2052 8.57141 84.9477 8.5496 84.7213 8.44364C84.6862 8.42806 84.6335 8.39378 84.6374 8.37508C84.6491 8.31587 84.6647 8.23638 84.7155 8.20833C84.932 8.08834 85.1916 8.10082 85.4374 8.09926C86.0618 8.09458 86.6863 8.10237 87.3107 8.09458C87.941 8.08679 88.5498 7.99952 89.1039 7.73772L89.0903 7.74864C89.2542 7.74708 89.4181 7.74552 89.584 7.74396L89.5761 7.73148C89.6698 7.73148 89.7635 7.73148 89.8572 7.73148L89.8493 7.7424C90.3957 7.74552 90.9342 7.70343 91.4708 7.61149C91.7967 7.55539 92.1304 7.5149 92.4621 7.48373C93.2114 7.41361 93.9471 7.32321 94.634 7.03804C95.0125 6.88065 95.4437 6.88378 95.8652 6.92897L95.8516 6.91805C96.0233 7.03025 96.2145 7.07856 96.4272 7.00532C96.5404 6.96637 96.6418 6.89622 96.7589 6.87129C96.956 6.82922 97.1843 6.7513 97.358 6.79494C97.9082 6.93207 98.4214 6.83391 98.9502 6.73574C99.5551 6.62354 100.168 6.54094 100.779 6.45212C100.9 6.43498 101.034 6.41626 101.147 6.4412C101.787 6.58612 102.349 6.38046 102.95 6.24021C102.804 6.09684 102.634 6.12022 102.484 6.12178C101.528 6.12333 100.572 6.13266 99.6176 6.1389C99.241 6.14045 98.8722 6.1654 98.5131 6.26825C98.2712 6.33837 98.1424 6.26979 98.0702 6.06254C98.0175 5.9145 97.8048 5.93786 97.6428 5.93163L97.6585 5.94723C97.8536 5.88957 98.0429 5.81476 98.2439 5.77892C98.5288 5.72749 98.8234 5.71035 99.1083 5.66516C99.1707 5.65581 99.2546 5.58728 99.2624 5.53897C99.2683 5.49689 99.1941 5.41273 99.1375 5.40182C98.7258 5.32546 98.3024 5.28652 97.8926 5.38002C96.9131 5.60597 95.9023 5.58881 94.9032 5.63089C94.5247 5.64647 94.1559 5.64024 93.7988 5.75556C93.4417 5.87087 93.0768 5.88333 92.6904 5.86775C91.8923 5.83659 91.104 5.94567 90.3235 6.0641C89.4571 6.195 88.5966 6.33682 87.7088 6.31344C87.5 6.30877 87.2853 6.31656 87.0824 6.3524C86.3233 6.49109 85.5818 6.32744 84.8326 6.28537C84.7155 6.27913 84.5808 6.23239 84.4949 6.17005C84.2549 5.99864 83.9739 5.95812 83.6754 5.97059C83.2578 5.98773 82.8402 6.01266 82.4227 6.04694C81.9173 6.08902 81.4216 6.07967 80.9357 5.93787C80.7406 5.88021 80.5377 5.8179 80.3328 5.80543C78.9298 5.7244 77.6595 5.27717 76.358 4.91097C76.0029 4.81123 75.6458 4.72083 75.2926 4.61643C74.8633 4.48864 74.4145 4.38114 74.0145 4.20817C72.9296 3.736 71.7412 3.54122 70.5587 3.31838C69.6963 3.15632 68.8318 3.07682 67.944 3.10175C67.4425 3.11578 66.9371 3.09864 66.4356 3.0706C65.8483 3.03631 65.2707 3.03162 64.6814 3.09084C64.1858 3.1407 63.6785 3.10176 63.175 3.10331L63.1925 3.11891C63.0989 3.11891 63.0052 3.11891 62.9116 3.11891L62.9233 3.10487C62.5116 3.27005 62.1077 3.43058 61.614 3.35734C61.4754 3.33708 61.2822 3.40717 61.1593 3.48353C60.8627 3.66585 60.5505 3.67677 60.2129 3.60508C60.1329 3.58794 60.0509 3.57079 59.9709 3.55365C59.3446 3.41184 58.7377 3.41498 58.1582 3.68924C57.8655 3.82793 57.5396 3.88246 57.204 3.90895C56.8235 3.93855 56.4781 4.05389 56.1484 4.20193C55.9923 4.27205 55.922 4.39049 55.8752 4.52139L55.8869 4.51203C55.5473 4.42632 55.3424 4.2253 55.1395 4.00402C54.8975 3.73911 54.5073 3.75003 54.3531 4.05702C54.1951 4.37024 53.8907 4.40761 53.5726 4.46371C53.516 4.47462 53.4282 4.4154 53.3697 4.37488C53.1219 4.20035 53.0399 4.17856 52.8663 4.2892C52.4701 4.54165 52.035 4.73174 51.5667 4.88445C51.2349 4.99353 50.913 4.96859 50.5832 4.91873C50.5071 4.90782 50.4057 4.87512 50.3725 4.82681C50.1481 4.4871 49.752 4.55099 49.3871 4.55567C49.2661 4.55723 49.1471 4.60865 49.0241 4.63046C47.7168 4.85486 46.3996 5.03563 45.0767 5.18367C44.624 5.23509 44.181 5.34103 43.7341 5.42518C43.5975 5.45167 43.6268 5.57481 43.8083 5.73064L43.7946 5.7166C43.6463 5.77426 43.5 5.87711 43.3497 5.88023C42.6395 5.89581 41.9272 5.90048 41.2189 5.87243C40.8755 5.85841 40.5711 5.85063 40.2589 6.00178C40.0949 6.08126 39.855 6.08749 39.652 6.0797C38.9847 6.05476 38.3115 6.11398 37.648 6.00646C37.447 5.97374 37.2305 6.00489 37.0236 5.9971C36.8578 5.99087 36.6763 5.99709 36.5319 5.94567C36.0187 5.76334 35.5016 5.67452 34.9435 5.78984C34.8674 5.80542 34.7737 5.79141 34.6976 5.76804C33.7883 5.49222 32.7951 5.57013 31.8721 5.34106C31.3531 5.21328 30.8204 5.12132 30.2955 5.006C29.4096 4.80966 28.5159 4.63825 27.6495 4.38892C26.9412 4.18478 26.229 3.99154 25.5187 3.79519C24.7284 3.57703 23.9401 3.34797 23.142 3.14851C21.4229 2.71686 19.6706 2.38026 17.8872 2.17145C16.9369 2.06081 15.969 2.04056 15.009 1.98446C14.8841 1.97667 14.7553 1.98288 14.6343 2.00002C13.6802 2.14027 12.7182 2.13561 11.7542 2.13249C11.4244 2.13093 11.0771 2.12003 10.7902 2.293C10.7375 2.32573 10.6966 2.41297 10.7122 2.46439C10.7278 2.51114 10.8176 2.55948 10.8858 2.57662C10.9619 2.59688 11.0517 2.59373 11.1337 2.58282C11.4634 2.53919 11.803 2.51427 12.1171 2.43323C12.7455 2.27117 13.3484 2.26963 13.9494 2.49403C14.2187 2.59532 14.5055 2.62804 14.8021 2.64362C17.1086 2.76517 17.2452 2.78231 19.6043 3.18591C19.8502 3.22798 20.098 3.25914 20.3439 3.2981C20.5078 3.32459 20.6795 3.34175 20.8317 3.39318C21.1751 3.50849 21.4971 3.70325 21.8503 3.74844C22.2171 3.79519 22.5996 3.7952 22.9625 3.87935C23.2435 3.94324 23.5537 3.98375 23.7859 4.10997C24.4006 4.44501 25.1129 4.50422 25.8056 4.61175C26.1783 4.6694 26.5295 4.7302 26.871 4.87357C27.3881 5.09017 27.9305 5.27405 28.4691 5.45481C28.7384 5.5452 29.0213 5.61063 29.3023 5.6714C30.1101 5.84593 30.9219 6.00644 31.7297 6.18253C31.9287 6.22616 32.1161 6.30095 32.3151 6.36484C32.1609 6.62196 31.8507 6.46459 31.6633 6.57523C31.6321 6.59393 31.5853 6.62665 31.5892 6.64846C31.599 6.70768 31.6146 6.77626 31.6595 6.81833C31.7122 6.86508 31.796 6.89311 31.8741 6.91649C32.0712 6.97415 32.2683 7.03025 32.4693 7.07388C33.0332 7.19699 33.5991 7.32166 34.1688 7.4323C34.4518 7.48684 34.7425 7.53203 35.0332 7.54761C35.7474 7.58657 36.4441 7.69253 37.1387 7.81876C37.3826 7.86395 37.6305 7.89667 37.8783 7.93407C38.0773 7.96368 38.2959 7.91847 38.4832 8.03534C37.7476 8.14443 37.248 8.16157 36.5319 8.08054C35.9523 8.01353 35.3689 7.95276 34.7971 7.85147C32.9161 7.52111 31.0331 7.19855 29.195 6.73418C28.4379 6.54251 27.6885 6.32903 26.9353 6.12333C26.1041 5.89582 25.2787 5.65427 24.4397 5.4439C24.1255 5.36598 23.7821 5.35974 23.4523 5.32078C23.2142 5.193 22.9488 5.13692 22.662 5.13847C22.381 4.8907 22.0122 4.93277 21.6532 4.94057C20.8414 4.58527 20.6248 4.54317 20.1233 4.64446C20.6209 4.81276 21.1341 4.89848 21.6668 4.92653C21.9673 5.10573 22.3186 5.12288 22.6757 5.12443C22.9079 5.26936 23.1811 5.30363 23.464 5.30675C23.5577 5.36752 23.6377 5.45637 23.745 5.48597C24.5567 5.71972 25.3782 5.93475 26.19 6.17005C26.5373 6.26979 26.8749 6.39446 27.2046 6.52691C27.3042 6.56743 27.3646 6.66874 27.4446 6.74198L27.4603 6.72638C27.029 6.78092 26.629 6.67807 26.2329 6.56587C24.4943 6.07033 22.6893 5.76021 20.9078 5.38466C19.3662 5.05897 17.7759 4.94367 16.1856 4.85329C15.5163 4.81589 14.8451 4.8081 14.1758 4.77538C13.0362 4.72083 11.9181 4.8689 10.798 4.99356C10.5502 5.02005 10.3102 5.08861 10.0683 5.14315C9.42433 5.28963 8.78042 5.43921 8.13649 5.58569C8.01551 5.61218 7.8906 5.62934 7.76767 5.64336C7.42619 5.68388 7.21158 5.54829 7.07108 5.31454L7.08471 5.32702C6.98714 5.38312 6.8291 5.42677 6.80569 5.49689C6.72568 5.73375 6.58713 5.90671 6.30419 6.02514C5.7188 6.27135 5.13733 6.52535 4.5734 6.79962C3.86703 7.144 3.18408 7.51645 2.48356 7.86707C2.27477 7.97148 2.04449 8.04627 1.824 8.1351L1.83962 8.14602C1.85718 8.01356 1.87865 7.87955 1.69913 7.79696C1.55864 7.73151 1.41617 7.66761 1.28153 7.59281C1.19762 7.54606 1.20933 7.37776 1.27958 7.31854C1.71472 6.94923 2.26306 6.71391 2.81918 6.48639C3.8924 6.04851 4.96171 5.60439 6.03688 5.16495C6.33348 5.0434 6.63202 4.92655 6.85056 4.71618L6.83689 4.7255C7.07885 4.67407 7.32475 4.63515 7.55891 4.56503C7.66623 4.5323 7.79305 4.45591 7.83207 4.37644C7.90232 4.2284 7.9999 4.12088 8.19113 4.18477C8.63213 4.33437 9.00871 4.19723 9.39312 4.0601C9.48288 4.02893 9.49461 3.96819 9.46339 3.89339C9.4146 3.77963 9.4907 3.68768 9.60583 3.64872C9.86535 3.56146 10.1346 3.49602 10.5112 3.39162C10.2946 3.36512 10.1834 3.32927 10.0839 3.3433C9.67216 3.40096 9.25263 3.44148 8.86042 3.54901C8.36869 3.68302 7.88279 3.69548 7.37936 3.65652C7.27789 3.64873 7.21935 3.61288 7.2291 3.53497C7.23301 3.50692 7.2662 3.46796 7.29937 3.45549C7.48475 3.38225 7.66815 3.30121 7.86523 3.25135C8.46233 3.09863 9.06723 2.96309 9.66433 2.81193C9.72092 2.79791 9.78533 2.70905 9.77947 2.65918C9.77557 2.61711 9.67799 2.5501 9.61945 2.54699C9.45554 2.5392 9.28187 2.54078 9.12577 2.57506C8.92673 2.6187 8.72966 2.6857 8.54819 2.76517C8.02914 2.98801 7.48084 3.14695 6.91106 3.26226C6.79008 3.2872 6.65152 3.29187 6.55005 3.34174C5.70124 3.7656 4.73924 4.03675 3.96457 4.55879C3.90213 4.60086 3.86505 4.66476 3.81432 4.71774L3.83385 4.70682C3.65823 4.7785 3.48263 4.85016 3.30896 4.92185L3.3304 4.90941C2.99477 4.95616 2.7294 5.08704 2.55378 5.32546L2.57527 5.30986C2.40746 5.41427 2.40746 5.4143 2.57722 5.53273L2.55769 5.51713C2.46793 5.80386 2.09721 5.89269 1.90012 6.10618C1.72841 6.29317 1.55668 6.4864 1.3518 6.64846C1.2074 6.76066 1.01228 6.83701 0.826907 6.90869C0.633728 6.98349 0.374197 6.90559 0.282485 6.76534C0.214189 6.66093 0.245401 6.4911 0.370284 6.39604C0.549805 6.25891 0.742959 6.13112 0.930284 5.99866C0.92443 5.69791 0.902985 5.3956 1.24251 5.17899C1.26203 5.16652 1.25812 5.09483 1.24251 5.0886C1.17422 5.06211 1.09424 5.02937 1.02399 5.03716C0.741051 5.06989 0.506874 5.2709 0.173201 5.18987C0.134175 5.06832 0.106879 4.93588 0.0502913 4.81433C-0.0121505 4.68188 -0.0297351 4.56034 0.0756354 4.43723C0.169298 4.32504 0.245393 4.20814 0.216124 4.06322C0.155633 3.75 0.382007 3.54898 0.678606 3.40718C1.50791 3.01292 2.36254 2.66074 3.32063 2.50803L3.31287 2.49715C3.31872 2.56571 3.3265 2.63425 3.33235 2.70282L3.32649 2.69814C3.50016 2.63113 3.67386 2.56572 3.84557 2.49871L3.82018 2.52051C3.82018 2.44415 3.82018 2.3678 3.82213 2.29144L3.83971 2.30392C3.91386 2.27431 3.99189 2.21665 4.06409 2.22132C4.56558 2.25717 4.95977 2.12471 5.26027 1.79747C5.56662 1.46399 5.99979 1.26763 6.45444 1.08531C7.97841 0.477572 9.61556 0.212669 11.2898 0.081771C11.9962 0.0272302 12.7123 0.0381322 13.4245 0.0365739C14.2616 0.0350156 15.0968 0.0770641 15.9339 0.0100568C16.3437 -0.0226676 16.769 0.0318914 17.1847 0.0677325C17.8091 0.120715 18.4335 0.181487 19.0521 0.260961C19.7994 0.356018 20.5292 0.525874 21.1966 0.806369C21.6571 1.00116 22.1157 1.11649 22.6347 1.09467C23.1069 1.07597 23.5479 1.20374 23.983 1.31594C25.3372 1.66344 26.6914 2.01562 28.0281 2.40519C29.6067 2.8649 31.2321 3.18122 32.8634 3.48197C33.5132 3.60196 34.1708 3.70171 34.8147 3.80767C34.8518 3.91052 34.8323 4.02896 34.9845 4.0539C35.1054 4.07415 35.2401 4.09439 35.3572 4.07258C35.6831 4.01492 35.9035 4.1053 36.1162 4.30788C36.2938 4.47774 36.4597 4.49489 36.6685 4.36244C37.0587 4.11467 37.5173 4.09597 37.9719 4.05702C38.091 4.04611 38.2373 4.05855 38.3349 4.10685C38.7759 4.32969 39.3164 4.27362 39.7749 4.44815C39.9193 4.50269 40.1047 4.5245 40.2647 4.51359C40.6862 4.48398 41.0999 4.5245 41.5174 4.55411C41.816 4.57592 42.1028 4.52451 42.3643 4.40764C42.577 4.31102 42.6961 4.06166 42.9771 4.09906C43.1683 4.12399 43.3322 4.26427 43.5234 4.32504C43.8746 4.4388 44.2395 4.5089 44.6279 4.46059C44.8757 4.42943 45.1273 4.42789 45.3752 4.39984C46.3294 4.29231 47.2797 4.17387 48.2339 4.07102C48.7334 4.01648 49.2271 3.95727 49.6817 3.76403C50.1383 3.5708 50.632 3.49289 51.1432 3.56613C51.6623 3.64093 52.1384 3.52252 52.6165 3.3963C53.0126 3.29189 53.4145 3.19837 53.8126 3.09863C54.2165 2.99734 54.6283 2.97085 55.0537 2.9802C55.641 2.99267 56.2205 2.92568 56.8001 2.84465C57.3113 2.77452 57.6274 2.59375 57.7504 2.16833C57.8226 1.91432 58.1543 1.89562 58.406 2.12781C58.5367 2.2478 58.6772 2.29611 58.8353 2.24624C59.2704 2.10911 59.7056 2.02962 60.1797 2.07482C60.3593 2.09196 60.4529 1.96418 60.5466 1.84419C60.7417 1.59486 60.8373 1.55436 61.0188 1.66812C61.5671 2.00939 62.1915 1.98444 62.8179 1.92678C63.3174 1.88159 63.8131 1.81147 64.3067 1.73667C64.8043 1.66032 65.2961 1.60265 65.8015 1.6868C65.8815 1.69926 65.9693 1.68991 66.0512 1.68368C66.3186 1.66186 66.5254 1.56995 66.6366 1.3627C66.6679 1.30348 66.7264 1.2536 66.7771 1.19283C67.0932 1.07751 67.4308 1.14919 67.7606 1.14763C68.2621 1.14763 68.7596 1.18504 69.2631 1.12427C69.7724 1.0635 70.2621 1.18191 70.7285 1.33774C70.9314 1.40475 71.1226 1.42656 71.3353 1.37202C71.7627 1.26294 72.1666 1.36581 72.5608 1.48113C73.3081 1.69773 74.0535 1.92054 74.795 2.15117C75.5365 2.3818 76.2663 2.63581 77.0098 2.86021C78.2664 3.24044 79.5621 3.51005 80.8812 3.70796C81.6207 3.8186 82.3583 3.94634 83.1037 4.02426C83.3573 4.05075 83.5876 4.03986 83.7866 4.19881C83.9096 4.29698 84.0988 4.30321 84.2627 4.26893C84.7154 4.17387 85.1642 4.21438 85.6267 4.22841C86.4131 4.25334 87.2131 4.32657 87.9937 4.13801C88.1849 4.09126 88.4073 4.12558 88.6161 4.12869C88.7527 4.13025 88.8327 4.2362 88.8464 4.42788C88.8483 4.4606 88.8327 4.49334 88.8249 4.52607L88.8385 4.51359C88.7507 4.58216 88.6493 4.64291 88.579 4.72238C88.5381 4.76913 88.5185 4.8533 88.5439 4.90473C88.5673 4.95303 88.6629 5.01536 88.7195 5.01068C89.2932 4.96549 89.8669 4.91873 90.4347 4.84705C90.6396 4.82056 90.6259 4.66008 90.5986 4.52451L90.585 4.53539C90.9596 4.4902 91.3186 4.51668 91.6679 4.64602C91.8065 4.69745 91.9255 4.64292 92.0192 4.46527C92.0875 4.33593 92.1831 4.24245 92.3158 4.16609C92.628 3.98689 92.9792 3.9105 93.3597 3.90739L93.3461 3.89495C93.5529 4.01026 93.7773 4.06791 94.0271 4.00558C94.2573 3.94948 94.4817 3.87937 94.712 3.82327C94.9579 3.7625 95.1862 3.81234 95.4028 3.91363L95.3871 3.90119C95.6369 3.91209 95.8886 3.93235 96.1384 3.9339C96.437 3.93702 96.7316 3.90116 96.9462 3.71572C97.1921 3.50535 97.5004 3.43366 97.8419 3.40094C98.1736 3.36977 98.5268 3.36512 98.8293 3.26694C99.3912 3.08151 99.8869 3.15786 100.291 3.37758C100.603 3.42588 100.783 3.33394 100.966 3.25758C101.276 3.1298 101.614 3.09864 101.945 3.14851C102.459 3.22643 102.943 3.15005 103.434 3.05344C103.84 2.97396 104.256 2.92412 104.66 2.83841C104.921 2.78387 105.15 2.79633 105.38 2.90697C105.528 2.97865 105.698 3.01292 105.856 2.93968C106.127 2.81346 106.404 2.82907 106.703 2.85089C107.458 2.90387 108.188 3.05034 108.919 3.19371C109.936 3.39317 110.953 3.58796 111.971 3.77963C112.215 3.82482 112.465 3.86844 112.713 3.87935C113.632 3.91831 114.547 4.00091 115.46 4.09285C115.929 4.1396 116.377 4.10685 116.82 3.98218C117.103 3.90271 117.4 3.86532 117.683 3.95102C118.147 4.09283 118.606 4.0305 119.037 3.91363C119.718 3.72975 120.409 3.64407 121.123 3.59108C121.702 3.54901 122.274 3.41966 122.842 3.3059C123.41 3.19214 123.96 3.03475 124.559 3.03164C124.752 3.03008 124.949 2.93033 125.135 2.85865C125.351 2.77606 125.531 2.79475 125.701 2.93032C125.796 3.00668 125.915 3.02852 126.042 2.98956C126.235 2.9319 126.423 2.8306 126.62 2.81657C126.819 2.80255 127.041 2.84464 127.229 2.91008C127.619 3.0441 128.025 3.09864 128.442 3.14539C128.981 3.20617 129.512 3.30746 130.048 3.37914C130.749 3.47264 131.461 3.52873 132.154 3.65184C132.741 3.75625 133.324 3.78898 133.892 3.65652C134.439 3.5303 134.958 3.53807 135.488 3.67832C135.643 3.71884 135.81 3.72662 135.97 3.74844C135.957 3.82947 135.955 3.89025 135.933 3.94634C135.873 4.10373 135.896 4.177 136.011 4.16765C136.597 4.11623 137.167 4.00713 137.697 3.80299C137.877 3.73287 138.017 3.59886 138.177 3.49445L138.162 3.50693C138.808 3.5007 139.37 3.26381 139.959 3.09551C140.072 3.06279 140.193 3.04879 140.314 3.03788C140.335 3.03632 140.378 3.07994 140.388 3.10799C140.398 3.1376 140.394 3.19212 140.371 3.20303C139.941 3.40873 139.51 3.60665 139.081 3.81079C139.052 3.82482 139.022 3.87001 139.03 3.89495C139.05 3.97286 139.12 3.98843 139.223 3.9557C140.659 3.50379 142.084 3.02385 143.54 2.6109C143.774 2.54389 144.012 2.47065 144.16 2.29144C144.199 2.27742 144.236 2.26495 144.275 2.25092C144.242 2.26806 144.207 2.28522 144.174 2.30392C143.863 2.33664 143.553 2.3678 143.243 2.40519C142.972 2.43636 142.702 2.47531 142.433 2.50959L142.447 2.52207C142.556 2.42545 142.646 2.27273 142.779 2.24468C143.579 2.07015 144.355 1.81458 145.192 1.76627C145.452 1.75225 145.676 1.84265 145.871 1.97978C145.967 2.04679 146.035 2.18546 145.981 2.24C145.93 2.28987 145.879 2.35378 145.811 2.37404C145.579 2.44416 145.337 2.48935 145.106 2.56415C145.054 2.58129 144.999 2.67947 145.015 2.72622C145.065 2.88205 145.149 3.03008 145.222 3.18435C145.104 3.27006 145.003 3.3277 144.927 3.4025C144.691 3.62533 144.406 3.73442 144.045 3.64248C143.713 3.55833 143.393 3.56613 143.063 3.64404C142.745 3.7204 142.418 3.7734 142.099 3.85287C141.424 4.02117 140.763 4.21751 140.033 4.19881C139.693 4.18946 139.405 4.35621 139.139 4.52451L139.159 4.50891C138.985 4.58059 138.81 4.65382 138.636 4.7255L138.653 4.7115C138.464 4.76604 138.296 4.83305 138.189 4.98888C138.14 5.06056 137.994 5.0886 137.89 5.13535L137.906 5.12287C137.25 5.42363 136.546 5.62776 135.808 5.73528C134.948 5.8615 134.076 5.94101 133.207 6.0423C132.917 6.07658 132.632 6.05318 132.339 6.0189C131.639 5.93943 130.93 5.8927 130.224 5.84439C130.105 5.8366 129.98 5.88177 129.861 5.90515C129.726 5.93164 129.638 5.88955 129.541 5.81475C129.229 5.57945 129.221 5.58414 128.54 5.63089C128.593 5.72438 128.858 5.7805 128.628 5.92231C128.544 5.97373 128.489 6.03918 128.561 6.07346C128.737 6.15917 128.948 6.20434 129.117 6.29473C129.459 6.47549 129.814 6.49886 130.195 6.41004C130.353 6.37264 130.505 6.30408 130.673 6.37732C130.708 6.3929 130.757 6.42094 130.758 6.44432C130.764 6.50509 130.774 6.60017 130.733 6.62355C130.489 6.76068 130.214 6.82612 129.91 6.80897C129.578 6.79028 129.244 6.77937 128.913 6.77782C128.854 6.77782 128.753 6.83702 128.745 6.87753C128.735 6.93207 128.778 7.01 128.833 7.05052C128.92 7.11597 129.032 7.19388 129.139 7.20167C129.344 7.21725 129.555 7.19389 129.759 7.17207C130.247 7.12065 130.647 7.22193 131 7.51489C131.25 7.72059 131.453 7.67696 131.73 7.44166C131.787 7.39335 131.834 7.33726 131.896 7.29207C132.017 7.20324 132.222 7.17829 132.353 7.27335C132.581 7.44009 132.817 7.52268 133.139 7.51021C133.543 7.49307 133.859 7.36527 134.126 7.13932L134.111 7.12688C134.284 7.2344 134.485 7.31232 134.686 7.21415C135.44 6.84639 136.265 6.61886 137.088 6.37888C137.362 6.29941 137.654 6.23395 137.889 6.10306C138.304 5.87243 138.726 5.66361 139.215 5.55453C139.656 5.45636 140.006 5.18209 140.492 5.15871C140.745 5.14781 140.927 4.98108 141.132 4.86421C142.154 4.27673 143.311 4.05701 144.558 4.12869C144.73 4.13804 144.874 4.20505 144.97 4.3266C145.124 4.52451 145.274 4.72394 145.426 4.92341V4.92029ZM2.81723 4.31412L2.82309 4.3188L2.78988 4.3406L2.81723 4.31412ZM28.992 6.12022C28.9257 6.09061 28.8593 6.05943 28.793 6.03294C28.6876 5.99087 28.6408 6.00801 28.674 6.07346C28.6818 6.08904 28.7423 6.09214 28.7813 6.09526C28.8574 6.10149 28.9335 6.10462 29.0096 6.1093C29.275 6.19344 29.5384 6.27913 29.8057 6.36016C29.8253 6.3664 29.8838 6.3337 29.8916 6.31188C29.8994 6.29007 29.8662 6.2402 29.8448 6.23709C29.5599 6.19346 29.2769 6.15761 28.992 6.12022ZM6.83689 2.7231C6.36272 2.74803 5.94714 2.89295 5.56273 3.10799C5.01636 3.22954 4.53047 3.44613 4.07776 3.71572L4.06605 3.7064C4.23191 3.69081 4.40168 3.68925 4.56364 3.65808C4.98512 3.57861 5.34222 3.4212 5.5471 3.09551C5.75004 3.0924 5.9549 3.0971 6.15589 3.08463C6.46614 3.06593 6.68862 2.93813 6.82131 2.71218L6.83689 2.7231ZM110.215 6.52067C110.422 6.52067 110.635 6.55027 110.832 6.51443C111.111 6.46457 111.374 6.36484 111.645 6.29005C111.755 6.26044 111.784 6.22304 111.698 6.13578C110.91 5.94722 110.075 5.7867 109.208 5.73528L109.222 5.7244C109.651 5.91919 110.014 6.16539 110.229 6.53159L110.215 6.52067ZM119.025 7.33102C119.458 6.99443 119.997 6.80897 120.571 6.72638C121.675 6.56899 122.768 6.34771 123.894 6.29473C124.009 6.28849 124.054 6.26046 124.005 6.15605C123.751 6.12177 123.47 6.08434 123.189 6.04694C122.51 6.22459 121.78 6.10151 121.096 6.26981C120.85 6.33058 120.604 6.31033 120.465 6.0797C120.44 6.03607 120.325 6.00023 120.255 6.00334C119.714 6.03762 119.191 6.12955 118.707 6.33524C118.686 6.34459 118.674 6.39446 118.686 6.41784C118.696 6.44277 118.733 6.47081 118.766 6.48016C118.844 6.50197 118.926 6.51289 119.008 6.52691L118.994 6.51443C118.496 6.7887 117.934 6.88689 117.339 6.88689C117.22 6.88689 117.179 6.85417 117.214 6.7747C117.328 6.73418 117.451 6.70301 117.552 6.64846C117.607 6.6173 117.663 6.53782 117.65 6.49107C117.638 6.44744 117.534 6.38668 117.476 6.3898C117.103 6.40694 116.725 6.41786 116.36 6.47395C115.86 6.55187 115.365 6.54562 114.865 6.49731C114.699 6.48173 114.537 6.45057 114.373 6.42252C114.016 6.36174 113.714 6.41471 113.505 6.67962C113.462 6.73416 113.378 6.76691 113.324 6.81521C113.3 6.83703 113.279 6.89155 113.294 6.90713C113.343 6.95544 113.409 7.02712 113.472 7.02868C113.677 7.0318 113.889 7.02869 114.088 6.99284C114.498 6.91649 114.91 6.86975 115.328 6.92429C115.39 6.93208 115.443 6.98973 115.493 7.03024C115.499 7.03492 115.46 7.09413 115.431 7.10348C114.965 7.24528 114.494 7.37933 114.028 7.52269C113.926 7.55386 113.921 7.61775 113.987 7.6754C114.227 7.72215 114.467 7.77045 114.707 7.8172C115.004 8.15691 115.409 8.11172 115.827 8.0151C116.227 7.92316 116.623 7.82654 117.023 7.73148L117.008 7.74396C117.456 7.59125 117.907 7.44321 118.352 7.28271C118.604 7.19233 118.824 7.22348 119.039 7.34502C118.959 7.35593 118.877 7.35905 118.803 7.38086C118.697 7.41203 118.684 7.46658 118.768 7.50865C118.789 7.51956 118.852 7.50243 118.875 7.48217C118.932 7.43698 118.976 7.38089 119.025 7.33102ZM102.548 5.50309C102.868 5.50309 103.366 5.50465 103.864 5.50309C104.07 5.50309 104.277 5.50467 104.48 5.48597C104.535 5.4813 104.582 5.40181 104.621 5.35194C104.627 5.34571 104.564 5.28495 104.539 5.28651C103.799 5.33481 103.06 5.44544 102.328 5.23663C102.254 5.21481 102.162 5.22572 102.08 5.23351C101.504 5.28493 100.927 5.33792 100.353 5.39402C100.322 5.39714 100.285 5.42676 100.273 5.45169C100.238 5.5187 100.283 5.57948 100.386 5.57637C101.046 5.55767 101.709 5.53114 102.548 5.50309ZM87.461 5.02316C87.4005 4.89538 87.3497 4.78006 87.2892 4.66474C87.2756 4.63669 87.2424 4.60709 87.2073 4.59463C86.9321 4.48866 86.4229 4.63203 86.2472 4.87045C86.1985 4.9359 86.2355 5.01225 86.3253 5.02472C86.6902 5.07614 87.0551 5.0964 87.461 5.02316ZM93.6719 5.23819C93.9705 5.27091 94.0837 5.29742 94.1949 5.29274C94.5579 5.27716 94.9208 5.25224 95.2837 5.22731C95.3188 5.22419 95.3579 5.19925 95.3852 5.17587C95.4105 5.15405 95.4379 5.12133 95.4398 5.09328C95.4398 5.0699 95.4086 5.03874 95.3813 5.02316C95.35 5.00602 95.3072 4.9982 95.2701 4.9982C95.1901 4.99664 95.1062 4.99354 95.0281 5.006C94.6359 5.06989 94.2456 5.14002 93.6719 5.23819ZM133.139 5.50933C133.088 5.47349 133.04 5.41117 132.987 5.40806C132.93 5.40494 132.84 5.44546 132.813 5.48753C132.762 5.56701 132.897 5.66517 133.012 5.63244C133.065 5.6153 133.096 5.55141 133.139 5.50933ZM105.698 5.4283C105.766 5.40336 105.86 5.39402 105.893 5.35194C105.942 5.29117 105.889 5.21795 105.799 5.21483C105.733 5.21327 105.663 5.25689 105.596 5.28027C105.63 5.33013 105.663 5.37843 105.698 5.4283ZM60.2558 3.13603C60.2578 3.16564 60.2441 3.20616 60.2636 3.22175C60.3417 3.28564 60.4861 3.26069 60.5876 3.16563C60.6051 3.14849 60.5915 3.08151 60.5876 3.08151C60.5115 3.07684 60.4334 3.07216 60.3592 3.08151C60.3202 3.08463 60.289 3.11733 60.2558 3.13603ZM19.2472 3.81859C19.2765 3.83729 19.3018 3.8622 19.3331 3.87155C19.3682 3.88246 19.4092 3.88558 19.4462 3.88247C19.4814 3.87779 19.5204 3.86533 19.5458 3.84663C19.6297 3.78897 19.4697 3.72351 19.3136 3.75936C19.2882 3.76559 19.2706 3.79833 19.2472 3.81859ZM20.6385 3.9791C20.5741 3.95105 20.5097 3.90275 20.4453 3.90275C20.3399 3.90275 20.3029 3.97128 20.3809 4.0227C20.4297 4.05542 20.5233 4.04922 20.5975 4.05078C20.6112 4.04922 20.6248 4.00403 20.6385 3.9791ZM18.9877 4.39984C18.9525 4.39672 18.9136 4.38736 18.8784 4.39048C18.8433 4.39359 18.8121 4.41073 18.7789 4.42164C18.8121 4.4341 18.8433 4.4528 18.8765 4.45903C18.9116 4.46527 18.9506 4.46059 18.9877 4.45591C18.9916 4.45747 18.9877 4.42009 18.9877 4.39984ZM124.631 5.4065C124.598 5.40338 124.563 5.39402 124.53 5.3987C124.407 5.41584 124.405 5.44388 124.528 5.46726C124.561 5.47349 124.598 5.46729 124.631 5.46105C124.637 5.46105 124.631 5.42676 124.631 5.4065ZM88.659 5.60909C88.5576 5.60129 88.4951 5.63556 88.4912 5.71348C88.4912 5.73062 88.5634 5.77115 88.579 5.76492C88.6434 5.73843 88.6981 5.69633 88.7566 5.66204C88.7234 5.64334 88.6922 5.62623 88.659 5.60909ZM101.118 7.69564C101.159 7.69097 101.222 7.69878 101.237 7.68164C101.298 7.61152 101.255 7.57411 101.132 7.58969C101.095 7.59436 101.062 7.62086 101.028 7.63645C101.058 7.6567 101.089 7.67538 101.118 7.69564ZM18.0686 3.64404L18.053 3.59729L17.9808 3.6238L18.0686 3.64404Z" fill="#FFD000"/>
<path d="M80.526 7.13465C79.7572 7.17049 79.045 6.96477 78.323 6.80115C78.2918 6.79336 78.2371 6.80585 78.2137 6.82455C78.159 6.86818 78.1786 6.93206 78.2781 6.96478C78.5845 7.06607 78.8908 7.1736 79.2089 7.24685C80.2899 7.49617 81.3397 7.82341 82.4422 8.01976C82.4988 8.02911 82.5671 8.11949 82.5671 8.17403C82.5671 8.22234 82.4949 8.29556 82.4344 8.31582C82.3232 8.35478 82.1963 8.37195 82.0734 8.3813C81.8724 8.39844 81.6402 8.37037 81.6773 8.62904C81.6792 8.64619 81.6207 8.68049 81.5855 8.68672C81.5055 8.69919 81.4138 8.71786 81.3397 8.70072C80.1435 8.41867 78.8869 8.36571 77.6947 8.02912C76.5141 7.69564 75.314 7.4089 74.1647 7.0053C72.9744 6.58611 71.7334 6.28225 70.4651 6.07811C69.0738 5.85528 67.6571 5.75554 66.2288 5.84125C65.5224 5.88332 64.8102 5.87242 64.1019 5.88488C63.735 5.76645 63.3545 5.87241 62.9837 5.83813C62.7574 5.81787 62.5994 5.9067 62.4179 6.0002C62.1486 6.13889 61.8383 6.13574 61.6198 5.9316C61.3349 5.66669 60.9798 5.61062 60.6012 5.68542C59.9514 5.8132 59.2978 5.91447 58.6324 5.97368C58.4665 5.98926 58.4294 6.07968 58.4977 6.27914C58.5582 6.46146 58.5602 6.46143 58.2928 6.51909C58.2519 6.52688 58.2109 6.53001 58.1699 6.53625L58.1855 6.55029C58.084 6.49263 57.9943 6.40535 57.8811 6.38042C57.2352 6.23082 56.5835 6.12485 55.9103 6.2947C55.7132 6.34457 55.4986 6.34925 55.2937 6.38042C54.958 6.43028 54.7746 6.5783 54.8176 6.86815C54.8332 6.98035 54.7668 7.06608 54.6341 7.09101C54.4741 7.12062 54.3044 7.14556 54.1424 7.13465C53.9551 7.12374 53.8966 6.97567 53.8068 6.86659C53.7639 6.81361 53.6916 6.77779 53.6331 6.73416C52.3784 6.76221 51.1608 7.01775 49.9217 7.14085C49.6466 7.1689 49.4359 7.28268 49.3441 7.47903C49.1763 7.83744 48.8426 7.99014 48.4016 8.04936C48.2631 8.06806 48.2065 8.01506 48.269 7.88105C48.3158 7.78443 48.3588 7.62707 48.2456 7.63486C47.668 7.67226 47.0865 7.49304 46.5167 7.66134C45.5079 7.68939 44.5244 7.82964 43.5683 8.09144C43.4512 8.1226 43.3224 8.13196 43.1975 8.13351C42.6531 8.13975 42.1184 8.19116 41.5779 8.24415C41.0062 8.30025 40.4169 8.25506 39.8354 8.24415C39.7867 8.24259 39.7008 8.15378 39.7028 8.10859C39.7047 8.06029 39.7828 7.99949 39.8472 7.973C39.9174 7.94339 40.0091 7.94184 40.0911 7.93717C40.6745 7.90132 41.2599 7.88419 41.8394 7.83121C43.539 7.67382 45.2405 7.51329 46.9362 7.33252C47.4709 7.27486 47.9938 7.14088 48.5246 7.0505C48.8505 6.99596 49.1783 6.94607 49.5081 6.91647C50.5462 6.82141 51.5667 6.65001 52.5833 6.46457C52.6985 6.44275 52.7979 6.36484 52.9033 6.31186L52.8877 6.3243C53.6175 6.24171 54.3473 6.16381 55.0751 6.07187C55.1864 6.05785 55.2839 5.97683 55.3873 5.9254L55.3659 5.93472C55.6079 5.91602 55.8498 5.89735 56.0918 5.88021C56.2967 5.86618 56.4918 5.83657 56.6537 5.72593L56.6342 5.74305C57.5201 5.75396 58.3592 5.53112 59.2236 5.42515C59.5105 5.38931 59.7953 5.33948 60.0822 5.30364C60.2558 5.28182 60.3944 5.2335 60.4744 5.09793C60.572 4.93275 60.7612 4.85796 60.97 4.82991C61.3388 4.78004 61.7115 4.74263 62.0842 4.70524C62.4159 4.67251 62.7496 4.65848 63.0774 4.6164C63.6141 4.54784 64.1506 4.52137 64.695 4.52605C65.3995 4.53384 66.1097 4.54005 66.7927 4.35462C66.8161 4.34838 66.8395 4.30163 66.8356 4.2767C66.8317 4.25021 66.8025 4.21905 66.7732 4.2019C66.742 4.18321 66.6932 4.16607 66.6581 4.17231C65.979 4.29541 65.3605 4.05074 64.7185 3.96036C64.6775 3.95413 64.617 3.84505 64.6385 3.80921C64.6639 3.76558 64.7692 3.7157 64.8278 3.72505C65.1966 3.77336 65.5614 3.84973 65.9302 3.89336C66.1312 3.91674 66.3439 3.90738 66.5449 3.884C66.6405 3.8731 66.6503 3.78115 66.5664 3.72661C66.4727 3.6674 66.4493 3.6004 66.541 3.58326C67.0776 3.48665 67.6181 3.52402 68.1547 3.5957C68.7284 3.67362 69.304 3.74997 69.8777 3.82633C70.0455 3.84814 70.2055 3.82946 70.3577 3.75933C70.7909 3.55831 71.1519 3.69545 71.4915 3.92296L71.4778 3.91048C71.6768 3.93386 71.8895 3.93856 71.9695 4.12867C72.0144 4.23463 72.112 4.27515 72.2427 4.2845C72.6564 4.31722 72.8203 4.35616 73.1208 4.49173C73.1559 4.50731 73.1949 4.51822 73.232 4.53069L73.2223 4.51981C73.3999 4.63356 73.5794 4.62577 73.7589 4.51981L73.7472 4.53381C74.2838 5.00909 74.9316 5.30519 75.7473 5.33636L75.7394 5.32388C76.0048 5.47659 76.0048 5.47659 76.2722 5.32388L76.2643 5.33636C76.4985 5.49063 76.6956 5.68851 77.0156 5.7415L77 5.72905C77.4039 5.99708 77.8527 6.09211 78.3659 5.97212C78.3952 5.96589 78.4713 5.99705 78.4693 6.00796C78.4654 6.06562 78.4596 6.12796 78.4264 6.17939C78.3893 6.23549 78.3249 6.28067 78.2742 6.33054L78.2625 6.31962C78.7288 6.27911 79.1445 6.38507 79.523 6.59544C79.8528 6.77933 80.1806 6.96633 80.5104 7.15333C80.5143 7.14866 80.526 7.13465 80.526 7.13465ZM68.504 4.39513C68.3889 4.39825 68.2737 4.40138 68.1586 4.40449C68.1898 4.42163 68.2171 4.45121 68.2503 4.45433C68.3284 4.46056 68.4084 4.45589 68.4884 4.45121C68.4943 4.45121 68.4981 4.41539 68.504 4.39513ZM64.5331 5.40023C64.4238 5.42673 64.4219 5.45946 64.5331 5.48439C64.5546 5.48906 64.5877 5.4579 64.6151 5.44387C64.5877 5.42985 64.5604 5.41582 64.5331 5.40023ZM77.9562 7.40736C77.8605 7.3871 77.8273 7.4089 77.8683 7.46655C77.8761 7.47746 77.9288 7.46811 77.96 7.46655C77.96 7.44629 77.9581 7.42605 77.9562 7.40736Z" fill="#FFD000"/>
<path d="M30.4711 7.53824C30.3463 7.5398 30.2155 7.56473 30.0985 7.54136C29.2535 7.37774 28.4106 7.20322 27.6437 6.85884C27.5735 6.82767 27.5188 6.77312 27.4564 6.72793L27.4408 6.74353C27.6476 6.75132 27.8622 6.73261 28.0593 6.77312C28.5842 6.88065 29.1013 7.00844 29.6184 7.13622C29.9404 7.2157 30.2389 7.33256 30.4555 7.55072L30.4711 7.53824Z" fill="#FFD000"/>
<path d="M97.6409 5.9316C97.5356 6.21054 97.3014 6.36326 96.9404 6.40689C96.6906 6.4365 96.4526 6.45365 96.2535 6.30094C96.2243 6.27912 96.1833 6.24484 96.1872 6.22302C96.2009 6.16692 96.2223 6.07966 96.2672 6.06875C96.4194 6.02823 96.5833 6.01732 96.7414 5.98928C96.7804 5.98304 96.8155 5.96278 96.8467 5.94252C97.118 5.76643 97.3853 5.86928 97.6546 5.94876C97.6566 5.9472 97.6409 5.9316 97.6409 5.9316Z" fill="#FFD000"/>
<path d="M82.5456 7.53044C82.1788 7.34344 81.7748 7.29359 81.3475 7.31073C81.0529 7.3232 80.7621 7.31075 80.528 7.13466L80.5143 7.14866C81.3065 7.15022 82.0987 7.15023 82.891 7.15334C82.9924 7.15334 83.0529 7.20166 83.051 7.27801C83.051 7.30295 83.0061 7.33567 82.973 7.35125C82.8286 7.4167 82.6803 7.47903 82.532 7.54136L82.5456 7.53044Z" fill="#FFD000"/>
<path d="M56.6284 5.52804C56.6303 5.59972 56.6343 5.66982 56.6362 5.74151L56.6557 5.72439C56.2049 5.7088 55.7581 5.71189 55.3679 5.93317L55.3893 5.92385C55.1259 5.79451 54.8352 5.80228 54.5405 5.81474C54.5229 5.81474 54.4859 5.77268 54.4859 5.7493C54.4859 5.72281 54.5093 5.67918 54.5346 5.66983C54.6498 5.63399 54.7668 5.58723 54.8858 5.58255C55.4712 5.5623 56.0586 5.55294 56.644 5.54048L56.6284 5.52804Z" fill="#FFD000"/>
<path d="M44.5459 8.40468C44.4893 8.4452 44.4639 8.47636 44.4347 8.48103C43.9059 8.54492 43.377 8.60413 42.8463 8.66179C42.819 8.6649 42.7624 8.62752 42.7604 8.60571C42.7585 8.58077 42.7917 8.53714 42.8229 8.52623C43.3732 8.34079 43.9429 8.3517 44.5459 8.40468Z" fill="#FFD000"/>
<path d="M53.6975 5.36752C53.6058 5.3457 53.5336 5.32854 53.4595 5.30984C53.5063 5.26154 53.5434 5.18364 53.6019 5.17117C53.799 5.12754 54.0039 5.10571 54.2068 5.0839C54.2341 5.08078 54.2829 5.1182 54.2946 5.14313C54.3063 5.16807 54.2907 5.22569 54.2732 5.23037C54.078 5.28179 53.879 5.32545 53.6975 5.36752Z" fill="#FFD000"/>
<path d="M47.1938 5.20703C47.1957 5.23508 47.2133 5.27404 47.1977 5.28651C47.0494 5.41273 46.8621 5.47038 46.6474 5.47506C46.6103 5.47662 46.5655 5.46104 46.5401 5.44078C46.5245 5.42831 46.5265 5.37222 46.5382 5.36754C46.7197 5.29742 46.903 5.23041 47.0884 5.16963C47.1138 5.1634 47.1587 5.19457 47.1938 5.20703Z" fill="#FFD000"/>
<path d="M94.7374 6.21835C94.6925 6.18563 94.6515 6.17005 94.6398 6.14512C94.6281 6.12018 94.6339 6.06563 94.6515 6.0594C94.7569 6.02356 94.8662 5.98459 94.9794 5.97369C95.0457 5.96745 95.1179 6.01111 95.1881 6.03292C95.1471 6.07655 95.1159 6.14357 95.0613 6.16071C94.9559 6.19655 94.8369 6.20277 94.7374 6.21835Z" fill="#FFD000"/>
<path d="M36.9963 7.10191C36.9475 7.16113 36.9163 7.24063 36.8714 7.2453C36.6958 7.264 36.5982 7.19698 36.5397 7.03959C36.53 7.0131 36.5358 6.95855 36.5533 6.95232C36.6158 6.9305 36.7055 6.89778 36.7485 6.91804C36.8441 6.96323 36.9163 7.03958 36.9963 7.10191Z" fill="#FFD000"/>
<path d="M142.421 2.51426C142.035 2.71839 141.651 2.92877 141.155 2.90695L141.171 2.91943C141.335 2.72464 141.584 2.63892 141.856 2.59217C142.045 2.55945 142.242 2.54699 142.435 2.52517C142.435 2.52673 142.421 2.51426 142.421 2.51426Z" fill="#FFD000"/>
<path d="M52.6185 7.46033C52.5638 7.43695 52.517 7.42919 52.4994 7.40581C52.4838 7.38555 52.4877 7.33413 52.5053 7.32322C52.6028 7.26556 52.7024 7.20167 52.8136 7.17051C52.8721 7.15336 52.9599 7.197 53.0341 7.21258C53.0048 7.26557 52.9951 7.34192 52.9443 7.36529C52.8448 7.41204 52.7199 7.43228 52.6185 7.46033Z" fill="#FFD000"/>
<path d="M49.229 6.71857C49.1549 6.69987 49.0729 6.69054 49.0066 6.65937C48.9207 6.62041 49.071 6.54562 49.2642 6.54406C49.3461 6.54406 49.43 6.54715 49.51 6.55806C49.5471 6.56273 49.5998 6.58144 49.6096 6.60325C49.6369 6.66403 49.5842 6.70298 49.4768 6.70921C49.3949 6.71388 49.3129 6.71545 49.229 6.71857Z" fill="#FFD000"/>
<path d="M132.029 6.38355C132.066 6.38043 132.132 6.39132 132.138 6.40846C132.165 6.4708 132.107 6.50508 131.994 6.48482C131.923 6.47235 131.859 6.44432 131.793 6.4225C131.873 6.41004 131.951 6.39134 132.029 6.38355Z" fill="#FFD000"/>
<path d="M142.632 5.70879C142.537 5.86929 142.343 5.92072 142.158 5.97993C142.053 6.01266 141.994 5.98616 142.002 5.90202C142.004 5.87552 142.039 5.83501 142.068 5.82878C142.259 5.78826 142.453 5.75555 142.646 5.71971L142.632 5.70879Z" fill="#FFD000"/>
<path d="M62.0686 3.91049C62.1057 3.8653 62.1291 3.80143 62.1818 3.78118C62.3008 3.73598 62.4374 3.82014 62.3906 3.90117C62.3633 3.94636 62.2891 4.00089 62.2325 4.00244C62.1799 4.004 62.1252 3.94321 62.0686 3.91049Z" fill="#FFD000"/>
<path d="M37.01 8.5449C36.7778 8.51997 36.5475 8.49504 36.3075 8.47011C36.6002 8.40154 36.6002 8.40311 36.9982 8.55738L37.01 8.5449Z" fill="#FFD000"/>
<path d="M51.2584 3.05967C51.2584 3.03474 51.2486 2.99423 51.2603 2.98955C51.2935 2.97553 51.3384 2.97084 51.3735 2.97707C51.4086 2.98331 51.4359 3.00669 51.4691 3.02383C51.4379 3.04097 51.4086 3.06591 51.3755 3.07059C51.3403 3.07526 51.2994 3.06279 51.2584 3.05967Z" fill="#FFD000"/>
<path d="M60.6598 4.13802C60.7183 4.1162 60.7866 4.06635 60.8335 4.07726C60.9174 4.0944 60.9291 4.1614 60.8744 4.21905C60.8549 4.23931 60.7925 4.26424 60.7827 4.25645C60.7359 4.22217 60.6988 4.17853 60.6598 4.13802Z" fill="#FFD000"/>
<path d="M58.207 4.54942L58.1055 4.55409L58.1485 4.48398L58.207 4.54942Z" fill="#FFD000"/>
<path d="M59.0909 4.46058C59.0285 4.48863 58.968 4.5198 58.9016 4.54318C58.8938 4.54629 58.8392 4.498 58.8431 4.4793C58.8607 4.40606 58.929 4.37645 59.0227 4.39982C59.05 4.40606 59.0675 4.43877 59.0909 4.46058Z" fill="#FFD000"/>
<path d="M51.3813 5.48752C51.432 5.52336 51.4847 5.55764 51.5296 5.59659C51.5335 5.60127 51.4886 5.65895 51.475 5.65583C51.4086 5.64648 51.3403 5.62777 51.2798 5.60439C51.2681 5.59972 51.274 5.54674 51.2915 5.52648C51.3072 5.50622 51.3501 5.49999 51.3813 5.48752Z" fill="#FFD000"/>
<path d="M93.3578 6.31342C93.311 6.28225 93.2661 6.25107 93.2193 6.21991C93.2837 6.20432 93.3481 6.1825 93.4144 6.17627C93.4378 6.17315 93.4885 6.20433 93.4924 6.22459C93.5041 6.28848 93.4534 6.31965 93.3578 6.31342Z" fill="#FFD000"/>
<path d="M89.0844 6.74197C89.2015 6.72015 89.3186 6.68429 89.4337 6.68273C89.4805 6.68273 89.5313 6.75909 89.5683 6.8074C89.5761 6.81675 89.5352 6.86037 89.5059 6.8744C89.4747 6.88842 89.4181 6.90091 89.3927 6.89C89.2913 6.84169 89.1976 6.78403 89.1001 6.72949L89.0844 6.74197Z" fill="#FFD000"/>
<path d="M36.9963 8.5574C37.1524 8.55272 37.3066 8.5418 37.4627 8.54492C37.5739 8.54804 37.6051 8.59946 37.5427 8.66335C37.5232 8.68205 37.4685 8.68363 37.4314 8.68363C37.2675 8.68519 37.127 8.63684 37.01 8.5449L36.9963 8.5574Z" fill="#FFD000"/>
<path d="M52.9033 6.30719C52.8292 6.30407 52.7512 6.3103 52.679 6.29783C52.6204 6.28692 52.5677 6.25421 52.5131 6.23084C52.5404 6.21993 52.5657 6.19812 52.5931 6.19812C52.6282 6.19812 52.6653 6.21213 52.6965 6.22616C52.7609 6.25576 52.8233 6.28847 52.8877 6.31963C52.8877 6.32119 52.9033 6.30719 52.9033 6.30719Z" fill="#FFD000"/>
<path d="M142.648 5.71971C142.917 5.66205 143.186 5.60437 143.458 5.54672L143.442 5.53584C143.173 5.59349 142.903 5.65113 142.634 5.70879C142.632 5.70879 142.648 5.71971 142.648 5.71971Z" fill="#FFD000"/>
<path d="M57.926 5.34106C58.0099 5.28652 58.0762 5.19768 58.2148 5.24599C58.1933 5.26469 58.1738 5.29431 58.1485 5.29898C58.0704 5.31457 57.9904 5.31923 57.9104 5.32858L57.926 5.34106Z" fill="#FFD000"/>
<path d="M41.2619 4.19099C41.2579 4.21748 41.2657 4.25644 41.2482 4.26579C41.2189 4.28137 41.1682 4.28918 41.1369 4.27983C41.0179 4.23931 41.0257 4.19569 41.1526 4.17075C41.1838 4.16452 41.2248 4.1832 41.2619 4.19099Z" fill="#FFD000"/>
<path d="M63.3526 3.84192C63.3213 3.85283 63.2843 3.87619 63.2589 3.87152C63.1516 3.85126 63.1398 3.80764 63.2296 3.76557C63.2569 3.7531 63.3077 3.75622 63.333 3.76868C63.3506 3.77803 63.3467 3.81699 63.3526 3.84192Z" fill="#FFD000"/>
<path d="M31.6829 7.73771L31.7609 7.79538L31.6673 7.81406L31.6829 7.73771Z" fill="#FFD000"/>
<path d="M30.4575 7.55228C30.5394 7.55072 30.6214 7.54292 30.7033 7.5476C30.7404 7.54916 30.8048 7.5663 30.8107 7.585C30.8321 7.65824 30.7716 7.69095 30.6663 7.65355C30.5941 7.62862 30.5375 7.5772 30.4731 7.53824C30.4711 7.53824 30.4575 7.55228 30.4575 7.55228Z" fill="#FFD000"/>
<path d="M42.8776 7.46344L42.9049 7.39801L42.9868 7.44164L42.8776 7.46344Z" fill="#FFD000"/>
<path d="M86.0092 7.20633C86.0092 7.22658 86.017 7.2624 86.0072 7.26396C85.9799 7.27175 85.9253 7.27799 85.9194 7.26708C85.8804 7.20943 85.9136 7.18607 86.0092 7.20633Z" fill="#FFD000"/>
<path d="M34.8772 7.0723C34.8538 7.05205 34.8303 7.0318 34.805 7.00999C34.8362 6.9944 34.8772 6.95856 34.8967 6.96479C35.0118 7.00375 35.006 7.0427 34.8772 7.0723Z" fill="#FFD000"/>
<path d="M82.4773 6.81364L82.45 6.87752L82.3719 6.83544L82.4773 6.81364Z" fill="#FFD000"/>
<path d="M92.5207 6.65625L92.4173 6.62977L92.5012 6.58457L92.5207 6.65625Z" fill="#FFD000"/>
<path d="M58.166 6.53782C58.0977 6.57054 58.0294 6.60792 57.9572 6.63597C57.924 6.64844 57.8596 6.6578 57.8421 6.64377C57.7777 6.58767 57.8148 6.55029 57.9357 6.54874C58.0177 6.54874 58.0977 6.5503 58.1797 6.5503C58.1816 6.5503 58.166 6.53782 58.166 6.53782Z" fill="#FFD000"/>
<path d="M63.1575 3.34173C63.2121 3.35887 63.2667 3.37758 63.3214 3.39472C63.298 3.39161 63.2687 3.39315 63.2492 3.3838C63.2218 3.36978 63.1984 3.34795 63.175 3.32925L63.1575 3.34173Z" fill="#FFD000"/>
<path d="M138.17 3.50068C138.13 3.49444 138.091 3.48819 138.054 3.4804C138.088 3.49131 138.121 3.50225 138.154 3.51316L138.17 3.50068Z" fill="#FFD000"/>
<path d="M93.35 3.91517C93.4007 3.89803 93.4495 3.88244 93.5002 3.8653C93.4788 3.8762 93.4573 3.89182 93.4339 3.89649C93.4027 3.90273 93.3695 3.90117 93.3383 3.90117C93.3363 3.90273 93.35 3.91517 93.35 3.91517Z" fill="#FFD000"/>
<path d="M73.234 4.52758C73.5033 4.37331 73.5033 4.37331 73.7491 4.5307L73.7609 4.5167C73.5813 4.5167 73.4038 4.5167 73.2243 4.5167L73.234 4.52758Z" fill="#FFD000"/>
<path d="M88.8132 4.53538C88.8718 4.55252 88.9322 4.56967 88.9908 4.58681C88.9615 4.58681 88.9283 4.59304 88.9069 4.58369C88.8756 4.56967 88.8542 4.54319 88.8269 4.52294L88.8132 4.53538Z" fill="#FFD000"/>
<path d="M75.7492 5.33326C75.9209 5.24132 76.0946 5.25691 76.2663 5.33326L76.2741 5.32079C76.0966 5.32079 75.919 5.32079 75.7414 5.32079L75.7492 5.33326Z" fill="#FFD000"/>
<path d="M57.9104 5.32701C57.8772 5.34727 57.8421 5.36595 57.8089 5.38621C57.848 5.37062 57.885 5.35507 57.924 5.34105C57.926 5.34105 57.9104 5.32701 57.9104 5.32701Z" fill="#FFD000"/>
<path d="M43.8064 5.72906C43.8552 5.69322 43.902 5.65891 43.9508 5.62307C43.9625 5.64177 43.9742 5.65893 43.9859 5.67763C43.9215 5.6901 43.8571 5.70256 43.7927 5.71503L43.8064 5.72906Z" fill="#FFD000"/>
<path d="M90.5304 6.85884L90.5343 6.7918L90.6162 6.82608L90.5304 6.85884Z" fill="#FFD000"/>
<path d="M95.8652 6.9305C95.9062 6.89154 95.8496 6.92893 95.8516 6.91958C95.8496 6.91802 95.8652 6.9305 95.8652 6.9305Z" fill="#FFD000"/>
<path d="M141.155 2.90851L141.169 2.92099C141.171 2.92099 141.155 2.90851 141.155 2.90851Z" fill="#FFD000"/>
<path d="M63.175 3.32769C63.0911 3.25289 63.0072 3.1781 62.9253 3.10486L62.9135 3.1189C63.0072 3.1189 63.1009 3.1189 63.1945 3.1189C63.1945 3.1189 63.1769 3.10486 63.1769 3.1033C63.1711 3.18122 63.1633 3.26069 63.1555 3.34017C63.1575 3.34172 63.175 3.32769 63.175 3.32769Z" fill="#FFD000"/>
<path d="M90.5713 4.29539C90.5733 4.37798 90.5733 4.46215 90.5752 4.54474L90.5889 4.53382C90.5889 4.45746 90.587 4.38267 90.587 4.30631C90.585 4.30631 90.5713 4.29539 90.5713 4.29539Z" fill="#FFD000"/>
<path d="M139.128 4.52604C139.128 4.52604 139.147 4.512 139.147 4.51044C139.147 4.50888 139.128 4.52604 139.128 4.52604Z" fill="#FFD000"/>
<path d="M138.624 4.72705L138.642 4.71305C138.644 4.71305 138.624 4.72705 138.624 4.72705Z" fill="#FFD000"/>
<path d="M145.413 4.92807L145.426 4.91871C145.426 4.92027 145.413 4.92807 145.413 4.92807Z" fill="#FFD000"/>
<path d="M77.0176 5.73839L77.002 5.72595C77.002 5.72439 77.0176 5.73839 77.0176 5.73839Z" fill="#FFD000"/>
<path d="M88.821 7.53356C88.9108 7.60524 89.0005 7.67696 89.0903 7.74864C89.0903 7.74864 89.104 7.73771 89.1059 7.73771C89.0162 7.66603 88.9264 7.59436 88.8366 7.52268C88.8346 7.52268 88.821 7.53356 88.821 7.53356Z" fill="#FFD000"/>
<path d="M89.584 7.74396C89.6718 7.74396 89.7616 7.74395 89.8494 7.74395L89.8572 7.73303C89.7635 7.73303 89.6698 7.73303 89.5761 7.73303L89.584 7.74396Z" fill="#FFD000"/>
<path d="M119.01 6.52846C119.117 6.47859 119.218 6.41783 119.334 6.38667C119.394 6.37109 119.476 6.40848 119.548 6.42251C119.49 6.449 119.433 6.49107 119.371 6.49886C119.248 6.51444 119.123 6.51131 118.998 6.51598C118.996 6.51442 119.01 6.52846 119.01 6.52846Z" fill="#FFD000"/>
</svg>
