<svg width="84" height="85" viewBox="0 0 84 85" fill="none" xmlns="http://www.w3.org/2000/svg">
<g filter="url(#filter0_d_10_70)">
<rect width="81" height="81" rx="40.5" fill="#3300FF"/>
<path d="M39.8256 60.75C34.1289 60.75 33.4574 60.7199 31.2343 60.6226C29.5007 60.5657 27.7896 60.2132 26.1746 59.5806C23.3803 58.4931 21.1707 56.2828 20.0843 53.488C19.476 51.8671 19.1479 50.1546 19.1141 48.4236C18.9844 46.2052 18.9844 45.4781 18.9844 39.8255C18.9844 34.1127 19.0145 33.4458 19.1141 31.2343C19.1486 29.5057 19.4767 27.7956 20.0843 26.1769C21.1695 23.3784 23.3827 21.1662 26.1815 20.082C27.7994 19.4712 29.51 19.1422 31.239 19.1094C33.4504 18.9844 34.1776 18.9844 39.8256 18.9844C45.5685 18.9844 46.2285 19.0145 48.4168 19.1094C50.1501 19.1425 51.8653 19.4714 53.4881 20.082C56.2862 21.1674 58.4988 23.3793 59.5853 26.1769C60.2038 27.8192 60.5336 29.5561 60.5602 31.3107C60.6899 33.5292 60.6899 34.254 60.6899 39.9042C60.6899 45.5545 60.6575 46.2955 60.5602 48.4885C60.5257 50.2211 60.1967 51.9351 59.5876 53.5575C58.4983 56.3541 56.2855 58.5654 53.4881 59.6524C51.8676 60.2595 50.1561 60.5877 48.4261 60.6226C46.2146 60.75 45.4898 60.75 39.8256 60.75ZM39.7469 22.6501C34.0826 22.6501 33.4944 22.6779 31.283 22.7775C29.963 22.795 28.6558 23.0386 27.4181 23.4976C25.5905 24.197 24.1442 25.6373 23.4374 27.4621C22.9748 28.7132 22.7312 30.0348 22.7173 31.3686C22.5945 33.6125 22.5945 34.2007 22.5945 39.8255C22.5945 45.3831 22.6154 46.057 22.7173 48.287C22.738 49.6074 22.9815 50.9148 23.4374 52.1542C24.1453 53.9778 25.5912 55.417 27.4181 56.1163C28.6549 56.5785 29.9627 56.8221 31.283 56.8365C33.5245 56.9662 34.115 56.9662 39.7469 56.9662C45.4273 56.9662 46.0154 56.9384 48.2084 56.8365C49.5293 56.8205 50.8374 56.5769 52.0756 56.1163C53.892 55.411 55.3289 53.975 56.0354 52.1588C56.4971 50.9067 56.7405 49.5845 56.7556 48.25H56.781C56.8806 46.0362 56.8806 45.4457 56.8806 39.7885C56.8806 34.1313 56.8551 33.5361 56.7556 31.3246C56.7347 30.0058 56.4911 28.6999 56.0354 27.4621C55.3305 25.6433 53.8934 24.2046 52.0756 23.4976C50.8376 23.0362 49.5293 22.7926 48.2084 22.7775C45.9691 22.6501 45.3833 22.6501 39.7469 22.6501ZM39.8256 50.5216C35.4951 50.5244 31.5896 47.9181 29.9303 43.9185C28.271 39.9186 29.1847 35.3129 32.2454 32.2497C35.3061 29.1863 39.9108 28.2686 43.9121 29.9244C47.9134 31.5803 50.5229 35.4836 50.5241 39.8139C50.5176 45.7215 45.7329 50.5101 39.8256 50.5216ZM39.8256 32.8623C35.9888 32.8623 32.8785 35.9727 32.8785 39.8093C32.8785 43.6461 35.9888 46.7563 39.8256 46.7563C43.6622 46.7563 46.7727 43.6461 46.7727 39.8093C46.7636 35.9761 43.6585 32.8712 39.8256 32.8623ZM50.9409 31.2112C49.564 31.2061 48.4513 30.0871 48.4538 28.7103C48.4564 27.3334 49.5732 26.2186 50.9502 26.2186C52.3268 26.2186 53.4437 27.3334 53.4465 28.7102C53.4469 29.3745 53.1829 30.0117 52.7128 30.481C52.2428 30.9503 51.605 31.213 50.9409 31.2112Z" fill="#FFD89F"/>
<rect x="0.5" y="0.5" width="80" height="80" rx="40" stroke="#133834"/>
</g>
<defs>
<filter id="filter0_d_10_70" x="0" y="0" width="84" height="85" filterUnits="userSpaceOnUse" color-interpolation-filters="sRGB">
<feFlood flood-opacity="0" result="BackgroundImageFix"/>
<feColorMatrix in="SourceAlpha" type="matrix" values="0 0 0 0 0 0 0 0 0 0 0 0 0 0 0 0 0 0 127 0" result="hardAlpha"/>
<feOffset dx="3" dy="4"/>
<feComposite in2="hardAlpha" operator="out"/>
<feColorMatrix type="matrix" values="0 0 0 0 1 0 0 0 0 0.886266 0 0 0 0 0.720833 0 0 0 1 0"/>
<feBlend mode="normal" in2="BackgroundImageFix" result="effect1_dropShadow_10_70"/>
<feBlend mode="normal" in="SourceGraphic" in2="effect1_dropShadow_10_70" result="shape"/>
</filter>
</defs>
</svg>
