<svg width="146" height="9" fill="none" xmlns="http://www.w3.org/2000/svg"><path d="m145.426 4.92-.425.525-1.559.092.016.011c.035-.06.08-.118.105-.18.051-.117-.043-.219-.17-.195-.326.056-.648.121-.974.176-.284.047-.571.118-.856.118-.519 0-.993.117-1.44.295-1.719.685-3.526 1.207-5.314 1.756-1.323.407-2.71.664-4.158.59-.706-.034-1.418-.009-2.119-.118a1.728 1.728 0 0 0-.498-.022c-.798.116-1.582.007-2.361-.09a9.881 9.881 0 0 0-2.86.039c-.896.15-1.801.262-2.703.386-.031.005-.086-.021-.103-.046-.014-.017.01-.074.029-.08.273-.078.556-.139.823-.229.147-.05.268-.15.401-.227.16.003.32.01.48.004.115-.004.146-.06.08-.124-.02-.02-.082-.028-.114-.018-.146.046-.288.1-.433.152-.25-.005-.505-.04-.747-.01-.824.106-1.643.239-2.465.357-.205.03-.413.045-.618.073-.289.04-.597.042-.859.13-.995.333-2.037.3-3.079.31-.084 0-.168 0-.25.01-.039.004-.072.03-.109.046.035.279-.016.368-.215.346-.413-.044-.831-.076-1.237-.15-1.102-.195-2.197-.408-3.296-.612-.977-.183-1.963-.329-2.971-.345a5.547 5.547 0 0 1-.625-.037 6.551 6.551 0 0 0-1.746.008c-.369.05-.75.043-1.124.054-.377.01-.753-.006-1.128.016-.548.033-1.085.023-1.612-.117a1.116 1.116 0 0 0-.733.036c-.758.33-1.528.279-2.31.083-.028-.015-.053-.032-.085-.041-.021-.006-.047-.002-.07-.003l.168.03c-.125.085-.24.188-.38.253-.245.114-.594.063-.805-.096.022-.285-.207-.309-.478-.293-.25.014-.5.015-.747.036-1.282.11-2.564.224-3.846.338-.166.014-.336.015-.496.048-.856.18-1.734.16-2.607.193-.456.018-.91.004-1.36.114a1.09 1.09 0 0 1-.722-.068c-.035-.016-.088-.05-.084-.069.012-.06.028-.139.079-.167.216-.12.476-.107.721-.109.625-.004 1.25.003 1.874-.004.63-.008 1.239-.095 1.793-.357l-.014.01c.164 0 .328-.002.494-.004l-.008-.013h.281l-.008.011a9.251 9.251 0 0 0 1.622-.13c.326-.057.66-.097.991-.128.75-.07 1.485-.16 2.172-.446.379-.157.81-.154 1.231-.109l-.013-.011c.171.112.362.16.575.087.113-.039.215-.109.332-.134.197-.042.425-.12.599-.076.55.137 1.063.039 1.592-.06.605-.111 1.218-.194 1.829-.283.121-.017.255-.036.368-.01.64.144 1.202-.062 1.803-.202-.146-.143-.316-.12-.466-.118-.956.001-1.912.01-2.866.017-.377.001-.746.026-1.105.13-.242.07-.37 0-.443-.206-.052-.148-.265-.125-.427-.131l.016.015c.195-.057.384-.132.585-.168.285-.052.58-.069.864-.114.063-.01.147-.078.154-.126.006-.042-.068-.126-.124-.137-.412-.077-.836-.115-1.245-.022-.98.226-1.99.209-2.99.25-.378.016-.747.01-1.104.126-.357.115-.722.127-1.109.112-.798-.031-1.586.078-2.367.196-.866.131-1.726.273-2.614.25a3.226 3.226 0 0 0-.627.038c-.759.14-1.5-.025-2.25-.067a.683.683 0 0 1-.337-.115c-.24-.171-.521-.212-.82-.2a30.68 30.68 0 0 0-1.252.077c-.506.042-1.001.033-1.487-.11-.195-.057-.398-.12-.603-.132-1.403-.08-2.674-.528-3.975-.894-.355-.1-.712-.19-1.065-.295-.43-.127-.879-.235-1.279-.408-1.084-.472-2.273-.667-3.455-.89a12.211 12.211 0 0 0-2.615-.216 18.047 18.047 0 0 1-1.508-.031 10.992 10.992 0 0 0-1.755.02c-.495.05-1.002.01-1.506.012l.018.016h-.281l.011-.014c-.411.165-.815.326-1.309.252-.139-.02-.332.05-.455.127-.296.182-.608.193-.946.121l-.242-.051c-.626-.142-1.233-.139-1.813.135-.293.139-.618.193-.954.22-.38.03-.726.145-1.056.293a.503.503 0 0 0-.273.32l.012-.01c-.34-.086-.545-.287-.748-.508-.242-.265-.632-.254-.786.053-.158.313-.462.35-.78.407-.057.01-.145-.049-.203-.09-.248-.174-.33-.195-.504-.085a5.664 5.664 0 0 1-1.3.595c-.331.11-.653.085-.983.035-.076-.011-.177-.044-.21-.092-.225-.34-.621-.276-.986-.271-.12.001-.24.053-.363.074a68.099 68.099 0 0 1-3.947.554c-.453.051-.896.157-1.343.241-.137.027-.107.15.074.306l-.013-.014c-.149.057-.295.16-.445.163-.71.016-1.423.02-2.131-.008-.343-.014-.648-.021-.96.13-.164.08-.404.085-.607.078-.667-.025-1.34.034-2.004-.074-.201-.032-.418-.001-.624-.009-.166-.006-.348 0-.492-.051-.513-.183-1.03-.271-1.588-.156a.53.53 0 0 1-.246-.022c-.91-.276-1.903-.198-2.826-.427-.519-.128-1.052-.22-1.576-.335-.886-.196-1.78-.368-2.646-.617-.709-.204-1.421-.397-2.131-.594-.79-.218-1.579-.447-2.377-.646a41.295 41.295 0 0 0-5.255-.978c-.95-.11-1.918-.13-2.878-.187a1.875 1.875 0 0 0-.375.016c-.954.14-1.916.136-2.88.132-.33-.001-.677-.012-.964.161-.052.033-.093.12-.078.171.016.047.106.095.174.113a.66.66 0 0 0 .248.006c.33-.044.669-.069.983-.15.628-.162 1.231-.163 1.832.061.27.101.556.134.853.15 2.307.121 2.443.138 4.802.542.246.042.494.073.74.112.164.027.335.044.488.095.343.115.665.31 1.018.355.367.047.75.047 1.112.131.282.064.592.105.824.231.615.335 1.327.394 2.02.502.372.057.723.118 1.065.262.517.216 1.06.4 1.598.58.27.091.552.157.833.217.808.175 1.62.335 2.428.512.199.043.386.118.585.182-.154.257-.464.1-.652.21-.03.019-.078.052-.074.073.01.06.026.128.07.17a.588.588 0 0 0 .215.098c.197.058.394.114.595.158.564.123 1.13.248 1.7.358.283.055.574.1.864.116.714.039 1.411.145 2.106.27.244.046.491.079.74.116.198.03.417-.016.604.101-.735.11-1.235.127-1.951.046-.58-.067-1.163-.128-1.735-.23-1.88-.33-3.764-.652-5.602-1.117-.757-.191-1.506-.405-2.26-.61-.83-.228-1.656-.47-2.495-.68-.315-.078-.658-.084-.988-.123a1.626 1.626 0 0 0-.79-.183c-.281-.247-.65-.205-1.009-.197-.812-.356-1.028-.398-1.53-.297.498.169 1.011.254 1.544.283.3.179.652.196 1.009.197.232.145.505.18.788.183.094.06.174.15.281.179.812.234 1.633.449 2.445.684.347.1.685.224 1.015.357.1.04.16.142.24.215l.015-.016c-.431.055-.831-.048-1.227-.16-1.739-.496-3.544-.806-5.325-1.181-1.542-.326-3.132-.441-4.722-.532-.67-.037-1.34-.045-2.01-.078-1.14-.054-2.258.094-3.378.219-.248.026-.488.095-.73.15-.644.146-1.288.295-1.932.442a3.683 3.683 0 0 1-.368.057c-.342.04-.556-.095-.697-.328l.014.012c-.098.056-.256.1-.28.17a.814.814 0 0 1-.5.528c-.586.246-1.168.5-1.732.775-.706.344-1.389.716-2.09 1.067-.208.104-.439.18-.659.268l.016.011c.017-.132.039-.266-.14-.349-.141-.065-.284-.13-.418-.204-.084-.047-.073-.215-.002-.274.435-.37.983-.605 1.54-.833 1.072-.437 2.142-.882 3.217-1.321.296-.122.595-.238.814-.449l-.014.01c.242-.052.488-.09.722-.161.107-.033.234-.11.273-.189.07-.148.168-.255.36-.191.44.15.817.012 1.201-.125.09-.031.102-.092.07-.167-.048-.113.028-.205.143-.244.26-.088.529-.153.905-.257-.216-.027-.328-.063-.427-.049-.412.058-.831.098-1.224.206-.491.134-.977.146-1.48.108-.102-.008-.16-.044-.15-.122.003-.028.036-.067.07-.08.185-.073.368-.154.565-.204.597-.152 1.202-.288 1.8-.44.056-.013.12-.102.114-.152-.003-.042-.101-.109-.16-.112a1.928 1.928 0 0 0-.493.028c-.2.044-.396.11-.578.19a8.317 8.317 0 0 1-1.637.497c-.12.025-.26.03-.36.08-.85.424-1.812.695-2.586 1.217-.063.042-.1.106-.15.159l.019-.011-.525.215.021-.013c-.335.047-.6.178-.776.416l.021-.015c-.168.104-.168.104.002.223l-.02-.016c-.09.287-.46.376-.657.59-.172.186-.343.38-.548.541-.145.113-.34.189-.525.26-.193.075-.453-.002-.545-.143-.068-.104-.037-.274.088-.369.18-.137.373-.265.56-.397-.006-.301-.027-.603.313-.82.019-.012.015-.084 0-.09-.069-.027-.149-.06-.219-.052-.283.033-.517.234-.85.153-.04-.122-.067-.254-.124-.376-.062-.132-.08-.254.026-.377.093-.112.17-.229.14-.374-.06-.313.166-.514.463-.656.829-.394 1.684-.746 2.642-.899l-.008-.01.02.205-.007-.005c.174-.067.348-.132.52-.2l-.026.023c0-.077 0-.153.002-.23l.018.013c.074-.03.152-.087.224-.083.502.036.896-.096 1.196-.424.307-.333.74-.53 1.194-.712C7.978.478 9.616.213 11.29.082c.706-.055 1.422-.044 2.135-.045.837-.002 1.672.04 2.509-.027.41-.033.835.022 1.25.058.625.053 1.25.113 1.868.193.747.095 1.477.265 2.145.545.46.195.919.31 1.438.289.472-.019.913.109 1.348.22 1.354.348 2.708.7 4.045 1.09 1.579.46 3.204.776 4.835 1.077.65.12 1.308.22 1.952.326.037.103.017.221.17.246.12.02.255.04.372.019.326-.058.547.032.76.235.177.17.343.187.552.054.39-.247.848-.266 1.303-.305.119-.01.265.002.363.05.44.223.981.167 1.44.341.144.055.33.076.49.066.421-.03.835.01 1.252.04.299.022.586-.03.847-.146.213-.097.332-.346.613-.309.191.025.355.165.546.226.352.114.716.184 1.105.136.248-.032.5-.033.747-.061.954-.108 1.905-.226 2.859-.329.5-.055.993-.114 1.448-.307.456-.193.95-.271 1.461-.198.52.075.995-.043 1.474-.17.396-.104.797-.198 1.196-.297a4.64 4.64 0 0 1 1.24-.119c.588.013 1.168-.054 1.747-.135.511-.07.827-.251.95-.677.073-.254.404-.272.656-.04.13.12.271.168.43.118.434-.137.87-.216 1.344-.171.18.017.273-.11.367-.23.195-.25.29-.29.472-.177.548.341 1.172.316 1.799.259.5-.045.995-.116 1.489-.19.497-.077.99-.134 1.495-.05.08.012.167.003.25-.003.267-.022.473-.114.585-.321.03-.06.09-.11.14-.17.316-.115.654-.044.984-.045.501 0 .999.037 1.502-.024.51-.06 1 .058 1.465.214.203.067.395.089.607.034.428-.11.832-.006 1.226.11.747.216 1.492.439 2.234.67.742.23 1.471.484 2.215.708 1.256.38 2.552.65 3.871.848.74.11 1.477.238 2.223.316.253.027.484.016.683.175.123.098.312.104.476.07.452-.095.901-.055 1.364-.04.786.024 1.586.098 2.367-.091.19-.047.413-.012.622-.01.137.002.217.108.23.3.002.033-.013.065-.021.098l.013-.012c-.087.068-.189.129-.259.208-.04.047-.06.131-.035.183.023.048.119.11.175.106a36.75 36.75 0 0 0 1.716-.164c.205-.026.19-.187.164-.322l-.014.01a2.275 2.275 0 0 1 1.083.111c.138.051.257-.003.351-.18a.728.728 0 0 1 .297-.3c.312-.18.663-.256 1.044-.259l-.014-.012c.207.115.431.173.681.11.23-.056.455-.126.685-.182.246-.06.474-.01.69.09l-.015-.012c.25.011.502.031.751.033.299.003.594-.033.808-.218.246-.21.554-.282.896-.315.332-.031.685-.036.987-.134.562-.185 1.058-.11 1.462.11.312.049.492-.043.675-.12.31-.127.648-.158.979-.108.514.077.998.001 1.489-.096.406-.079.822-.129 1.226-.215.261-.054.49-.042.72.069.148.072.318.106.476.033.271-.127.548-.11.847-.09.755.054 1.485.2 2.216.344 1.017.2 2.034.394 3.052.586.244.045.494.088.742.1a47.5 47.5 0 0 1 2.747.213 3.62 3.62 0 0 0 1.36-.11c.283-.08.58-.118.863-.032.464.142.923.08 1.354-.037.681-.184 1.372-.27 2.086-.323.579-.042 1.151-.171 1.719-.285.568-.114 1.118-.271 1.717-.274.193-.002.39-.102.576-.173.216-.083.396-.064.566.071a.357.357 0 0 0 .341.06c.193-.058.381-.16.578-.173.199-.014.421.028.609.093.39.134.796.189 1.213.235.539.061 1.07.162 1.606.234.701.094 1.413.15 2.106.273.587.104 1.17.137 1.738.005a3.234 3.234 0 0 1 1.596.021c.155.04.322.049.482.07-.013.081-.015.142-.037.198-.06.158-.037.231.078.222a6.186 6.186 0 0 0 1.686-.365c.18-.07.32-.204.48-.309l-.015.013c.646-.006 1.208-.243 1.797-.411.113-.033.234-.047.355-.058.021-.002.064.042.074.07.01.03.006.084-.017.095-.43.206-.861.404-1.29.608-.029.014-.059.059-.051.084.02.078.09.093.193.06 1.436-.451 2.861-.931 4.317-1.344.234-.067.472-.14.62-.32l.115-.04c-.033.017-.068.034-.101.053-.311.033-.621.064-.931.101-.271.031-.541.07-.81.105l.014.012c.109-.097.199-.25.332-.277.8-.175 1.576-.43 2.413-.479.26-.014.484.077.679.214.096.067.164.205.11.26-.051.05-.102.114-.17.134-.232.07-.474.115-.705.19-.052.017-.107.115-.091.162.05.156.134.304.207.458-.118.086-.219.144-.295.218-.236.223-.521.332-.882.24a2.014 2.014 0 0 0-.982.002c-.318.076-.645.13-.964.209-.675.168-1.336.365-2.066.346-.34-.01-.628.157-.894.326l.02-.016-.523.216.017-.013c-.189.054-.357.121-.464.277-.049.072-.195.1-.299.146l.016-.012c-.656.3-1.36.505-2.098.612-.86.127-1.732.206-2.601.307-.29.035-.575.011-.868-.023-.7-.08-1.409-.126-2.115-.175-.119-.007-.244.038-.363.061-.135.027-.223-.015-.32-.09-.312-.236-.32-.23-1.001-.184.053.093.318.15.088.291-.084.052-.139.117-.067.151.176.086.387.131.556.222.342.18.697.204 1.078.115.158-.037.31-.106.478-.033.035.016.084.044.085.067.006.061.016.156-.025.18a1.48 1.48 0 0 1-.823.185c-.332-.019-.666-.03-.997-.031-.059 0-.16.059-.168.1-.01.054.033.132.088.173.087.065.199.143.306.15.205.016.416-.007.62-.029.488-.051.888.05 1.241.343.25.206.453.162.73-.073.057-.049.104-.105.166-.15.121-.089.326-.114.457-.019.228.167.464.25.786.237.404-.017.72-.145.987-.37l-.015-.013c.173.107.374.185.575.087.754-.368 1.579-.595 2.402-.835.274-.08.566-.145.801-.276.415-.23.837-.44 1.326-.548.441-.099.791-.373 1.277-.396.253-.011.435-.178.64-.295 1.022-.587 2.179-.807 3.426-.735.172.009.316.076.412.198.154.198.304.397.456.596V4.92ZM2.817 4.314l.006.005-.033.022.027-.027ZM28.992 6.12c-.066-.03-.133-.06-.199-.087-.105-.042-.152-.025-.119.04.008.016.068.02.107.022.076.006.152.01.229.014.265.084.528.17.796.251.02.006.078-.026.086-.048.007-.022-.026-.072-.047-.075-.285-.044-.568-.08-.853-.117ZM6.837 2.723c-.474.025-.89.17-1.274.385a5.007 5.007 0 0 0-1.485.608l-.012-.01c.166-.015.336-.017.498-.048.421-.08.778-.237.983-.562.203-.004.408.001.609-.011.31-.02.533-.147.665-.373l.016.011Zm103.378 3.798c.207 0 .42.03.617-.007.279-.05.542-.15.813-.224.11-.03.139-.067.053-.154-.788-.189-1.623-.35-2.49-.4l.014-.012c.429.195.792.441 1.007.808l-.014-.011Zm8.81.81c.433-.337.972-.522 1.546-.605 1.104-.157 2.197-.378 3.323-.431.115-.007.16-.035.111-.139l-.816-.11c-.679.179-1.409.056-2.093.224-.246.06-.492.04-.631-.19-.025-.044-.14-.08-.21-.077-.541.035-1.064.127-1.548.332-.021.01-.033.06-.021.083.01.025.047.053.08.062.078.022.16.033.242.047l-.014-.013c-.498.275-1.06.373-1.655.373-.119 0-.16-.033-.125-.112.114-.04.237-.072.338-.127.055-.03.111-.11.098-.157-.012-.044-.116-.104-.174-.101-.373.017-.751.028-1.116.084-.5.078-.995.072-1.495.023-.166-.015-.328-.046-.492-.074-.357-.061-.659-.008-.868.257-.043.054-.127.087-.181.135-.024.022-.045.077-.03.092.049.048.115.12.178.122.205.003.417 0 .616-.036.41-.077.822-.123 1.24-.069.062.008.115.066.165.106.006.005-.033.064-.062.073-.466.142-.937.276-1.403.42-.102.03-.107.095-.041.152l.72.142c.297.34.702.295 1.12.198.4-.092.796-.188 1.196-.284l-.015.013c.448-.153.899-.3 1.344-.461a.78.78 0 0 1 .687.062c-.08.01-.162.014-.236.036-.106.031-.119.086-.035.128.021.01.084-.007.107-.027.057-.045.101-.101.15-.151Zm-16.477-1.828c.32 0 .818.002 1.316 0 .206 0 .413.002.616-.017.055-.005.102-.084.141-.134.006-.006-.057-.067-.082-.065-.74.048-1.479.158-2.211-.05-.074-.022-.166-.011-.248-.003-.576.05-1.153.104-1.727.16a.118.118 0 0 0-.08.058c-.035.067.01.127.113.124.66-.018 1.323-.045 2.162-.073Zm-15.087-.48c-.06-.128-.111-.243-.172-.358a.155.155 0 0 0-.082-.07c-.275-.106-.784.037-.96.275-.049.066-.011.142.078.155.365.051.73.071 1.136-.002Zm6.21.215c.3.033.413.06.524.055.363-.016.726-.04 1.089-.066a.204.204 0 0 0 .101-.051c.025-.022.053-.055.055-.083 0-.023-.031-.054-.059-.07a.244.244 0 0 0-.11-.025c-.08-.001-.165-.004-.243.008-.392.064-.782.134-1.356.232Zm39.468.271c-.051-.036-.099-.098-.152-.1-.057-.004-.147.036-.174.079-.051.079.084.177.199.144.053-.017.084-.08.127-.123Zm-27.441-.08c.068-.026.162-.035.195-.077.049-.06-.004-.134-.094-.137-.066-.002-.136.042-.203.065l.102.148ZM60.256 3.135c.002.03-.012.07.008.086.078.064.222.039.324-.056.017-.018.004-.084 0-.084a1.243 1.243 0 0 0-.229 0c-.039.003-.07.035-.103.054Zm-41.009.683c.03.018.055.043.086.053.035.01.076.014.113.01a.23.23 0 0 0 .1-.035c.084-.058-.076-.123-.232-.088-.026.007-.043.04-.067.06Zm1.392.16c-.065-.028-.13-.076-.194-.076-.105 0-.142.068-.064.12.049.032.142.026.216.028.014-.002.028-.047.041-.072Zm-1.651.42c-.035-.002-.074-.012-.11-.009-.035.004-.066.02-.1.032.034.012.065.03.099.037a.382.382 0 0 0 .11-.003c.005.001 0-.036 0-.056ZM124.63 5.408c-.033-.004-.068-.013-.101-.008-.123.017-.125.045-.002.068.033.006.07 0 .103-.006.006 0 0-.034 0-.054Zm-35.972.202c-.101-.008-.164.027-.168.104 0 .018.072.058.088.052.064-.027.12-.069.178-.103a2.997 2.997 0 0 0-.098-.053Zm12.459 2.087c.041-.005.104.003.119-.014.061-.07.018-.108-.105-.092-.037.004-.07.03-.104.046l.09.06Zm-83.05-4.052-.015-.047-.072.027.088.02Z" fill="#FFD000"/><path d="M80.526 7.135c-.769.035-1.481-.17-2.203-.334a.156.156 0 0 0-.11.024c-.054.043-.034.107.065.14.306.101.613.209.93.282 1.082.25 2.132.576 3.234.773.057.01.125.1.125.154 0 .048-.072.122-.133.142a1.443 1.443 0 0 1-.36.065c-.202.017-.434-.01-.397.248.002.017-.056.051-.092.058-.08.012-.171.03-.245.014-1.197-.282-2.453-.335-3.645-.672-1.18-.333-2.381-.62-3.53-1.024a21.35 21.35 0 0 0-3.7-.927c-1.391-.223-2.808-.322-4.236-.237-.707.042-1.419.031-2.127.044-.367-.119-.748-.013-1.118-.047-.227-.02-.385.069-.566.162-.27.139-.58.136-.798-.068-.285-.265-.64-.321-1.019-.247-.65.128-1.303.23-1.969.289-.165.015-.203.106-.134.305.06.182.062.182-.205.24-.041.008-.082.011-.123.017l.015.014c-.101-.057-.19-.145-.304-.17-.646-.15-1.297-.255-1.97-.085-.198.05-.412.054-.617.085-.336.05-.52.198-.476.488.015.112-.051.198-.184.223-.16.03-.33.055-.492.044-.187-.011-.245-.16-.335-.268-.043-.053-.115-.09-.174-.133-1.255.028-2.472.284-3.711.407-.275.028-.486.142-.578.338-.168.358-.501.511-.942.57-.139.02-.196-.034-.133-.168.047-.097.09-.254-.023-.246-.578.037-1.16-.142-1.73.026a12.431 12.431 0 0 0-2.948.43c-.117.032-.246.041-.37.043-.545.006-1.08.057-1.62.11-.572.056-1.161.011-1.743 0-.048-.001-.134-.09-.132-.135.002-.049.08-.11.144-.136.07-.03.162-.031.244-.036.584-.036 1.169-.053 1.748-.106 1.7-.157 3.401-.318 5.097-.498.535-.058 1.058-.192 1.589-.282.325-.055.653-.105.983-.135 1.038-.095 2.059-.266 3.075-.451.116-.022.215-.1.32-.153l-.015.012c.73-.082 1.46-.16 2.187-.252.111-.014.209-.095.312-.147l-.021.01c.242-.019.484-.038.726-.055.205-.014.4-.043.562-.154l-.02.017c.886.011 1.725-.212 2.59-.318.287-.036.571-.086.858-.121.174-.022.312-.07.392-.206.098-.165.287-.24.496-.268.369-.05.742-.087 1.114-.125.332-.032.666-.047.993-.089a11.909 11.909 0 0 1 1.618-.09c.705.008 1.415.014 2.098-.171.023-.007.046-.053.043-.078-.004-.027-.034-.058-.063-.075a.192.192 0 0 0-.115-.03c-.679.123-1.297-.121-1.94-.212-.04-.006-.101-.115-.08-.15.026-.044.131-.094.19-.085.369.048.733.125 1.102.168.201.024.414.014.615-.009.096-.01.105-.103.021-.157-.093-.06-.117-.127-.025-.144.537-.096 1.077-.059 1.614.013.573.078 1.149.154 1.723.23a.857.857 0 0 0 .48-.067c.433-.2.794-.064 1.133.164l-.013-.013c.199.024.412.029.492.219.044.106.142.146.273.156.413.032.577.071.878.207.035.015.074.026.111.039l-.01-.011c.178.114.357.106.537 0l-.012.014a3.094 3.094 0 0 0 2 .802l-.008-.012c.266.153.266.153.533 0l-.008.012c.235.155.432.353.752.405L77 5.73c.404.268.853.363 1.366.243.03-.006.105.025.103.036a.353.353 0 0 1-.043.171c-.037.056-.101.102-.152.152l-.011-.011c.466-.04.881.065 1.26.275.33.184.658.371.987.558l.016-.018Zm-12.022-2.74-.345.01c.03.017.058.046.091.05.078.006.158 0 .238-.004.006 0 .01-.036.016-.056ZM64.534 5.4c-.11.027-.112.06 0 .084.02.005.054-.026.081-.04a2.007 2.007 0 0 1-.082-.044Zm13.422 2.007c-.096-.02-.129.002-.088.06.008.01.06.001.092 0 0-.02-.002-.04-.004-.06ZM30.471 7.538c-.125.002-.256.027-.372.003-.846-.163-1.688-.338-2.455-.682-.07-.031-.125-.086-.188-.131l-.015.016c.207.007.421-.011.618.03.525.107 1.042.234 1.56.362.321.08.62.197.837.415l.015-.013ZM97.64 5.932c-.104.279-.339.431-.7.475-.25.03-.487.047-.686-.106-.03-.022-.07-.056-.067-.078.014-.056.035-.143.08-.154.152-.04.316-.052.474-.08a.28.28 0 0 0 .106-.046c.271-.177.538-.074.808.006.002-.002-.014-.017-.014-.017Z" fill="#FFD000"/><path d="M82.546 7.53c-.367-.187-.771-.236-1.199-.22-.294.013-.585 0-.819-.175l-.014.014c.793.001 1.585.001 2.377.004.101 0 .162.049.16.125 0 .025-.045.058-.078.073-.144.066-.293.128-.441.19l.014-.01ZM56.628 5.528l.008.214.02-.018c-.451-.015-.898-.012-1.288.21l.021-.01c-.263-.13-.554-.122-.849-.11-.017 0-.054-.041-.054-.065 0-.026.023-.07.049-.08.115-.035.232-.082.35-.086.586-.02 1.174-.03 1.759-.043l-.016-.012ZM44.546 8.405c-.057.04-.082.071-.111.076-.53.064-1.058.123-1.589.18-.027.004-.084-.033-.086-.055-.002-.025.032-.069.063-.08.55-.185 1.12-.174 1.723-.121ZM53.697 5.368l-.238-.058c.047-.048.084-.126.143-.139.197-.043.402-.065.605-.087.027-.003.076.034.088.06.011.024-.004.082-.022.086-.195.052-.394.095-.576.138ZM47.194 5.207c.002.028.02.067.004.08a.851.851 0 0 1-.55.188.178.178 0 0 1-.108-.034c-.015-.013-.014-.069-.002-.073.182-.07.365-.138.55-.198.026-.007.07.025.106.037ZM94.737 6.218c-.044-.032-.085-.048-.097-.073-.012-.025-.006-.08.011-.086.106-.035.215-.074.328-.085.067-.007.139.037.21.059-.042.044-.073.11-.128.128-.105.036-.224.042-.324.057ZM36.996 7.102c-.049.06-.08.139-.125.143-.175.019-.273-.048-.331-.205-.01-.027-.004-.081.013-.088.063-.021.153-.054.196-.034.095.045.167.122.247.184ZM142.421 2.514c-.386.204-.77.415-1.266.393l.016.012c.164-.194.413-.28.685-.327.189-.033.386-.045.579-.067 0 .002-.014-.01-.014-.01ZM52.618 7.46c-.054-.023-.101-.03-.119-.054-.015-.02-.011-.072.006-.083.098-.057.197-.121.309-.152.058-.018.146.026.22.042-.03.053-.039.129-.09.152-.1.047-.224.067-.326.095ZM49.229 6.719c-.074-.02-.156-.028-.222-.06-.086-.039.064-.113.257-.115.082 0 .166.003.246.014.037.005.09.023.1.045.027.061-.026.1-.133.106-.082.005-.164.006-.248.01ZM132.029 6.384c.037-.004.103.007.109.024.027.063-.031.097-.144.077-.071-.013-.135-.04-.201-.063.08-.012.158-.03.236-.038ZM142.632 5.709c-.095.16-.289.212-.474.27-.105.034-.164.007-.156-.077.002-.026.037-.067.066-.073.191-.04.385-.073.578-.11l-.014-.01ZM62.069 3.91c.037-.045.06-.109.113-.129.119-.045.255.04.209.12-.028.045-.102.1-.158.101-.053.002-.108-.059-.164-.092ZM37.01 8.545l-.703-.075c.293-.068.293-.067.691.087l.012-.012ZM51.258 3.06c0-.025-.01-.066.002-.07a.216.216 0 0 1 .114-.013c.035.006.062.03.095.047-.031.017-.06.042-.093.047-.036.004-.077-.008-.118-.011ZM60.66 4.138c.058-.022.127-.072.174-.06.083.016.095.083.04.141-.02.02-.082.045-.091.037-.047-.034-.084-.077-.123-.118ZM58.207 4.55l-.102.004.044-.07.058.065ZM59.09 4.46c-.062.029-.122.06-.188.083-.008.003-.063-.045-.059-.064.018-.073.086-.103.18-.08.027.007.044.04.068.062ZM51.381 5.488c.051.035.104.07.149.109.003.004-.041.062-.055.059a.904.904 0 0 1-.195-.052c-.012-.004-.006-.057.011-.078.016-.02.06-.026.09-.038ZM93.358 6.313c-.047-.03-.092-.062-.139-.093.065-.016.13-.037.195-.044.024-.003.075.028.078.049.012.063-.039.095-.134.088ZM89.084 6.742c.117-.022.235-.058.35-.06.047 0 .097.077.134.125.008.01-.033.053-.062.067-.031.014-.088.027-.113.016-.102-.048-.195-.106-.293-.16l-.016.012Z" fill="#FFD000"/><path d="M36.996 8.557c.156-.004.31-.015.467-.012.11.003.142.054.08.118-.02.02-.075.02-.112.02a.653.653 0 0 1-.421-.138l-.014.012ZM52.903 6.307c-.074-.003-.152.003-.224-.01-.059-.01-.111-.043-.166-.066.027-.011.053-.033.08-.033.035 0 .072.014.103.028.065.03.127.062.192.094l.015-.013ZM142.648 5.72c.269-.058.538-.116.81-.173l-.016-.011-.808.173c-.002 0 .014.01.014.01ZM57.926 5.341c.084-.054.15-.143.289-.095-.022.019-.041.048-.067.053-.078.016-.158.02-.238.03l.016.012ZM41.262 4.191c-.004.026.004.065-.014.075a.173.173 0 0 1-.111.014c-.12-.04-.111-.084.016-.11.03-.005.072.013.109.021ZM63.353 3.842c-.032.01-.069.034-.094.03-.107-.02-.12-.064-.03-.106a.147.147 0 0 1 .104.003c.018.009.014.048.02.073ZM31.683 7.738l.078.057-.094.02.016-.077ZM30.457 7.552c.082-.001.164-.01.246-.004.037.001.102.018.108.037.021.073-.04.106-.145.069-.072-.025-.128-.077-.193-.116-.002 0-.015.014-.015.014ZM42.878 7.463l.027-.065.082.044-.11.021ZM86.01 7.206c0 .02.007.056-.003.058-.027.008-.082.014-.088.003-.039-.058-.005-.08.09-.06ZM34.877 7.072l-.072-.062c.031-.016.072-.051.092-.045.115.039.109.078-.02.107ZM82.477 6.814l-.027.064-.078-.043.105-.021ZM92.52 6.656l-.103-.026.084-.045.02.071ZM58.166 6.538c-.068.033-.137.07-.209.098-.033.012-.097.022-.115.008-.064-.056-.027-.094.094-.095l.244.001a.09.09 0 0 0-.014-.012ZM63.157 3.342l.164.053c-.023-.003-.052-.002-.072-.011-.027-.014-.05-.036-.074-.055l-.017.013ZM138.17 3.5a2.262 2.262 0 0 1-.116-.02l.1.033.016-.012ZM93.35 3.915l.15-.05c-.021.011-.043.027-.066.031-.031.007-.064.005-.096.005-.002.002.012.014.012.014ZM73.234 4.528c.27-.155.27-.155.515.003l.012-.014h-.537l.01.01ZM88.813 4.535l.178.052c-.03 0-.063.006-.084-.003-.031-.014-.053-.04-.08-.061l-.014.012ZM75.75 5.333c.17-.092.345-.076.516 0l.008-.012h-.533l.008.012Z" fill="#FFD000"/><path d="M57.91 5.327c-.033.02-.068.039-.101.06.039-.016.076-.032.115-.046a.089.089 0 0 0-.014-.014ZM43.806 5.73l.145-.107.035.055-.193.037.013.014ZM90.53 6.859l.004-.067.082.034-.086.033ZM95.865 6.93c.041-.038-.015-.001-.013-.01a2.8 2.8 0 0 0 .013.01ZM141.155 2.909l.014.012c.002 0-.014-.012-.014-.012ZM63.175 3.328l-.25-.223-.011.014h.28s-.017-.014-.017-.016l-.021.237c.002.002.019-.012.019-.012ZM90.571 4.295l.004.25.014-.011-.002-.228a.107.107 0 0 1-.016-.01ZM139.128 4.526s.019-.014.019-.016l-.019.016ZM138.624 4.727l.018-.014c.002 0-.018.014-.018.014ZM145.413 4.928l.013-.01c0 .002-.013.01-.013.01ZM77.018 5.738l-.016-.012c0-.002.016.012.016.012ZM88.821 7.534l.27.215s.013-.011.015-.011l-.27-.215a.105.105 0 0 0-.015.01ZM89.584 7.744h.265l.008-.011h-.28l.007.011ZM119.01 6.528c.107-.05.208-.11.324-.141.06-.016.142.021.214.036-.058.026-.115.068-.177.076-.123.015-.248.012-.373.017l.012.012Z" fill="#FFD000"/></svg>