<svg width="199" height="10" viewBox="0 0 199 10" fill="none" xmlns="http://www.w3.org/2000/svg">
<path d="M198.218 5.46699C198.037 5.64879 197.856 5.83061 197.638 6.05051C196.958 6.0834 196.237 6.11805 195.513 6.15268L195.535 6.16477C195.583 6.09724 195.644 6.03319 195.678 5.96393C195.747 5.83407 195.62 5.72153 195.447 5.7475C195.003 5.80983 194.564 5.88253 194.12 5.94314C193.731 5.99508 193.34 6.07473 192.952 6.07473C192.245 6.07473 191.598 6.20461 190.989 6.402C188.646 7.16384 186.183 7.74388 183.747 8.35335C181.944 8.80526 180.053 9.09095 178.079 9.00958C177.116 8.97148 176.146 8.99919 175.191 8.87798C174.97 8.85028 174.731 8.82775 174.513 8.85372C173.425 8.98185 172.356 8.86063 171.294 8.75328C169.986 8.61996 168.696 8.62169 167.395 8.79657C166.175 8.96279 164.941 9.08749 163.712 9.22601C163.669 9.2312 163.595 9.20176 163.571 9.17406C163.552 9.15501 163.584 9.09267 163.611 9.08575C163.983 8.99918 164.369 8.93165 164.733 8.83123C164.933 8.77582 165.098 8.66502 165.278 8.57845C165.496 8.58191 165.715 8.59053 165.933 8.5836C166.09 8.57841 166.132 8.51611 166.042 8.44512C166.015 8.42434 165.93 8.41393 165.887 8.42605C165.688 8.47627 165.494 8.53686 165.297 8.594C164.957 8.58881 164.608 8.54897 164.278 8.5836C163.156 8.70134 162.039 8.84852 160.919 8.98011C160.64 9.01301 160.355 9.03032 160.076 9.06149C159.682 9.10477 159.262 9.10825 158.906 9.20521C157.549 9.57574 156.129 9.53938 154.709 9.54977C154.595 9.54977 154.48 9.54978 154.368 9.56017C154.315 9.56536 154.27 9.5948 154.219 9.61212C154.267 9.92205 154.198 10.0207 153.927 9.9965C153.363 9.94802 152.794 9.91166 152.241 9.83028C150.738 9.61385 149.246 9.37661 147.749 9.14979C146.416 8.94721 145.073 8.78446 143.698 8.76715C143.413 8.76368 143.126 8.75503 142.847 8.72559C142.052 8.64075 141.264 8.64595 140.466 8.73426C139.964 8.78967 139.445 8.78276 138.934 8.79488C138.421 8.80527 137.908 8.78793 137.397 8.81217C136.65 8.84853 135.918 8.83814 135.2 8.68231C134.865 8.60959 134.511 8.61131 134.2 8.72213C133.168 9.0892 132.118 9.03206 131.051 8.8139C131.014 8.79832 130.979 8.77927 130.937 8.76888C130.908 8.76195 130.873 8.76715 130.841 8.76541C130.918 8.7758 130.993 8.78791 131.07 8.7983C130.9 8.89353 130.743 9.00783 130.551 9.08055C130.219 9.20695 129.743 9.14979 129.455 8.97318C129.485 8.65632 129.174 8.63037 128.804 8.64769C128.463 8.66327 128.123 8.665 127.785 8.68751C126.038 8.81044 124.29 8.93682 122.543 9.06322C122.317 9.0788 122.086 9.08054 121.867 9.1169C120.7 9.31602 119.503 9.29524 118.314 9.3316C117.692 9.35065 117.072 9.33506 116.46 9.458C116.136 9.52379 115.785 9.49956 115.476 9.38182C115.428 9.36451 115.357 9.32642 115.362 9.30565C115.378 9.23985 115.399 9.15154 115.468 9.12037C115.764 8.98705 116.117 9.00091 116.452 8.99918C117.303 8.99398 118.155 9.00264 119.006 8.99398C119.865 8.98532 120.695 8.88835 121.45 8.59747L121.431 8.6096C121.655 8.60787 121.878 8.60613 122.104 8.6044L122.093 8.59054C122.221 8.59054 122.349 8.59054 122.477 8.59054L122.466 8.60267C123.211 8.60613 123.945 8.55937 124.676 8.45721C125.12 8.39488 125.575 8.34989 126.027 8.31526C127.048 8.23735 128.051 8.1369 128.987 7.82005C129.503 7.64517 130.091 7.64864 130.666 7.69885L130.647 7.68672C130.881 7.81139 131.142 7.86507 131.432 7.78369C131.586 7.74041 131.724 7.66247 131.884 7.63477C132.152 7.58802 132.464 7.50145 132.7 7.54993C133.45 7.7023 134.15 7.59324 134.87 7.48415C135.695 7.35949 136.53 7.26771 137.363 7.16902C137.528 7.14997 137.711 7.12918 137.865 7.15689C138.738 7.31791 139.504 7.0894 140.323 6.93356C140.123 6.77427 139.892 6.80024 139.687 6.80197C138.384 6.8037 137.081 6.81407 135.78 6.82099C135.267 6.82273 134.764 6.85044 134.275 6.96472C133.945 7.04263 133.769 6.96644 133.671 6.73616C133.599 6.57167 133.309 6.59762 133.089 6.5907L133.11 6.60803C133.376 6.54397 133.634 6.46084 133.908 6.42102C134.296 6.36388 134.698 6.34484 135.086 6.29463C135.171 6.28424 135.285 6.20809 135.296 6.15441C135.304 6.10766 135.203 6.01414 135.126 6.00202C134.565 5.91718 133.988 5.87391 133.429 5.9778C132.094 6.22886 130.716 6.20979 129.354 6.25654C128.838 6.27385 128.336 6.26694 127.849 6.39506C127.362 6.52319 126.865 6.53704 126.338 6.51972C125.25 6.48509 124.176 6.6063 123.112 6.73789C121.931 6.88333 120.758 7.04091 119.548 7.01494C119.264 7.00974 118.971 7.0184 118.694 7.05822C117.66 7.21232 116.649 7.03049 115.628 6.98374C115.468 6.97681 115.285 6.92487 115.168 6.85562C114.841 6.66515 114.458 6.62013 114.051 6.63398C113.482 6.65303 112.912 6.68073 112.343 6.71882C111.654 6.76557 110.979 6.75519 110.317 6.59763C110.051 6.53357 109.774 6.46433 109.495 6.45048C107.582 6.36045 105.851 5.86352 104.077 5.45663C103.593 5.34582 103.106 5.24537 102.625 5.12936C102.04 4.98738 101.428 4.86793 100.883 4.67574C99.404 4.15111 97.7843 3.93469 96.1725 3.68709C94.9969 3.50702 93.8187 3.41869 92.6086 3.44639C91.9251 3.46198 91.2362 3.44294 90.5527 3.41177C89.7521 3.37368 88.9649 3.36847 88.1617 3.43426C87.4861 3.48967 86.7946 3.44639 86.1084 3.44813L86.1323 3.46546C86.0046 3.46546 85.877 3.46546 85.7493 3.46546L85.7653 3.44986C85.2041 3.63339 84.6536 3.81175 83.9807 3.73038C83.7919 3.70787 83.5285 3.78575 83.361 3.87059C82.9567 4.07317 82.5311 4.0853 82.071 4.00565C81.962 3.9866 81.8503 3.96754 81.7412 3.9485C80.8875 3.79094 80.0603 3.79442 79.2704 4.09915C78.8714 4.25325 78.4273 4.31384 77.9698 4.34327C77.4512 4.37617 76.9805 4.50432 76.531 4.66881C76.3182 4.74673 76.2224 4.87832 76.1586 5.02377L76.1746 5.01337C75.7118 4.91814 75.4325 4.69478 75.1559 4.44891C74.8261 4.15456 74.2942 4.1667 74.0841 4.5078C73.8686 4.85582 73.4537 4.89735 73.0202 4.95968C72.9431 4.9718 72.8234 4.90599 72.7436 4.86098C72.4059 4.66705 72.2941 4.64285 72.0574 4.76578C71.5175 5.04628 70.9244 5.25748 70.2861 5.42717C69.8339 5.54837 69.3951 5.52066 68.9456 5.46525C68.8419 5.45313 68.7036 5.4168 68.6584 5.36312C68.3525 4.98567 67.8126 5.05666 67.3152 5.06185C67.1503 5.06358 66.9881 5.12072 66.8206 5.14496C65.0386 5.39429 63.2434 5.59515 61.4401 5.75963C60.8231 5.81677 60.2193 5.93448 59.6102 6.02798C59.4241 6.05741 59.464 6.19423 59.7113 6.36738L59.6927 6.35178C59.4906 6.41584 59.2911 6.53013 59.0863 6.53359C58.1182 6.5509 57.1474 6.55609 56.182 6.52492C55.7139 6.50934 55.2989 6.5007 54.8734 6.66865C54.65 6.75695 54.3229 6.76388 54.0463 6.75522C53.1367 6.72752 52.2191 6.79332 51.3148 6.67385C51.0408 6.63749 50.7456 6.6721 50.4637 6.66345C50.2376 6.65652 49.9903 6.66343 49.7935 6.6063C49.094 6.40372 48.3891 6.30502 47.6285 6.43315C47.5247 6.45046 47.3971 6.4349 47.2933 6.40893C46.0539 6.10246 44.7002 6.18904 43.4422 5.93451C42.7347 5.79253 42.0087 5.69035 41.2932 5.56222C40.0857 5.34406 38.8676 5.15361 37.6867 4.87658C36.7212 4.64976 35.7504 4.43504 34.7823 4.21688C33.7052 3.97448 32.6307 3.71997 31.5429 3.49835C29.1997 3.01873 26.8114 2.64474 24.3804 2.41272C23.0852 2.28979 21.766 2.26729 20.4574 2.20495C20.2872 2.1963 20.1117 2.2032 19.9468 2.22224C18.6462 2.37807 17.335 2.3729 16.0212 2.36943C15.5717 2.3677 15.0982 2.35559 14.7072 2.54778C14.6354 2.58414 14.5796 2.68108 14.6009 2.73821C14.6222 2.79016 14.7445 2.84387 14.8376 2.86292C14.9413 2.88542 15.0636 2.88193 15.1753 2.86981C15.6248 2.82132 16.0876 2.79363 16.5158 2.70359C17.3722 2.52352 18.1941 2.52181 19.0133 2.77114C19.3803 2.88369 19.7712 2.92004 20.1755 2.93736C23.3192 3.07241 23.5054 3.09145 26.7209 3.5399C27.0561 3.58665 27.3939 3.62127 27.729 3.66456C27.9524 3.69399 28.1864 3.71306 28.3939 3.7702C28.862 3.89832 29.3008 4.11472 29.7822 4.16493C30.2822 4.21687 30.8035 4.21689 31.2982 4.31039C31.6812 4.38138 32.1041 4.42639 32.4206 4.56664C33.2584 4.9389 34.2292 5.00469 35.1733 5.12416C35.6813 5.18823 36.1601 5.25578 36.6255 5.41508C37.3303 5.65575 38.0697 5.86006 38.8037 6.0609C39.1708 6.16133 39.5564 6.23403 39.9394 6.30156C41.0405 6.49548 42.1469 6.67383 43.248 6.86948C43.5193 6.91796 43.7746 7.00106 44.0459 7.07205C43.8358 7.35774 43.4129 7.18288 43.1576 7.30581C43.115 7.32659 43.0512 7.36294 43.0565 7.38718C43.0698 7.45298 43.0911 7.52918 43.1523 7.57593C43.2241 7.62787 43.3384 7.65902 43.4448 7.68499C43.7135 7.74905 43.9821 7.81139 44.256 7.85987C45.0247 7.99665 45.796 8.13518 46.5726 8.25811C46.9582 8.31871 47.3545 8.36892 47.7508 8.38624C48.7242 8.42952 49.6737 8.54726 50.6206 8.68751C50.953 8.73772 51.2908 8.77408 51.6286 8.81563C51.8999 8.84853 52.1978 8.7983 52.4531 8.92816C51.4504 9.04936 50.7696 9.06841 49.7935 8.97838C49.0035 8.90393 48.2083 8.8364 47.429 8.72386C44.8651 8.35679 42.2985 7.99839 39.7931 7.48242C38.7612 7.26945 37.7399 7.03226 36.7132 6.80371C35.5802 6.55091 34.4552 6.28252 33.3116 6.04877C32.8834 5.9622 32.4153 5.95527 31.9658 5.91198C31.6413 5.77 31.2796 5.70768 30.8886 5.70941C30.5056 5.43411 30.003 5.48086 29.5136 5.48952C28.4072 5.09475 28.1119 5.04797 27.4284 5.16052C28.1066 5.34751 28.8061 5.44275 29.5322 5.47392C29.9417 5.67304 30.4205 5.69208 30.9072 5.69382C31.2237 5.85484 31.5961 5.89292 31.9818 5.89638C32.1094 5.96391 32.2184 6.06263 32.3647 6.09553C33.4711 6.35524 34.5909 6.59417 35.6973 6.85562C36.1707 6.96643 36.6308 7.10495 37.0803 7.25212C37.2159 7.29714 37.2984 7.40971 37.4074 7.49109L37.4287 7.47376C36.8409 7.53436 36.2957 7.42008 35.7558 7.29541C33.386 6.74481 30.9258 6.40024 28.4976 5.98296C26.3965 5.62108 24.2288 5.49297 22.0612 5.39255C21.149 5.35099 20.234 5.34233 19.3218 5.30597C17.7685 5.24537 16.2445 5.40989 14.7179 5.5484C14.3801 5.57784 14.053 5.65401 13.7232 5.71461C12.8455 5.87737 11.9678 6.04356 11.0901 6.20632C10.9252 6.23575 10.755 6.25482 10.5874 6.2704C10.122 6.31542 9.82948 6.16477 9.63798 5.90505L9.65656 5.91891C9.52357 5.98125 9.30816 6.02974 9.27624 6.10766C9.1672 6.37084 8.97834 6.56301 8.59269 6.6946C7.7948 6.96817 7.00225 7.25039 6.23361 7.55513C5.27082 7.93778 4.33995 8.35161 3.38513 8.74119C3.10055 8.8572 2.78667 8.9403 2.48613 9.039L2.50743 9.05113C2.53137 8.90395 2.56063 8.75505 2.31594 8.66328C2.12445 8.59056 1.93026 8.51956 1.74674 8.43645C1.63238 8.38451 1.64833 8.19751 1.74408 8.13172C2.33718 7.72136 3.08458 7.4599 3.84258 7.20711C5.30539 6.72057 6.76288 6.22711 8.22835 5.73884C8.63262 5.60378 9.03953 5.47394 9.33741 5.2402L9.31877 5.25055C9.64857 5.19342 9.98374 5.15017 10.3029 5.07225C10.4492 5.03589 10.622 4.95101 10.6752 4.86271C10.771 4.69822 10.904 4.57876 11.1646 4.64974C11.7657 4.81596 12.279 4.66359 12.8029 4.51122C12.9253 4.47659 12.9413 4.4091 12.8987 4.32599C12.8322 4.19959 12.936 4.09742 13.0929 4.05414C13.4466 3.95717 13.8136 3.88447 14.3269 3.76846C14.0317 3.73903 13.8801 3.69919 13.7445 3.71478C13.1833 3.77884 12.6115 3.82387 12.0769 3.94334C11.4066 4.09225 10.7444 4.10609 10.0582 4.0628C9.91986 4.05414 9.84007 4.01432 9.85337 3.92774C9.85869 3.89658 9.90393 3.85329 9.94914 3.83944C10.2018 3.75806 10.4518 3.66801 10.7204 3.61261C11.5343 3.44292 12.3588 3.29232 13.1726 3.12437C13.2497 3.10878 13.3375 3.01005 13.3296 2.95465C13.3242 2.9079 13.1912 2.83345 13.1114 2.82999C12.888 2.82133 12.6513 2.82309 12.4385 2.86118C12.1673 2.90966 11.8986 2.98411 11.6513 3.07241C10.9438 3.32001 10.1965 3.49661 9.41987 3.62474C9.25498 3.65244 9.06611 3.65764 8.92781 3.71304C7.77086 4.184 6.45965 4.48528 5.40377 5.06532C5.31866 5.11207 5.26812 5.18306 5.19897 5.24193L5.22559 5.2298C4.98622 5.30945 4.74687 5.38907 4.51016 5.46872L4.53938 5.4549C4.08192 5.50684 3.72021 5.65227 3.48084 5.91718L3.51013 5.89985C3.2814 6.01586 3.2814 6.01589 3.51279 6.14748L3.48617 6.13015C3.36382 6.44873 2.85852 6.54743 2.5899 6.78464C2.35585 6.99241 2.12178 7.20711 1.84252 7.38718C1.6457 7.51185 1.37975 7.59668 1.12709 7.67632C0.86378 7.75943 0.510035 7.67287 0.385031 7.51704C0.291943 7.40103 0.334485 7.21233 0.504703 7.10671C0.749391 6.95434 1.01266 6.81235 1.26799 6.66518C1.26001 6.33101 1.23078 5.99511 1.69356 5.75443C1.72016 5.74058 1.71484 5.66092 1.69356 5.654C1.60047 5.62456 1.49146 5.58819 1.39571 5.59685C1.01006 5.63321 0.690876 5.85656 0.236075 5.76652C0.182882 5.63147 0.145678 5.48431 0.0685477 5.34926C-0.0165612 5.20209 -0.0405293 5.06705 0.103092 4.93026C0.230756 4.8056 0.334474 4.67571 0.29458 4.51469C0.21213 4.16666 0.520681 3.94331 0.924949 3.78575C2.0553 3.34769 3.22018 2.95638 4.52607 2.7867L4.51548 2.77461C4.52346 2.85079 4.53406 2.92695 4.54204 3.00313L4.53406 2.99793C4.77076 2.92348 5.00752 2.8508 5.24157 2.77634L5.20696 2.80056C5.20696 2.71572 5.20696 2.63089 5.20962 2.54605L5.23358 2.55991C5.33465 2.52701 5.44101 2.46294 5.53941 2.46814C6.22294 2.50796 6.76023 2.36079 7.16982 1.99719C7.58738 1.62666 8.17779 1.40848 8.79749 1.2059C10.8747 0.530636 13.1061 0.236299 15.3881 0.0908566C16.3509 0.0302557 17.327 0.0423692 18.2978 0.0406377C19.4388 0.0389063 20.5771 0.0856268 21.7181 0.0111742C22.2766 -0.0251863 22.8564 0.0354349 23.4229 0.0752583C24.274 0.134128 25.1251 0.201653 25.9682 0.289957C26.9869 0.395576 27.9816 0.584304 28.8912 0.895966C29.5189 1.1124 30.1439 1.24054 30.8514 1.2163C31.495 1.19552 32.0961 1.33749 32.6892 1.46215C34.535 1.84827 36.3808 2.23958 38.2027 2.67244C40.3543 3.18322 42.5698 3.53469 44.7933 3.86886C45.679 4.00218 46.5753 4.11301 47.453 4.23075C47.5035 4.34502 47.4769 4.47663 47.6843 4.50433C47.8492 4.52684 48.0328 4.54933 48.1923 4.52509C48.6365 4.46102 48.937 4.56145 49.2269 4.78654C49.469 4.97527 49.695 4.99433 49.9796 4.84715C50.5116 4.57185 51.1366 4.55108 51.7563 4.5078C51.9185 4.49568 52.118 4.5095 52.251 4.56317C52.8521 4.81077 53.5888 4.74847 54.2138 4.94239C54.4106 5.00299 54.6633 5.02722 54.8814 5.0151C55.4558 4.9822 56.0197 5.02722 56.5888 5.06012C56.9958 5.08436 57.3867 5.02723 57.7431 4.89737C58.033 4.79002 58.1953 4.51295 58.5783 4.55451C58.839 4.58221 59.0623 4.73807 59.323 4.8056C59.8017 4.932 60.2991 5.00989 60.8284 4.95622C61.1661 4.92159 61.5092 4.91987 61.847 4.88871C63.1475 4.76924 64.4428 4.63763 65.7434 4.52335C66.4243 4.46275 67.0972 4.39696 67.7169 4.18226C68.3392 3.96756 69.0121 3.88098 69.7089 3.96236C70.4164 4.04547 71.0654 3.91391 71.717 3.77366C72.2569 3.65765 72.8047 3.55374 73.3473 3.44293C73.8979 3.33038 74.4591 3.30095 75.0389 3.31133C75.8394 3.32519 76.6293 3.25076 77.4193 3.16072C78.1161 3.0828 78.547 2.88194 78.7146 2.40925C78.813 2.12703 79.2651 2.10625 79.6082 2.36423C79.7864 2.49756 79.9778 2.55123 80.1933 2.49583C80.7864 2.34346 81.3795 2.25514 82.0258 2.30535C82.2705 2.3244 82.3981 2.18242 82.5258 2.0491C82.7918 1.77207 82.9221 1.72707 83.1695 1.85346C83.9168 2.23265 84.7679 2.20493 85.6217 2.14087C86.3025 2.09066 86.9781 2.01275 87.651 1.92964C88.3292 1.8448 88.9994 1.78072 89.6883 1.87422C89.7973 1.88807 89.917 1.87768 90.0287 1.87075C90.3931 1.84651 90.675 1.74439 90.8266 1.51411C90.8692 1.44831 90.949 1.39289 91.0181 1.32536C91.449 1.19724 91.9091 1.27688 92.3586 1.27514C93.0421 1.27514 93.7203 1.31672 94.4065 1.24919C95.1007 1.18166 95.7683 1.31323 96.4039 1.48638C96.6805 1.56083 96.9411 1.58506 97.231 1.52446C97.8135 1.40326 98.3641 1.51757 98.9013 1.6457C99.92 1.88637 100.936 2.13393 101.947 2.39019C102.957 2.64644 103.952 2.92868 104.965 3.17801C106.678 3.60048 108.444 3.90006 110.242 4.11995C111.25 4.24289 112.255 4.38483 113.271 4.4714C113.617 4.50083 113.931 4.48874 114.202 4.66534C114.37 4.77443 114.628 4.78134 114.851 4.74325C115.468 4.63763 116.08 4.68265 116.71 4.69823C117.782 4.72593 118.873 4.8073 119.937 4.59779C120.197 4.54585 120.5 4.58397 120.785 4.58744C120.971 4.58917 121.08 4.70689 121.099 4.91986C121.101 4.95622 121.08 4.9926 121.07 5.02897L121.088 5.0151C120.968 5.09128 120.83 5.15878 120.734 5.24709C120.679 5.29903 120.652 5.39256 120.687 5.4497C120.718 5.50337 120.849 5.57262 120.926 5.56742C121.708 5.51721 122.49 5.46526 123.264 5.38561C123.543 5.35618 123.524 5.17787 123.487 5.02723L123.469 5.03932C123.979 4.98911 124.469 5.01854 124.945 5.16225C125.133 5.21939 125.296 5.1588 125.423 4.96141C125.516 4.8177 125.647 4.71383 125.828 4.62899C126.253 4.42987 126.732 4.345 127.251 4.34154L127.232 4.32772C127.514 4.45585 127.82 4.5199 128.16 4.45064C128.474 4.38831 128.78 4.31041 129.094 4.24808C129.429 4.18055 129.74 4.23593 130.035 4.34847L130.014 4.33465C130.354 4.34677 130.698 4.36927 131.038 4.371C131.445 4.37447 131.846 4.33462 132.139 4.12858C132.474 3.89483 132.894 3.81518 133.36 3.77882C133.812 3.74419 134.293 3.73902 134.706 3.62994C135.472 3.42389 136.147 3.50873 136.698 3.75286C137.123 3.80654 137.368 3.70438 137.618 3.61954C138.041 3.47756 138.501 3.44294 138.953 3.49835C139.653 3.58492 140.312 3.50006 140.982 3.39271C141.536 3.3044 142.102 3.24902 142.653 3.15379C143.009 3.09319 143.32 3.10703 143.634 3.22996C143.836 3.30961 144.068 3.34769 144.283 3.26632C144.653 3.12607 145.03 3.14341 145.437 3.16765C146.467 3.22652 147.461 3.38927 148.459 3.54856C149.844 3.77019 151.23 3.98662 152.618 4.19959C152.951 4.2498 153.291 4.29827 153.629 4.31039C154.882 4.35367 156.129 4.44546 157.374 4.54762C158.012 4.59956 158.624 4.56316 159.228 4.42465C159.613 4.33634 160.018 4.2948 160.403 4.39003C161.036 4.54759 161.661 4.47833 162.249 4.34847C163.177 4.14416 164.119 4.04896 165.092 3.99009C165.882 3.94334 166.661 3.79962 167.435 3.67322C168.209 3.54683 168.959 3.37195 169.776 3.36849C170.039 3.36675 170.308 3.25592 170.56 3.17628C170.856 3.08451 171.1 3.10528 171.332 3.25592C171.462 3.34076 171.624 3.36502 171.797 3.32173C172.06 3.25767 172.316 3.14511 172.584 3.12952C172.856 3.11394 173.159 3.16071 173.414 3.23343C173.946 3.38233 174.499 3.44294 175.069 3.49488C175.803 3.56241 176.526 3.67495 177.257 3.7546C178.212 3.85848 179.183 3.92082 180.127 4.0576C180.928 4.17361 181.723 4.20997 182.497 4.0628C183.242 3.92255 183.949 3.93119 184.673 4.08702C184.883 4.13204 185.111 4.14069 185.329 4.16493C185.311 4.25497 185.308 4.32249 185.279 4.38483C185.197 4.5597 185.228 4.64111 185.385 4.63072C186.183 4.57359 186.96 4.45237 187.683 4.22555C187.928 4.14763 188.119 3.99873 188.338 3.88272L188.316 3.89659C189.197 3.88966 189.963 3.62646 190.766 3.43946C190.92 3.4031 191.085 3.38754 191.25 3.37542C191.279 3.37369 191.338 3.42216 191.351 3.45333C191.364 3.48622 191.359 3.5468 191.327 3.55892C190.742 3.78747 190.154 4.00739 189.569 4.23421C189.529 4.2498 189.489 4.30002 189.5 4.32772C189.526 4.41429 189.622 4.43159 189.763 4.39523C191.721 3.89311 193.662 3.35984 195.646 2.901C195.965 2.82655 196.29 2.74516 196.492 2.54605C196.545 2.53046 196.596 2.51661 196.649 2.50103C196.604 2.52007 196.556 2.53913 196.511 2.55991C196.088 2.59627 195.665 2.63088 195.242 2.67244C194.872 2.70707 194.505 2.75034 194.138 2.78843L194.157 2.8023C194.306 2.69495 194.428 2.52526 194.609 2.49409C195.7 2.30017 196.758 2.0162 197.899 1.96253C198.253 1.94694 198.559 2.04739 198.825 2.19976C198.955 2.27421 199.048 2.42829 198.974 2.48889C198.904 2.5443 198.835 2.61531 198.742 2.63782C198.426 2.71573 198.096 2.76594 197.782 2.84905C197.71 2.8681 197.636 2.97718 197.657 3.02913C197.726 3.20227 197.841 3.36675 197.939 3.53817C197.779 3.6334 197.641 3.69744 197.537 3.78055C197.216 4.02815 196.827 4.14936 196.335 4.0472C195.883 3.9537 195.447 3.96236 194.997 4.04894C194.564 4.13378 194.117 4.19266 193.684 4.28097C192.763 4.46796 191.862 4.68612 190.867 4.66534C190.404 4.65495 190.01 4.84024 189.649 5.02723L189.675 5.0099C189.439 5.08955 189.199 5.17091 188.963 5.25055L188.987 5.235C188.729 5.2956 188.5 5.37006 188.354 5.5432C188.287 5.62285 188.088 5.65401 187.947 5.70595L187.968 5.69208C187.074 6.02625 186.114 6.25306 185.109 6.37253C183.936 6.51278 182.747 6.60112 181.563 6.71367C181.167 6.75176 180.779 6.72576 180.38 6.68767C179.425 6.59936 178.46 6.54744 177.497 6.49377C177.335 6.48511 177.164 6.5353 177.002 6.56128C176.819 6.59071 176.699 6.54395 176.566 6.46084C176.14 6.19939 176.13 6.2046 175.202 6.25654C175.273 6.36043 175.635 6.42278 175.321 6.58034C175.207 6.63748 175.132 6.7102 175.231 6.74829C175.47 6.84352 175.757 6.89372 175.989 6.99414C176.454 7.19499 176.938 7.22096 177.457 7.12227C177.672 7.08071 177.88 7.00453 178.109 7.08591C178.156 7.10323 178.223 7.13438 178.226 7.16035C178.234 7.22788 178.247 7.33352 178.191 7.35949C177.859 7.51186 177.484 7.58457 177.069 7.56553C176.617 7.54475 176.162 7.53264 175.71 7.53091C175.63 7.53091 175.491 7.59668 175.481 7.6417C175.467 7.7023 175.526 7.78889 175.601 7.83391C175.72 7.90663 175.872 7.9932 176.018 8.00186C176.297 8.01917 176.585 7.99321 176.864 7.96897C177.529 7.91183 178.074 8.02437 178.555 8.34988C178.896 8.57843 179.172 8.52996 179.55 8.26851C179.627 8.21483 179.691 8.15251 179.776 8.10229C179.941 8.0036 180.22 7.97588 180.398 8.0815C180.71 8.26676 181.031 8.35853 181.47 8.34468C182.021 8.32564 182.452 8.18363 182.816 7.93257L182.795 7.91875C183.032 8.03822 183.306 8.1248 183.579 8.01572C184.606 7.6071 185.731 7.35429 186.853 7.08765C187.226 6.99934 187.625 6.92662 187.944 6.78117C188.51 6.52492 189.085 6.2929 189.753 6.1717C190.354 6.06262 190.83 5.75788 191.492 5.7319C191.838 5.71978 192.085 5.53454 192.364 5.40468C193.758 4.75192 195.335 4.50779 197.035 4.58744C197.269 4.59783 197.466 4.67228 197.596 4.80733C197.806 5.02723 198.011 5.24883 198.218 5.47045V5.46699ZM3.83992 4.79347L3.84791 4.79867L3.80265 4.82289L3.83992 4.79347ZM39.5165 6.80024C39.4261 6.76734 39.3357 6.7327 39.2452 6.70327C39.1016 6.65652 39.0378 6.67557 39.083 6.74829C39.0937 6.7656 39.1761 6.76905 39.2293 6.77251C39.333 6.77943 39.4367 6.78291 39.5405 6.78811C39.9022 6.88161 40.2613 6.97681 40.6256 7.06685C40.6522 7.07377 40.732 7.03744 40.7426 7.0132C40.7533 6.98896 40.7081 6.93356 40.6788 6.9301C40.2905 6.88162 39.9048 6.84179 39.5165 6.80024ZM9.31877 3.02566C8.67248 3.05337 8.10603 3.21439 7.58208 3.45333C6.83737 3.58838 6.17509 3.82903 5.55805 4.12858L5.54208 4.11822C5.76815 4.1009 5.99955 4.09916 6.2203 4.06453C6.79479 3.97623 7.28151 3.80133 7.56078 3.43946C7.83738 3.436 8.11661 3.44122 8.39056 3.42737C8.81344 3.40659 9.11668 3.26459 9.29754 3.01353L9.31877 3.02566ZM150.225 7.24519C150.507 7.24519 150.797 7.27808 151.065 7.23826C151.446 7.18285 151.805 7.07205 152.174 6.98894C152.323 6.95604 152.363 6.91449 152.246 6.81753C151.172 6.60802 150.033 6.42967 148.852 6.37253L148.871 6.36044C149.456 6.57687 149.951 6.85043 150.243 7.25732L150.225 7.24519ZM162.233 8.14558C162.824 7.77159 163.558 7.56552 164.34 7.47376C165.845 7.29888 167.334 7.05301 168.869 6.99414C169.026 6.98721 169.087 6.95607 169.021 6.84006C168.675 6.80197 168.292 6.76038 167.909 6.71882C166.983 6.91621 165.988 6.77945 165.055 6.96645C164.72 7.03398 164.385 7.01148 164.196 6.75522C164.161 6.70674 164.004 6.66692 163.909 6.67038C163.172 6.70847 162.459 6.81061 161.8 7.03916C161.77 7.04955 161.754 7.10496 161.77 7.13093C161.784 7.15863 161.834 7.18978 161.879 7.20017C161.986 7.22441 162.097 7.23654 162.209 7.25212L162.19 7.23826C161.512 7.54299 160.746 7.6521 159.935 7.6521C159.773 7.6521 159.717 7.61575 159.765 7.52744C159.919 7.48242 160.087 7.44778 160.225 7.38718C160.299 7.35255 160.377 7.26425 160.358 7.2123C160.342 7.16382 160.201 7.09631 160.121 7.09978C159.613 7.11882 159.097 7.13095 158.6 7.19328C157.919 7.27986 157.244 7.27291 156.563 7.21924C156.337 7.20192 156.116 7.1673 155.892 7.13613C155.406 7.0686 154.993 7.12746 154.709 7.4218C154.65 7.4824 154.536 7.51879 154.462 7.57246C154.43 7.5967 154.4 7.65727 154.422 7.67459C154.488 7.72826 154.579 7.80792 154.664 7.80965C154.943 7.81311 155.233 7.80965 155.504 7.76983C156.063 7.68499 156.624 7.63305 157.193 7.69365C157.278 7.70231 157.35 7.76636 157.419 7.81138C157.427 7.81658 157.374 7.88237 157.334 7.89275C156.698 8.05032 156.057 8.19925 155.422 8.35855C155.283 8.39318 155.275 8.46416 155.366 8.52823C155.693 8.58017 156.02 8.63383 156.347 8.68577C156.751 9.06323 157.305 9.01302 157.874 8.90567C158.419 8.80352 158.959 8.69615 159.504 8.59054L159.483 8.6044C160.095 8.43472 160.709 8.27024 161.315 8.0919C161.659 7.99147 161.959 8.02608 162.252 8.16114C162.143 8.17326 162.031 8.17672 161.93 8.20096C161.786 8.23559 161.768 8.2962 161.882 8.34295C161.911 8.35507 161.996 8.33604 162.028 8.31353C162.105 8.26332 162.167 8.20099 162.233 8.14558ZM139.775 6.11455C140.211 6.11455 140.889 6.11628 141.568 6.11455C141.849 6.11455 142.131 6.1163 142.408 6.09553C142.482 6.09033 142.546 6.00201 142.599 5.9466C142.607 5.93968 142.522 5.87216 142.488 5.87389C141.48 5.92757 140.472 6.05049 139.474 5.81848C139.373 5.79424 139.248 5.80635 139.137 5.81501C138.352 5.87215 137.565 5.93102 136.783 5.99335C136.74 5.99682 136.69 6.02974 136.674 6.05744C136.626 6.13189 136.687 6.19943 136.828 6.19596C137.727 6.17519 138.631 6.14571 139.775 6.11455ZM119.21 5.58129C119.128 5.43931 119.059 5.31117 118.976 5.18305C118.958 5.15188 118.913 5.11899 118.865 5.10514C118.49 4.9874 117.796 5.1467 117.556 5.41161C117.49 5.48433 117.54 5.56917 117.663 5.58302C118.16 5.64016 118.657 5.66267 119.21 5.58129ZM127.676 5.82021C128.083 5.85657 128.237 5.88602 128.389 5.88083C128.884 5.86351 129.378 5.83582 129.873 5.80812C129.921 5.80466 129.974 5.77694 130.011 5.75097C130.046 5.72673 130.083 5.69036 130.086 5.6592C130.086 5.63322 130.043 5.5986 130.006 5.58129C129.963 5.56224 129.905 5.55356 129.854 5.55356C129.745 5.55183 129.631 5.54837 129.525 5.56222C128.99 5.63321 128.458 5.71113 127.676 5.82021ZM181.47 6.12148C181.401 6.08166 181.335 6.01242 181.263 6.00895C181.186 6.00549 181.063 6.05051 181.026 6.09726C180.957 6.18556 181.141 6.29463 181.297 6.25827C181.369 6.23923 181.412 6.16823 181.47 6.12148ZM144.068 6.03144C144.161 6.00374 144.288 5.99335 144.334 5.9466C144.4 5.87908 144.328 5.79772 144.206 5.79425C144.115 5.79252 144.02 5.84099 143.929 5.86696C143.975 5.92237 144.02 5.97604 144.068 6.03144ZM82.1295 3.48448C82.1322 3.51738 82.1136 3.5624 82.1402 3.57972C82.2465 3.65071 82.4434 3.62299 82.5817 3.51737C82.6056 3.49832 82.587 3.4239 82.5817 3.4239C82.478 3.41871 82.3715 3.41352 82.2705 3.4239C82.2173 3.42737 82.1747 3.4637 82.1295 3.48448ZM26.2342 4.24288C26.2741 4.26366 26.3087 4.29133 26.3512 4.30172C26.3991 4.31384 26.455 4.31732 26.5055 4.31385C26.5534 4.30866 26.6066 4.29481 26.6411 4.27403C26.7555 4.20997 26.5374 4.13724 26.3247 4.17706C26.2901 4.18399 26.2661 4.22037 26.2342 4.24288ZM28.1305 4.42122C28.0427 4.39006 27.955 4.33638 27.8672 4.33638C27.7236 4.33638 27.6731 4.41253 27.7795 4.46967C27.846 4.50603 27.9736 4.49913 28.0747 4.50086C28.0933 4.49913 28.1119 4.44893 28.1305 4.42122ZM25.8805 4.88871C25.8326 4.88524 25.7794 4.87485 25.7316 4.87831C25.6837 4.88177 25.6411 4.90081 25.5959 4.91293C25.6411 4.92678 25.6837 4.94756 25.7289 4.95448C25.7768 4.96141 25.8299 4.95621 25.8805 4.95102C25.8858 4.95275 25.8805 4.91122 25.8805 4.88871ZM169.874 6.00722C169.829 6.00376 169.781 5.99336 169.736 5.99855C169.568 6.0176 169.566 6.04876 169.733 6.07473C169.779 6.08165 169.829 6.07476 169.874 6.06784C169.882 6.06784 169.874 6.02973 169.874 6.00722ZM120.843 6.23232C120.705 6.22366 120.62 6.26174 120.615 6.34831C120.615 6.36736 120.713 6.41239 120.734 6.40546C120.822 6.37603 120.897 6.32925 120.976 6.29116C120.931 6.27038 120.889 6.25136 120.843 6.23232ZM137.825 8.55071C137.881 8.54552 137.966 8.5542 137.988 8.53516C138.07 8.45724 138.012 8.41567 137.844 8.43299C137.793 8.43818 137.748 8.46763 137.703 8.48494C137.743 8.50745 137.786 8.52821 137.825 8.55071ZM24.6278 4.04894L24.6065 3.99698L24.5081 4.02645L24.6278 4.04894Z" fill="#0E2624"/>
<path d="M109.758 7.92739C108.71 7.96721 107.739 7.73864 106.755 7.55684C106.713 7.54818 106.638 7.56206 106.606 7.58283C106.532 7.63131 106.558 7.70229 106.694 7.73865C107.112 7.85119 107.529 7.97067 107.963 8.05205C109.436 8.32908 110.867 8.69268 112.37 8.91084C112.447 8.92123 112.54 9.02166 112.54 9.08226C112.54 9.13593 112.442 9.21729 112.359 9.2398C112.208 9.28309 112.035 9.30217 111.867 9.31255C111.593 9.3316 111.277 9.30041 111.327 9.58783C111.33 9.60687 111.25 9.64499 111.202 9.65191C111.093 9.66576 110.968 9.68651 110.867 9.66747C109.237 9.35407 107.524 9.29524 105.899 8.92124C104.29 8.55071 102.654 8.23211 101.088 7.78367C99.4651 7.3179 97.7736 6.98028 96.0449 6.75346C94.1485 6.50586 92.2176 6.39505 90.2707 6.49028C89.3079 6.53702 88.3372 6.52491 87.3717 6.53876C86.8717 6.40717 86.353 6.5249 85.8477 6.48681C85.5392 6.4643 85.3238 6.563 85.0764 6.66689C84.7094 6.82099 84.2865 6.81749 83.9886 6.59067C83.6003 6.29632 83.1162 6.23402 82.6003 6.31713C81.7146 6.45911 80.8237 6.57163 79.9167 6.63742C79.6907 6.65474 79.6401 6.7552 79.7332 6.97682C79.8156 7.1794 79.8183 7.17937 79.4539 7.24343C79.3981 7.25209 79.3422 7.25557 79.2864 7.2625L79.3076 7.2781C79.1693 7.21403 79.047 7.11705 78.8927 7.08935C78.0124 6.92313 77.124 6.80538 76.2065 6.99411C75.9378 7.04952 75.6453 7.05472 75.366 7.08935C74.9086 7.14476 74.6586 7.30923 74.7171 7.63128C74.7384 7.75594 74.6479 7.8512 74.4671 7.8789C74.249 7.9118 74.0176 7.93951 73.7969 7.92739C73.5415 7.91527 73.4617 7.75075 73.3394 7.62954C73.2809 7.57067 73.1824 7.53088 73.1027 7.4824C71.3925 7.51356 69.7329 7.7975 68.044 7.93428C67.669 7.96545 67.3817 8.09187 67.2567 8.31003C67.028 8.70827 66.5732 8.87794 65.9721 8.94373C65.7833 8.96451 65.7062 8.90563 65.7913 8.75672C65.8551 8.64937 65.9136 8.47452 65.7594 8.48318C64.9721 8.52474 64.1795 8.3256 63.4029 8.5126C62.0279 8.54377 60.6874 8.6996 59.3841 8.99048C59.2246 9.02511 59.049 9.03551 58.8788 9.03724C58.1368 9.04416 57.408 9.10129 56.6713 9.16016C55.892 9.2225 55.0888 9.17228 54.2962 9.16016C54.2298 9.15843 54.1127 9.05976 54.1154 9.00955C54.1181 8.95587 54.2244 8.88833 54.3122 8.85889C54.408 8.82599 54.533 8.82427 54.6447 8.81907C55.4399 8.77925 56.2378 8.76021 57.0277 8.70134C59.3443 8.52647 61.6635 8.34809 63.9747 8.14725C64.7034 8.08318 65.4163 7.93431 66.1397 7.83389C66.5839 7.77328 67.0307 7.71786 67.4802 7.68496C68.8951 7.57934 70.2861 7.3889 71.6718 7.18286C71.8287 7.15862 71.9643 7.07205 72.1079 7.01318L72.0866 7.027C73.0814 6.93523 74.0761 6.84868 75.0682 6.74653C75.2198 6.73094 75.3527 6.64092 75.4937 6.58378L75.4645 6.59414C75.7943 6.57336 76.124 6.55261 76.4538 6.53356C76.7331 6.51798 76.999 6.48508 77.2198 6.36215L77.1932 6.38117C78.4007 6.39329 79.5444 6.14569 80.7226 6.02795C81.1136 5.98813 81.5019 5.93276 81.8928 5.89293C82.1295 5.86869 82.3184 5.81501 82.4274 5.66437C82.5604 5.48083 82.8184 5.39773 83.103 5.36656C83.6057 5.31116 84.1136 5.26959 84.6216 5.22804C85.0738 5.19168 85.5286 5.17608 85.9754 5.12933C86.7068 5.05315 87.4382 5.02374 88.1802 5.02894C89.1404 5.0376 90.1085 5.04451 91.0394 4.83846C91.0713 4.83154 91.1032 4.77959 91.0979 4.75189C91.0925 4.72246 91.0527 4.68783 91.0128 4.66878C90.9702 4.64801 90.9037 4.62897 90.8559 4.6359C89.9303 4.77268 89.0872 4.50082 88.2122 4.4004C88.1563 4.39347 88.0739 4.27228 88.1031 4.23245C88.1377 4.18397 88.2813 4.12856 88.3611 4.13895C88.8638 4.19262 89.3611 4.27748 89.8638 4.32596C90.1377 4.35193 90.4276 4.34153 90.7016 4.31556C90.8319 4.30344 90.8452 4.20128 90.7309 4.14068C90.6032 4.07489 90.5713 4.00045 90.6963 3.9814C91.4277 3.87405 92.1644 3.91558 92.8958 3.99522C93.6777 4.0818 94.4623 4.16663 95.2443 4.25148C95.473 4.27572 95.6911 4.25495 95.8986 4.17704C96.489 3.95368 96.981 4.10605 97.4438 4.35885L97.4252 4.34498C97.6965 4.37095 97.9864 4.37617 98.0954 4.58741C98.1566 4.70515 98.2896 4.75017 98.4678 4.76056C99.0317 4.79692 99.2551 4.84017 99.6647 4.99081C99.7125 5.00812 99.7657 5.02024 99.8162 5.0341L99.803 5.02201C100.045 5.1484 100.29 5.13975 100.534 5.02201L100.518 5.03756C101.25 5.56566 102.133 5.89466 103.245 5.92929L103.234 5.91542C103.596 6.0851 103.596 6.0851 103.96 5.91542L103.949 5.92929C104.268 6.1007 104.537 6.32057 104.973 6.37944L104.952 6.36562C105.503 6.66343 106.114 6.76901 106.814 6.63569C106.854 6.62877 106.957 6.66339 106.955 6.67551C106.949 6.73957 106.941 6.80885 106.896 6.86599C106.846 6.92832 106.758 6.97853 106.689 7.03393L106.673 7.0218C107.308 6.97678 107.875 7.09453 108.391 7.32827C108.84 7.53258 109.287 7.74037 109.737 7.94815C109.742 7.94295 109.758 7.92739 109.758 7.92739ZM93.3719 4.88348C93.215 4.88694 93.058 4.89042 92.9011 4.89388C92.9437 4.91293 92.9809 4.94579 93.0261 4.94926C93.1325 4.95618 93.2416 4.95098 93.3506 4.94579C93.3586 4.94579 93.3639 4.90599 93.3719 4.88348ZM87.9595 6.00026C87.8106 6.0297 87.8079 6.06606 87.9595 6.09377C87.9888 6.09896 88.034 6.06433 88.0712 6.04875C88.034 6.03316 87.9967 6.01758 87.9595 6.00026ZM106.255 8.2304C106.125 8.20789 106.08 8.23211 106.136 8.29617C106.146 8.30829 106.218 8.2979 106.261 8.29617C106.261 8.27366 106.258 8.25117 106.255 8.2304Z" fill="#0E2624"/>
<path d="M41.5326 8.37582C41.3624 8.37755 41.1842 8.40526 41.0246 8.37929C39.873 8.19748 38.724 8.00358 37.6787 7.62093C37.583 7.5863 37.5085 7.52569 37.4234 7.47547L37.4021 7.49281C37.684 7.50146 37.9766 7.48068 38.2452 7.52569C38.9607 7.64516 39.6655 7.78716 40.3703 7.92914C40.8091 8.01744 41.2161 8.14728 41.5113 8.38969L41.5326 8.37582Z" fill="#0E2624"/>
<path d="M133.086 6.59067C132.942 6.9006 132.623 7.07029 132.131 7.11877C131.791 7.15167 131.466 7.17072 131.195 7.00104C131.155 6.9768 131.099 6.93871 131.105 6.91447C131.123 6.85214 131.152 6.75518 131.214 6.74306C131.421 6.69804 131.644 6.68592 131.86 6.65475C131.913 6.64782 131.961 6.62531 132.003 6.6028C132.373 6.40714 132.738 6.52143 133.105 6.60973C133.107 6.608 133.086 6.59067 133.086 6.59067Z" fill="#0E2624"/>
<path d="M112.511 8.36716C112.011 8.15938 111.46 8.10399 110.878 8.12304C110.476 8.13689 110.08 8.12306 109.761 7.9274L109.742 7.94296C110.822 7.94469 111.902 7.94469 112.982 7.94816C113.12 7.94816 113.202 8.00184 113.2 8.08668C113.2 8.11439 113.139 8.15074 113.093 8.16806C112.896 8.24078 112.694 8.31003 112.492 8.37929L112.511 8.36716Z" fill="#0E2624"/>
<path d="M77.1853 6.14226C77.1879 6.22191 77.1933 6.2998 77.1959 6.37945L77.2225 6.36043C76.6081 6.34311 75.9991 6.34655 75.4671 6.59242L75.4964 6.58206C75.1373 6.43835 74.7411 6.44697 74.3395 6.46082C74.3155 6.46082 74.265 6.41409 74.265 6.38812C74.265 6.35868 74.2969 6.3102 74.3315 6.29981C74.4884 6.25999 74.6479 6.20803 74.8102 6.20284C75.6081 6.18033 76.4086 6.16994 77.2065 6.15609L77.1853 6.14226Z" fill="#0E2624"/>
<path d="M60.7166 9.33853C60.6395 9.38355 60.605 9.41818 60.5651 9.42337C59.8443 9.49436 59.1235 9.56014 58.4001 9.62421C58.3628 9.62767 58.2857 9.58614 58.2831 9.5619C58.2804 9.53419 58.3256 9.48571 58.3682 9.47359C59.1182 9.26755 59.8948 9.27966 60.7166 9.33853Z" fill="#0E2624"/>
<path d="M73.1905 5.96391C73.0655 5.93967 72.9671 5.9206 72.866 5.89983C72.9298 5.84615 72.9804 5.7596 73.0602 5.74575C73.3288 5.69727 73.608 5.67302 73.8846 5.64877C73.9218 5.64531 73.9884 5.68689 74.0043 5.71459C74.0203 5.7423 73.999 5.80633 73.9751 5.81152C73.7091 5.86866 73.4378 5.91716 73.1905 5.96391Z" fill="#0E2624"/>
<path d="M64.3258 5.78559C64.3284 5.81676 64.3524 5.86005 64.3311 5.8739C64.129 6.01415 63.8736 6.0782 63.5811 6.0834C63.5305 6.08513 63.4694 6.06782 63.4348 6.04531C63.4136 6.03146 63.4162 5.96913 63.4322 5.96394C63.6795 5.88602 63.9295 5.81157 64.1822 5.74404C64.2167 5.73711 64.2779 5.77174 64.3258 5.78559Z" fill="#0E2624"/>
<path d="M129.128 6.90928C129.067 6.87292 129.011 6.85561 128.995 6.82791C128.979 6.8002 128.987 6.73959 129.011 6.73267C129.155 6.69284 129.304 6.64955 129.458 6.63743C129.549 6.6305 129.647 6.67901 129.743 6.70325C129.687 6.75173 129.644 6.82619 129.57 6.84524C129.426 6.88506 129.264 6.89196 129.128 6.90928Z" fill="#0E2624"/>
<path d="M50.4264 7.89101C50.36 7.95681 50.3174 8.04514 50.2562 8.05033C50.0169 8.07111 49.8839 7.99665 49.8041 7.82177C49.7908 7.79234 49.7988 7.73172 49.8227 7.7248C49.9078 7.70056 50.0301 7.6642 50.0887 7.68671C50.219 7.73692 50.3174 7.82175 50.4264 7.89101Z" fill="#0E2624"/>
<path d="M194.122 2.79362C193.596 3.02044 193.072 3.25419 192.396 3.22995L192.418 3.24381C192.641 3.02738 192.981 2.93213 193.351 2.88019C193.609 2.84383 193.878 2.82999 194.141 2.80575C194.141 2.80748 194.122 2.79362 194.122 2.79362Z" fill="#0E2624"/>
<path d="M71.7197 8.28926C71.6452 8.26328 71.5814 8.25465 71.5574 8.22868C71.5361 8.20617 71.5415 8.14903 71.5654 8.13691C71.6984 8.07284 71.8341 8.00186 71.9856 7.96723C72.0654 7.94818 72.1851 7.99667 72.2862 8.01398C72.2463 8.07285 72.233 8.15769 72.1638 8.18366C72.0282 8.2356 71.858 8.25809 71.7197 8.28926Z" fill="#0E2624"/>
<path d="M67.0998 7.46508C66.9988 7.4443 66.8871 7.43393 66.7966 7.3993C66.6796 7.35601 66.8844 7.27291 67.1477 7.27117C67.2594 7.27117 67.3738 7.27461 67.4829 7.28673C67.5334 7.29192 67.6052 7.31271 67.6185 7.33695C67.6557 7.40448 67.5839 7.44775 67.4376 7.45468C67.3259 7.45987 67.2142 7.46161 67.0998 7.46508Z" fill="#0E2624"/>
<path d="M179.957 7.09283C180.008 7.08937 180.098 7.10147 180.106 7.12052C180.143 7.18977 180.063 7.22786 179.909 7.20536C179.813 7.1915 179.726 7.16036 179.635 7.13611C179.744 7.12226 179.851 7.10149 179.957 7.09283Z" fill="#0E2624"/>
<path d="M194.41 6.3431C194.279 6.52144 194.016 6.57857 193.763 6.64437C193.62 6.68073 193.54 6.65129 193.551 6.5578C193.553 6.52836 193.601 6.48335 193.641 6.47642C193.902 6.4314 194.165 6.39505 194.428 6.35523L194.41 6.3431Z" fill="#0E2624"/>
<path d="M84.6004 4.34499C84.6509 4.29478 84.6828 4.22381 84.7546 4.20131C84.9169 4.15109 85.1031 4.2446 85.0392 4.33463C85.002 4.38484 84.9009 4.44543 84.8238 4.44716C84.752 4.44889 84.6775 4.38135 84.6004 4.34499Z" fill="#0E2624"/>
<path d="M50.4451 9.49434C50.1286 9.46663 49.8147 9.43893 49.4876 9.41123C49.8865 9.33505 49.8865 9.33679 50.4291 9.5082L50.4451 9.49434Z" fill="#0E2624"/>
<path d="M69.8659 3.39963C69.8659 3.37193 69.8526 3.32692 69.8686 3.32173C69.9138 3.30614 69.9749 3.30093 70.0228 3.30786C70.0706 3.31479 70.1079 3.34077 70.1531 3.35981C70.1105 3.37886 70.0707 3.40657 70.0254 3.41176C69.9776 3.41696 69.9218 3.40309 69.8659 3.39963Z" fill="#0E2624"/>
<path d="M82.6801 4.5978C82.7599 4.57356 82.853 4.51817 82.9168 4.53029C83.0312 4.54934 83.0472 4.62377 82.9727 4.68784C82.9461 4.71035 82.861 4.73805 82.8477 4.72939C82.7839 4.6913 82.7333 4.64282 82.6801 4.5978Z" fill="#0E2624"/>
<path d="M79.3369 5.05491L79.1986 5.06011L79.2572 4.9822L79.3369 5.05491Z" fill="#0E2624"/>
<path d="M80.5417 4.9562C80.4566 4.98737 80.3742 5.022 80.2838 5.04797C80.2731 5.05144 80.1986 4.99778 80.204 4.977C80.2279 4.89562 80.321 4.86272 80.4487 4.88869C80.4859 4.89562 80.5098 4.93196 80.5417 4.9562Z" fill="#0E2624"/>
<path d="M70.0334 6.09724C70.1026 6.13707 70.1744 6.17515 70.2355 6.21844C70.2409 6.22363 70.1797 6.28772 70.1611 6.28425C70.0706 6.27387 69.9776 6.25307 69.8951 6.2271C69.8791 6.22191 69.8871 6.16304 69.9111 6.14053C69.9324 6.11802 69.9909 6.1111 70.0334 6.09724Z" fill="#0E2624"/>
<path d="M127.248 7.01491C127.184 6.98028 127.123 6.94564 127.059 6.91101C127.147 6.89369 127.235 6.86945 127.325 6.86252C127.357 6.85906 127.426 6.8937 127.431 6.91621C127.447 6.9872 127.378 7.02184 127.248 7.01491Z" fill="#0E2624"/>
<path d="M121.423 7.49107C121.583 7.46683 121.742 7.42699 121.899 7.42526C121.963 7.42526 122.032 7.51011 122.083 7.56378C122.094 7.57417 122.038 7.62264 121.998 7.63822C121.955 7.6538 121.878 7.66767 121.844 7.65555C121.705 7.60188 121.578 7.53781 121.445 7.47721L121.423 7.49107Z" fill="#0E2624"/>
<path d="M50.4265 9.50822C50.6392 9.50302 50.8494 9.49089 51.0621 9.49435C51.2137 9.49782 51.2563 9.55496 51.1712 9.62595C51.1446 9.64672 51.0701 9.64848 51.0195 9.64848C50.7961 9.65021 50.6047 9.59649 50.4451 9.49434L50.4265 9.50822Z" fill="#0E2624"/>
<path d="M72.108 7.00799C72.0069 7.00453 71.9005 7.01144 71.8021 6.99759C71.7223 6.98547 71.6505 6.94912 71.576 6.92315C71.6133 6.91103 71.6478 6.8868 71.6851 6.8868C71.7329 6.8868 71.7835 6.90237 71.826 6.91795C71.9138 6.95085 71.9989 6.98718 72.0867 7.02181C72.0867 7.02354 72.108 7.00799 72.108 7.00799Z" fill="#0E2624"/>
<path d="M194.431 6.35523C194.798 6.29117 195.165 6.22708 195.535 6.16302L195.513 6.15093C195.146 6.21499 194.779 6.27903 194.412 6.3431C194.41 6.3431 194.431 6.35523 194.431 6.35523Z" fill="#0E2624"/>
<path d="M78.9539 5.93451C79.0683 5.87391 79.1587 5.7752 79.3475 5.82887C79.3183 5.84965 79.2917 5.88256 79.2572 5.88776C79.1508 5.90507 79.0417 5.91026 78.9326 5.92065L78.9539 5.93451Z" fill="#0E2624"/>
<path d="M56.2405 4.65666C56.2351 4.68609 56.2458 4.72938 56.2218 4.73977C56.1819 4.75708 56.1128 4.76575 56.0702 4.75536C55.908 4.71035 55.9186 4.66187 56.0915 4.63417C56.1341 4.62724 56.1899 4.648 56.2405 4.65666Z" fill="#0E2624"/>
<path d="M86.3504 4.2688C86.3079 4.28092 86.2573 4.30688 86.2228 4.30169C86.0765 4.27918 86.0605 4.23071 86.1828 4.18396C86.2201 4.17011 86.2892 4.17358 86.3238 4.18743C86.3477 4.19782 86.3424 4.2411 86.3504 4.2688Z" fill="#0E2624"/>
<path d="M43.1842 8.59745L43.2906 8.66154L43.1629 8.68229L43.1842 8.59745Z" fill="#0E2624"/>
<path d="M41.5139 8.39142C41.6256 8.38969 41.7374 8.38103 41.8491 8.38622C41.8996 8.38795 41.9874 8.407 41.9954 8.42777C42.0246 8.50915 41.9422 8.5455 41.7985 8.50395C41.7001 8.47624 41.623 8.41911 41.5352 8.37582C41.5326 8.37582 41.5139 8.39142 41.5139 8.39142Z" fill="#0E2624"/>
<path d="M58.4427 8.29272L58.4799 8.22001L58.5916 8.26849L58.4427 8.29272Z" fill="#0E2624"/>
<path d="M117.232 8.00703C117.232 8.02954 117.242 8.06934 117.229 8.07107C117.192 8.07973 117.117 8.08666 117.109 8.07454C117.056 8.01047 117.101 7.98452 117.232 8.00703Z" fill="#0E2624"/>
<path d="M47.5381 7.85812C47.5062 7.83561 47.4742 7.81311 47.4397 7.78887C47.4822 7.77156 47.5381 7.73173 47.5647 7.73866C47.7216 7.78194 47.7136 7.82522 47.5381 7.85812Z" fill="#0E2624"/>
<path d="M112.418 7.57071L112.38 7.64169L112.274 7.59493L112.418 7.57071Z" fill="#0E2624"/>
<path d="M126.107 7.39583L125.966 7.36641L126.08 7.31619L126.107 7.39583Z" fill="#0E2624"/>
<path d="M79.281 7.26424C79.1879 7.3006 79.0948 7.34214 78.9964 7.3733C78.9512 7.38716 78.8635 7.39755 78.8395 7.38197C78.7518 7.31964 78.8023 7.27811 78.9672 7.27637C79.0789 7.27637 79.188 7.27811 79.2997 7.27811C79.3023 7.27811 79.281 7.26424 79.281 7.26424Z" fill="#0E2624"/>
<path d="M86.0845 3.71303C86.1589 3.73208 86.2334 3.75287 86.3079 3.77191C86.276 3.76845 86.2361 3.77017 86.2095 3.75978C86.1722 3.7442 86.1404 3.71994 86.1084 3.69916L86.0845 3.71303Z" fill="#0E2624"/>
<path d="M188.327 3.88964C188.274 3.88271 188.221 3.87577 188.17 3.86711C188.215 3.87923 188.26 3.89139 188.306 3.90351L188.327 3.88964Z" fill="#0E2624"/>
<path d="M127.237 4.35019C127.306 4.33115 127.373 4.31382 127.442 4.29477C127.413 4.30689 127.384 4.32424 127.352 4.32944C127.309 4.33636 127.264 4.33464 127.221 4.33464C127.219 4.33637 127.237 4.35019 127.237 4.35019Z" fill="#0E2624"/>
<path d="M99.8189 5.03065C100.186 4.85923 100.186 4.85923 100.521 5.03411L100.537 5.01856C100.292 5.01856 100.05 5.01856 99.8057 5.01856L99.8189 5.03065Z" fill="#0E2624"/>
<path d="M121.054 5.03931C121.133 5.05835 121.216 5.07741 121.296 5.09646C121.256 5.09646 121.211 5.10338 121.181 5.09299C121.139 5.07741 121.109 5.04799 121.072 5.02549L121.054 5.03931Z" fill="#0E2624"/>
<path d="M103.247 5.92585C103.481 5.82369 103.718 5.84101 103.952 5.92585L103.963 5.91198C103.721 5.91198 103.479 5.91198 103.237 5.91198L103.247 5.92585Z" fill="#0E2624"/>
<path d="M78.9326 5.9189C78.8874 5.94141 78.8396 5.96217 78.7944 5.98467C78.8476 5.96736 78.8981 5.95008 78.9513 5.9345C78.9539 5.9345 78.9326 5.9189 78.9326 5.9189Z" fill="#0E2624"/>
<path d="M59.7087 6.36563C59.7752 6.3258 59.839 6.28768 59.9055 6.24786C59.9215 6.26864 59.9374 6.2877 59.9534 6.30848C59.8656 6.32233 59.7778 6.33618 59.6901 6.35003L59.7087 6.36563Z" fill="#0E2624"/>
<path d="M123.394 7.62093L123.399 7.54645L123.511 7.58454L123.394 7.62093Z" fill="#0E2624"/>
<path d="M130.666 7.70056C130.721 7.65727 130.644 7.69881 130.647 7.68842C130.644 7.68669 130.666 7.70056 130.666 7.70056Z" fill="#0E2624"/>
<path d="M192.396 3.23168L192.415 3.24555C192.418 3.24555 192.396 3.23168 192.396 3.23168Z" fill="#0E2624"/>
<path d="M86.1084 3.69743C85.9941 3.61432 85.8797 3.53122 85.768 3.44984L85.752 3.46544C85.8797 3.46544 86.0073 3.46544 86.135 3.46544C86.135 3.46544 86.111 3.44984 86.111 3.44811C86.1031 3.53468 86.0924 3.62299 86.0818 3.7113C86.0845 3.71303 86.1084 3.69743 86.1084 3.69743Z" fill="#0E2624"/>
<path d="M123.45 4.77266C123.453 4.86442 123.453 4.95794 123.455 5.04971L123.474 5.03757C123.474 4.95273 123.471 4.86963 123.471 4.78479C123.469 4.78479 123.45 4.77266 123.45 4.77266Z" fill="#0E2624"/>
<path d="M189.633 5.02893C189.633 5.02893 189.659 5.01334 189.659 5.0116C189.659 5.00987 189.633 5.02893 189.633 5.02893Z" fill="#0E2624"/>
<path d="M188.947 5.25227L188.971 5.23672C188.973 5.23672 188.947 5.25227 188.947 5.25227Z" fill="#0E2624"/>
<path d="M198.2 5.47564L198.218 5.46524C198.218 5.46697 198.2 5.47564 198.2 5.47564Z" fill="#0E2624"/>
<path d="M104.976 6.37599L104.955 6.36217C104.955 6.36044 104.976 6.37599 104.976 6.37599Z" fill="#0E2624"/>
<path d="M121.064 8.37062C121.187 8.45027 121.309 8.52995 121.431 8.6096C121.431 8.6096 121.45 8.59745 121.453 8.59745C121.33 8.51781 121.208 8.43818 121.086 8.35853C121.083 8.35853 121.064 8.37062 121.064 8.37062Z" fill="#0E2624"/>
<path d="M122.104 8.6044C122.224 8.6044 122.346 8.60439 122.466 8.60439L122.477 8.59225C122.349 8.59225 122.221 8.59225 122.094 8.59225L122.104 8.6044Z" fill="#0E2624"/>
<path d="M162.212 7.25385C162.358 7.19844 162.496 7.13093 162.653 7.0963C162.736 7.07898 162.847 7.12054 162.946 7.13612C162.866 7.16555 162.789 7.2123 162.704 7.22096C162.536 7.23827 162.366 7.23479 162.196 7.23998C162.193 7.23825 162.212 7.25385 162.212 7.25385Z" fill="#0E2624"/>
</svg>
