<svg width="199" height="10" fill="none" xmlns="http://www.w3.org/2000/svg"><path d="m198.218 5.467-.58.584-2.125.102.022.012c.048-.068.109-.132.143-.201.069-.13-.058-.242-.231-.217-.444.063-.883.136-1.327.196-.389.052-.78.132-1.168.132-.707 0-1.354.13-1.963.327-2.343.762-4.806 1.342-7.242 1.951-1.803.452-3.694.738-5.668.657-.963-.039-1.933-.01-2.888-.132a2.876 2.876 0 0 0-.678-.024c-1.088.128-2.157.007-3.219-.1a16.499 16.499 0 0 0-3.899.043c-1.22.166-2.454.29-3.683.429a.208.208 0 0 1-.141-.052c-.019-.019.013-.081.04-.088.372-.087.758-.154 1.122-.255.2-.055.365-.166.545-.253.218.004.437.013.655.006.157-.006.199-.068.109-.139-.027-.02-.112-.031-.155-.019-.199.05-.393.11-.59.168-.34-.005-.689-.045-1.019-.01-1.122.117-2.239.265-3.359.396-.279.033-.564.05-.843.081-.394.044-.814.047-1.17.144-1.357.37-2.777.334-4.197.345-.114 0-.229 0-.341.01-.053.005-.098.035-.149.052.048.31-.021.409-.292.384-.564-.048-1.133-.084-1.686-.166-1.503-.216-2.995-.453-4.492-.68-1.333-.203-2.676-.366-4.051-.383a9.23 9.23 0 0 1-.851-.041 10.947 10.947 0 0 0-2.381.008c-.502.056-1.021.049-1.532.06-.513.011-1.026-.006-1.537.018-.747.037-1.479.026-2.197-.13-.335-.072-.689-.07-1 .04-1.032.367-2.082.31-3.149.092-.037-.016-.072-.035-.114-.045-.029-.007-.064-.002-.096-.004.077.01.152.023.229.033-.17.096-.327.21-.519.283-.332.126-.808.069-1.096-.108.03-.317-.281-.343-.651-.325-.341.015-.681.017-1.019.04-1.747.122-3.495.249-5.242.375-.226.016-.457.018-.676.054-1.167.199-2.364.178-3.553.215-.622.019-1.242.003-1.854.126a1.798 1.798 0 0 1-.984-.076c-.048-.017-.119-.056-.114-.076.016-.066.037-.154.106-.186.296-.133.649-.12.984-.12.851-.006 1.703.003 2.554-.006.859-.009 1.689-.106 2.444-.397l-.019.013.673-.006-.011-.013h.384l-.011.012a15.4 15.4 0 0 0 2.21-.146c.444-.062.899-.107 1.351-.142 1.021-.078 2.024-.178 2.96-.495.516-.175 1.104-.171 1.679-.121l-.019-.012c.234.124.495.178.785.097.154-.044.292-.122.452-.15.268-.046.58-.133.816-.084.75.152 1.45.043 2.17-.066.825-.125 1.66-.216 2.493-.315.165-.019.348-.04.502-.012.873.16 1.639-.068 2.458-.223-.2-.16-.431-.134-.636-.132-1.303.002-2.606.012-3.907.019-.513.002-1.016.03-1.505.144-.33.078-.506.001-.604-.229-.072-.164-.362-.138-.582-.145l.021.017c.266-.064.524-.147.798-.187.388-.057.79-.076 1.178-.126.085-.01.199-.087.21-.14.008-.047-.093-.14-.17-.153-.561-.085-1.138-.128-1.697-.024-1.335.25-2.713.232-4.075.279-.516.017-1.018.01-1.505.138-.487.128-.984.142-1.511.125-1.088-.035-2.162.086-3.226.218-1.181.145-2.354.303-3.564.277a5.387 5.387 0 0 0-.854.043c-1.034.154-2.045-.028-3.066-.074a1.074 1.074 0 0 1-.46-.128c-.327-.19-.71-.236-1.117-.222-.569.019-1.139.047-1.708.085-.689.047-1.364.036-2.026-.121-.266-.064-.543-.134-.822-.148-1.913-.09-3.644-.586-5.418-.993-.484-.111-.971-.212-1.452-.328-.585-.142-1.197-.261-1.742-.453-1.479-.525-3.099-.741-4.71-.989a20.328 20.328 0 0 0-3.564-.24 30.152 30.152 0 0 1-2.056-.035 18.37 18.37 0 0 0-2.391.022c-.676.056-1.367.012-2.054.014l.024.017h-.383l.016-.015c-.56.183-1.111.362-1.784.28-.19-.022-.453.056-.62.14-.404.203-.83.215-1.29.136l-.33-.058c-.853-.157-1.68-.154-2.47.151-.4.154-.844.215-1.301.244-.519.033-.99.161-1.439.326a.606.606 0 0 0-.372.355l.016-.01c-.463-.096-.742-.32-1.02-.565-.329-.294-.86-.282-1.07.059-.216.348-.631.39-1.065.452-.077.012-.197-.054-.276-.099-.338-.194-.45-.218-.687-.095-.54.28-1.133.491-1.77.661-.453.121-.892.094-1.341.038-.104-.012-.242-.048-.288-.102-.305-.377-.845-.306-1.343-.301-.165.002-.327.059-.494.083-1.782.25-3.578.45-5.38.615-.618.057-1.222.174-1.83.268-.187.03-.147.166.1.34l-.018-.016c-.202.064-.402.178-.607.182-.968.017-1.939.022-2.904-.01-.468-.015-.883-.023-1.309.145-.223.088-.55.095-.827.086-.91-.027-1.827.038-2.731-.081-.274-.037-.57-.002-.851-.01-.226-.007-.474 0-.67-.058-.7-.202-1.405-.301-2.165-.173a.88.88 0 0 1-.336-.024c-1.24-.307-2.593-.22-3.85-.474-.708-.142-1.434-.245-2.15-.373-1.207-.218-2.425-.408-3.606-.685-.966-.227-1.937-.442-2.905-.66-1.077-.243-2.151-.497-3.24-.719a67.86 67.86 0 0 0-7.162-1.085c-1.295-.123-2.614-.146-3.923-.208a3.129 3.129 0 0 0-.51.017c-1.3.156-2.612.15-3.926.147-.45-.001-.923-.013-1.314.179-.072.036-.127.133-.106.19.021.052.143.106.237.125a1.1 1.1 0 0 0 .337.007c.45-.049.913-.076 1.34-.166.857-.18 1.68-.182 2.498.067.367.113.758.149 1.162.166 3.144.135 3.33.154 6.546.603.335.047.673.081 1.008.125.223.029.457.048.665.105.468.128.907.345 1.388.395.5.052 1.021.052 1.516.145.383.071.806.116 1.123.257.837.372 1.808.438 2.752.557.508.064.987.132 1.453.291.704.24 1.444.445 2.178.646.367.1.752.173 1.135.24 1.102.194 2.208.373 3.309.568.271.049.527.132.798.203-.21.286-.633.11-.888.234-.043.02-.107.057-.102.081.014.066.035.142.096.189a.896.896 0 0 0 .293.109c.269.064.537.126.811.175.769.137 1.54.275 2.317.398.385.06.782.11 1.178.128.973.044 1.923.161 2.87.302.332.05.67.086 1.008.128.27.033.569-.018.824.112-1.003.121-1.683.14-2.66.05-.79-.074-1.585-.142-2.364-.254-2.564-.367-5.13-.726-7.636-1.242-1.032-.213-2.053-.45-3.08-.678-1.133-.253-2.258-.521-3.401-.755-.429-.087-.897-.094-1.346-.137a2.635 2.635 0 0 0-1.077-.203c-.383-.275-.886-.228-1.375-.22-1.107-.394-1.402-.441-2.086-.328a9.386 9.386 0 0 0 2.104.313c.41.199.889.218 1.375.22.317.16.69.199 1.075.202.127.068.236.167.383.2 1.106.26 2.226.498 3.332.76.474.11.934.249 1.383.396.136.045.218.158.327.24l.022-.018c-.588.06-1.133-.054-1.673-.179-2.37-.55-4.83-.895-7.258-1.312-2.102-.362-4.27-.49-6.437-.59-.912-.042-1.827-.05-2.74-.087-1.553-.06-3.077.104-4.603.242-.338.03-.665.106-.995.167-.878.162-1.755.329-2.633.491-.165.03-.335.049-.503.064-.465.045-.758-.105-.949-.365l.019.014c-.133.062-.349.11-.38.189-.11.263-.299.455-.684.587-.798.273-1.59.555-2.36.86-.962.383-1.893.797-2.848 1.186-.284.116-.598.2-.899.298l.021.012c.024-.147.054-.296-.191-.388-.192-.072-.386-.143-.57-.227-.114-.051-.098-.238-.002-.304.593-.41 1.34-.672 2.099-.925 1.462-.486 2.92-.98 4.385-1.468.405-.135.812-.265 1.11-.499l-.02.01c.33-.057.666-.1.985-.178.146-.036.319-.121.372-.21.096-.164.229-.283.49-.212.6.166 1.114.014 1.638-.139.122-.034.138-.102.096-.185-.067-.126.037-.229.194-.272.354-.097.72-.17 1.234-.286-.295-.029-.447-.069-.582-.053-.562.064-1.133.109-1.668.228-.67.15-1.333.163-2.019.12-.138-.009-.218-.049-.205-.135.006-.031.05-.075.096-.089.253-.08.503-.171.771-.226.814-.17 1.639-.32 2.453-.489.077-.015.165-.114.157-.17-.006-.046-.139-.12-.219-.124a3.214 3.214 0 0 0-.673.031c-.27.049-.54.123-.787.211-.707.248-1.454.425-2.231.553-.165.027-.354.033-.492.088-1.157.471-2.468.772-3.524 1.352-.085.047-.136.118-.205.177l.027-.012-.716.239.03-.014c-.458.052-.82.197-1.06.462l.03-.017c-.229.116-.229.116.003.247l-.027-.017c-.122.319-.627.417-.896.655-.234.207-.468.422-.747.602-.197.125-.463.21-.716.29-.263.082-.617-.004-.742-.16-.093-.116-.05-.305.12-.41.244-.153.508-.295.763-.442-.008-.334-.037-.67.426-.91.026-.014.02-.094 0-.101-.094-.03-.203-.066-.298-.057-.386.036-.705.26-1.16.17-.053-.136-.09-.283-.167-.418-.086-.147-.11-.282.034-.419.128-.124.231-.254.192-.415-.083-.348.226-.572.63-.73 1.13-.437 2.295-.829 3.601-.998l-.01-.012c.007.076.018.152.026.228l-.008-.005c.237-.075.474-.147.708-.222l-.035.025c0-.085 0-.17.003-.255l.024.014c.1-.033.207-.097.305-.092.684.04 1.221-.107 1.63-.47.418-.371 1.009-.59 1.628-.792C10.875.53 13.107.236 15.388.09c.963-.06 1.939-.049 2.91-.05 1.14-.002 2.28.045 3.42-.03.559-.036 1.138.024 1.705.064.851.06 1.702.127 2.545.215 1.019.106 2.014.294 2.923.606.628.216 1.253.345 1.96.32.644-.02 1.245.121 1.838.246 1.846.386 3.692.778 5.514 1.21 2.151.511 4.367.863 6.59 1.197.886.133 1.782.244 2.66.362.05.114.024.246.231.273.165.023.349.045.508.021.444-.064.745.036 1.035.262.242.188.468.207.753.06.532-.275 1.157-.296 1.776-.34.163-.011.362.003.495.056.601.248 1.338.185 1.963.38.197.06.45.084.667.072.575-.033 1.139.012 1.708.045.407.024.798-.033 1.154-.163.29-.107.452-.384.835-.342.261.027.484.183.745.25.479.127.976.205 1.505.151.338-.034.681-.036 1.019-.067 1.3-.12 2.596-.251 3.896-.366.681-.06 1.354-.126 1.974-.34a4.482 4.482 0 0 1 1.992-.22c.707.082 1.356-.05 2.008-.19.54-.115 1.088-.22 1.63-.33a7.71 7.71 0 0 1 1.692-.132c.8.014 1.59-.06 2.38-.15.697-.078 1.128-.28 1.296-.752.098-.282.55-.303.893-.045.178.134.37.187.585.132.593-.153 1.186-.24 1.833-.19.245.018.372-.124.5-.257.266-.277.396-.322.644-.196.747.38 1.598.352 2.452.288.68-.05 1.356-.128 2.029-.211.678-.085 1.348-.15 2.037-.056.11.014.229.004.34-.003.365-.024.647-.127.799-.357.042-.066.122-.121.191-.189.431-.128.891-.048 1.34-.05.684 0 1.362.042 2.048-.026.695-.067 1.362.064 1.998.237.276.075.537.1.827.038.583-.12 1.133-.006 1.67.122 1.019.24 2.035.488 3.046.744 1.01.256 2.005.539 3.018.788 1.713.422 3.479.722 5.277.942 1.008.123 2.013.265 3.029.351.346.03.66.018.931.194.168.11.426.116.649.078.617-.105 1.229-.06 1.859-.045 1.072.028 2.163.11 3.227-.1.26-.052.563-.014.848-.01.186.001.295.119.314.332.002.036-.019.073-.029.109l.018-.014c-.12.076-.258.144-.354.232-.055.052-.082.146-.047.203.031.053.162.123.239.117.782-.05 1.564-.102 2.338-.181.279-.03.26-.208.223-.359l-.018.012c.51-.05 1-.02 1.476.123.188.057.351-.003.478-.2a.92.92 0 0 1 .405-.333c.425-.2.904-.284 1.423-.287l-.019-.014c.282.128.588.192.928.123.314-.063.62-.14.934-.203.335-.067.646-.012.941.1l-.021-.013c.34.012.684.034 1.024.036.407.003.808-.036 1.101-.242.335-.234.755-.314 1.221-.35.452-.035.933-.04 1.346-.15.766-.205 1.441-.12 1.992.124.425.054.67-.049.92-.133a3.044 3.044 0 0 1 1.335-.122c.7.087 1.359.002 2.029-.105.554-.089 1.12-.144 1.671-.24.356-.06.667-.046.981.077.202.08.434.118.649.036.37-.14.747-.123 1.154-.098 1.03.059 2.024.221 3.022.38 1.385.222 2.771.439 4.159.652.333.05.673.098 1.011.11 1.253.044 2.5.135 3.745.238a6.02 6.02 0 0 0 1.854-.123c.385-.089.79-.13 1.175-.035.633.158 1.258.088 1.846-.042.928-.204 1.87-.299 2.843-.358.79-.047 1.569-.19 2.343-.317.774-.126 1.524-.301 2.341-.305.263-.001.532-.112.784-.192.296-.091.54-.07.772.08.13.085.292.109.465.066.263-.064.519-.177.787-.192.272-.016.575.03.83.103.532.15 1.085.21 1.655.262.734.067 1.457.18 2.188.26.955.103 1.926.166 2.87.303.801.116 1.596.152 2.37.005a5.383 5.383 0 0 1 2.176.024c.21.045.438.054.656.078-.018.09-.021.157-.05.22-.082.175-.051.256.106.246.798-.057 1.575-.179 2.298-.405.245-.078.436-.227.655-.343l-.022.014c.881-.007 1.647-.27 2.45-.458.154-.036.319-.051.484-.064.029-.001.088.047.101.078.013.033.008.094-.024.106-.585.228-1.173.448-1.758.675-.04.016-.08.066-.069.094.026.086.122.104.263.067 1.958-.502 3.899-1.035 5.883-1.494.319-.074.644-.156.846-.355l.157-.045c-.045.02-.093.038-.138.059-.423.036-.846.07-1.269.112-.37.035-.737.078-1.104.116l.019.014c.149-.107.271-.277.452-.308 1.091-.194 2.149-.478 3.29-.531.354-.016.66.084.926.237.13.074.223.228.149.289-.07.055-.139.126-.232.149-.316.078-.646.128-.96.211-.072.02-.146.128-.125.18.069.173.184.338.282.51-.16.094-.298.158-.402.242-.321.247-.71.368-1.202.266a3.348 3.348 0 0 0-1.338.002c-.433.085-.88.144-1.313.232-.921.187-1.822.405-2.817.384-.463-.01-.857.175-1.218.362l.026-.017-.712.24.024-.015c-.258.06-.487.135-.633.308-.067.08-.266.111-.407.163l.021-.014c-.894.334-1.854.561-2.859.68-1.173.14-2.362.23-3.546.342-.396.038-.784.012-1.183-.026-.955-.089-1.92-.14-2.883-.194-.162-.009-.333.041-.495.067a.574.574 0 0 1-.436-.1c-.426-.262-.436-.256-1.364-.204.071.103.433.166.119.323-.114.057-.189.13-.09.168.239.096.526.146.758.246.465.201.949.227 1.468.128.215-.041.423-.117.652-.036.047.017.114.048.117.074.008.068.021.174-.035.2a2.395 2.395 0 0 1-1.122.206c-.452-.021-.907-.033-1.359-.035-.08 0-.219.066-.229.11-.014.061.045.148.12.193.119.073.271.16.417.168.279.017.567-.009.846-.033.665-.057 1.21.055 1.691.38.341.23.617.181.995-.08.077-.054.141-.116.226-.167.165-.098.444-.126.622-.02.312.185.633.277 1.072.263.551-.02.982-.161 1.346-.412l-.021-.014c.237.12.511.206.784.097 1.027-.409 2.152-.662 3.274-.928.373-.089.772-.161 1.091-.307.566-.256 1.141-.488 1.809-.61.601-.108 1.077-.413 1.739-.44.346-.011.593-.196.872-.326 1.394-.653 2.971-.897 4.671-.818.234.01.431.085.561.22.21.22.415.442.622.663v-.003ZM3.84 4.793l.008.006-.045.024.037-.03ZM39.517 6.8c-.09-.033-.181-.067-.272-.097-.143-.046-.207-.027-.162.045.01.018.093.021.146.025l.312.015c.361.094.72.189 1.085.279.026.007.106-.03.117-.054.01-.024-.035-.08-.064-.083-.389-.048-.774-.088-1.163-.13ZM9.319 3.026a4.59 4.59 0 0 0-1.737.427 7.757 7.757 0 0 0-2.024.676l-.016-.01c.226-.018.458-.02.678-.054.575-.089 1.062-.264 1.34-.626.277-.003.557.002.83-.012.423-.02.727-.162.908-.413l.02.012Zm140.906 4.22c.282 0 .572.032.84-.008.381-.055.74-.166 1.109-.25.149-.032.189-.074.072-.17-1.074-.21-2.213-.388-3.394-.445l.019-.013c.585.217 1.08.49 1.372.897l-.018-.012Zm12.008.9c.591-.374 1.325-.58 2.107-.672 1.505-.175 2.994-.421 4.529-.48.157-.007.218-.038.152-.154l-1.112-.121c-.926.197-1.921.06-2.854.247-.335.068-.67.045-.859-.21-.035-.05-.192-.09-.287-.086-.737.038-1.45.14-2.109.37-.03.01-.046.065-.03.09.014.029.064.06.109.07.107.024.218.037.33.052l-.019-.014c-.678.305-1.444.414-2.255.414-.162 0-.218-.036-.17-.125.154-.045.322-.08.46-.14.074-.034.152-.123.133-.175-.016-.048-.157-.116-.237-.112-.508.019-1.024.031-1.521.093a9.89 9.89 0 0 1-2.037.026c-.226-.017-.447-.052-.671-.083-.486-.067-.899-.009-1.183.286-.059.06-.173.097-.247.15-.032.025-.062.085-.04.103.066.053.157.133.242.135.279.003.569 0 .84-.04.559-.085 1.12-.137 1.689-.076.085.008.157.072.226.117.008.006-.045.071-.085.082-.636.157-1.277.306-1.912.466-.139.034-.147.105-.056.17.327.051.654.105.981.157.404.377.958.327 1.527.22.545-.102 1.085-.21 1.63-.315l-.021.013c.612-.17 1.226-.334 1.832-.512.344-.1.644-.066.937.07-.109.011-.221.015-.322.039-.144.035-.162.095-.048.142.029.012.114-.007.146-.03.077-.05.139-.112.205-.167Zm-22.458-2.031h1.793c.281 0 .563.001.84-.02.074-.005.138-.093.191-.148.008-.007-.077-.075-.111-.073-1.008.054-2.016.176-3.014-.056-.101-.024-.226-.012-.337-.003-.785.057-1.572.116-2.354.178a.16.16 0 0 0-.109.064c-.048.075.013.142.154.139.899-.02 1.803-.05 2.947-.081ZM119.21 5.58c-.082-.142-.151-.27-.234-.398a.2.2 0 0 0-.111-.078c-.375-.118-1.069.042-1.309.307-.066.072-.016.157.107.171.497.057.994.08 1.547-.002Zm8.466.24c.407.036.561.065.713.06.495-.017.989-.045 1.484-.073a.302.302 0 0 0 .138-.057c.035-.024.072-.06.075-.092 0-.026-.043-.06-.08-.078a.398.398 0 0 0-.152-.027c-.109-.002-.223-.006-.329.008-.535.071-1.067.15-1.849.258Zm53.794.3c-.069-.04-.135-.109-.207-.112-.077-.004-.2.042-.237.088-.069.089.115.198.271.161.072-.019.115-.09.173-.137Zm-37.402-.09c.093-.027.22-.038.266-.084.066-.068-.006-.15-.128-.153-.091-.001-.186.047-.277.073.046.055.091.109.139.164ZM82.129 3.484c.003.033-.015.078.011.096.106.07.303.043.442-.063.024-.019.005-.093 0-.093a2.076 2.076 0 0 0-.311 0c-.054.003-.096.04-.142.06Zm-55.895.759c.04.02.075.048.117.059a.51.51 0 0 0 .155.012.358.358 0 0 0 .135-.04c.115-.064-.104-.137-.316-.097-.035.007-.059.043-.09.066Zm1.896.178c-.087-.03-.175-.085-.263-.085-.143 0-.194.077-.088.134.067.036.195.03.296.03.018 0 .037-.051.056-.079Zm-2.25.468c-.047-.004-.1-.014-.148-.01-.048.003-.09.022-.136.034.045.014.088.035.133.041a.638.638 0 0 0 .152-.003c.005.002 0-.04 0-.062Zm143.994 1.118c-.045-.003-.093-.014-.138-.008-.168.019-.17.05-.003.076.046.007.096 0 .141-.007.008 0 0-.038 0-.06Zm-49.031.225c-.138-.008-.223.03-.228.116 0 .02.098.064.119.057.088-.029.163-.076.242-.114a3.533 3.533 0 0 0-.133-.059Zm16.982 2.319c.056-.005.141.003.163-.016.082-.078.024-.12-.144-.102-.051.005-.096.035-.141.052.04.022.083.043.122.066ZM24.628 4.049l-.021-.052-.099.03.12.022Z" fill="#0E2624"/><path d="M109.758 7.927c-1.048.04-2.019-.188-3.003-.37a.254.254 0 0 0-.149.026c-.074.048-.048.12.088.156.418.112.835.232 1.269.313 1.473.277 2.904.64 4.407.859.077.01.17.11.17.171 0 .054-.098.135-.181.158a2.359 2.359 0 0 1-.492.073c-.274.019-.59-.013-.54.275.003.019-.077.057-.125.064-.109.014-.234.035-.335.015-1.63-.313-3.343-.372-4.968-.746-1.609-.37-3.245-.689-4.811-1.137a34.64 34.64 0 0 0-5.043-1.03c-1.897-.248-3.827-.359-5.774-.264-.963.047-1.934.035-2.9.049-.5-.132-1.018-.014-1.523-.052-.309-.023-.524.076-.772.18-.367.154-.79.15-1.087-.076-.389-.295-.873-.357-1.389-.274-.885.142-1.776.255-2.683.32-.226.018-.277.118-.184.34.083.202.085.202-.28.266-.055.01-.11.013-.167.02l.022.015c-.139-.064-.261-.16-.415-.189-.88-.166-1.769-.284-2.686-.095-.27.056-.562.06-.841.095-.457.056-.707.22-.649.542.021.125-.07.22-.25.248-.218.033-.45.06-.67.048-.255-.012-.335-.176-.458-.297-.058-.06-.157-.1-.236-.148-1.71.032-3.37.316-5.059.452-.375.031-.662.158-.787.376-.229.398-.684.568-1.285.634-.189.02-.266-.038-.18-.187.063-.108.122-.282-.033-.274-.787.042-1.58-.157-2.356.03a20.546 20.546 0 0 0-4.019.477 2.55 2.55 0 0 1-.505.047c-.742.007-1.471.064-2.208.123-.779.063-1.582.012-2.375 0-.066-.002-.183-.1-.18-.15.002-.054.108-.122.196-.151.096-.033.221-.035.333-.04.795-.04 1.593-.059 2.383-.118 2.316-.175 4.636-.353 6.947-.554.728-.064 1.441-.213 2.165-.313.444-.06.89-.116 1.34-.149 1.415-.106 2.806-.296 4.192-.502.157-.024.292-.11.436-.17l-.021.014c.994-.092 1.99-.178 2.981-.28.152-.016.285-.106.426-.163l-.03.01.99-.06c.28-.016.545-.049.766-.172l-.027.02c1.208.011 2.351-.236 3.53-.354.39-.04.779-.095 1.17-.135.236-.024.425-.078.534-.229.133-.183.391-.266.676-.297.503-.056 1.01-.097 1.519-.139.452-.036.907-.052 1.353-.099a19.87 19.87 0 0 1 2.205-.1c.96.009 1.928.016 2.86-.19.031-.007.063-.06.058-.087-.005-.03-.045-.064-.085-.083a.31.31 0 0 0-.157-.033c-.926.137-1.769-.135-2.644-.236-.056-.007-.138-.128-.109-.168.035-.048.178-.103.258-.093.503.054 1 .138 1.503.187.274.026.564.016.838-.01.13-.013.143-.115.029-.175-.128-.066-.16-.14-.035-.16.732-.107 1.468-.065 2.2.014.782.087 1.566.172 2.348.256.229.025.447.004.655-.074.59-.223 1.082-.07 1.545.182l-.019-.014c.272.026.561.031.67.242.062.118.195.163.373.174.564.036.787.08 1.197.23.047.017.1.03.151.043l-.013-.012a.775.775 0 0 0 .731 0l-.016.016c.732.528 1.615.857 2.727.891l-.011-.014c.362.17.362.17.726 0l-.011.014c.319.172.588.392 1.024.45l-.021-.013c.551.297 1.162.403 1.862.27.04-.007.143.027.141.04a.345.345 0 0 1-.059.19c-.05.062-.138.113-.207.168l-.016-.012a3.49 3.49 0 0 1 1.718.306c.449.205.896.412 1.346.62l.021-.02ZM93.372 4.883l-.47.01c.042.02.079.053.124.056.106.007.216.002.325-.003.008 0 .013-.04.02-.063ZM87.96 6c-.15.03-.152.066 0 .094.029.005.074-.03.111-.045-.037-.016-.074-.031-.111-.049Zm18.295 2.23c-.13-.022-.175.002-.119.066.01.012.082.002.125 0a.463.463 0 0 0-.006-.066ZM41.533 8.376c-.17.002-.349.03-.508.003-1.152-.182-2.301-.375-3.346-.758-.096-.035-.17-.095-.256-.146l-.02.018c.281.008.574-.012.842.033.716.12 1.42.261 2.125.403.44.088.846.218 1.141.46l.022-.013ZM133.086 6.59c-.144.31-.463.48-.955.529-.34.033-.665.052-.936-.118-.04-.024-.096-.062-.09-.087.018-.062.047-.159.109-.17.207-.046.43-.058.646-.09a.423.423 0 0 0 .143-.051c.37-.196.735-.082 1.102.007.002-.002-.019-.02-.019-.02Z" fill="#0E2624"/><path d="M112.511 8.367c-.5-.208-1.051-.263-1.633-.244-.402.014-.798 0-1.117-.196l-.019.016c1.08.002 2.16.002 3.24.005.138 0 .22.054.218.139 0 .027-.061.064-.107.081-.197.073-.399.142-.601.211l.019-.012ZM77.185 6.142c.003.08.008.158.01.237l.028-.019c-.615-.017-1.224-.013-1.756.232l.03-.01c-.36-.144-.756-.135-1.157-.121-.025 0-.075-.047-.075-.073 0-.03.032-.078.067-.088.156-.04.316-.092.478-.097.798-.023 1.599-.033 2.397-.047l-.022-.014ZM60.717 9.339c-.078.045-.112.08-.152.084a221 221 0 0 1-2.165.201c-.037.004-.114-.038-.117-.062-.003-.028.043-.076.085-.088.75-.206 1.527-.194 2.349-.135ZM73.19 5.964c-.124-.024-.223-.043-.324-.064.064-.054.114-.14.194-.154.269-.049.548-.073.825-.097.037-.004.103.038.12.066.015.027-.006.091-.03.097-.266.057-.537.105-.784.152ZM64.326 5.786c.002.03.026.074.005.088-.202.14-.457.204-.75.21a.282.282 0 0 1-.146-.039c-.021-.014-.019-.076-.003-.081.247-.078.497-.152.75-.22.035-.007.096.028.144.042ZM129.128 6.91c-.061-.037-.117-.054-.133-.082-.016-.028-.008-.088.016-.095.144-.04.293-.083.447-.096.091-.006.189.042.285.066-.056.049-.099.123-.173.142-.144.04-.306.047-.442.064ZM50.426 7.891c-.066.066-.109.154-.17.16-.24.02-.372-.054-.452-.23-.013-.029-.005-.09.019-.096.085-.024.207-.06.266-.038.13.05.228.135.337.204ZM194.122 2.794c-.526.226-1.05.46-1.726.436l.022.014c.223-.217.563-.312.933-.364.258-.036.527-.05.79-.074l-.019-.012ZM71.72 8.29c-.075-.027-.139-.035-.163-.061-.02-.023-.016-.08.008-.092.133-.064.27-.135.42-.17.08-.019.2.03.301.047-.04.059-.053.144-.122.17-.136.052-.306.074-.444.105ZM67.1 7.465c-.101-.02-.213-.031-.303-.066-.117-.043.087-.126.35-.128.112 0 .227.004.336.016.05.005.122.026.135.05.038.067-.034.11-.18.118-.112.005-.224.007-.338.01ZM179.957 7.093c.051-.004.141.008.149.028.037.069-.043.107-.197.084-.096-.014-.183-.045-.274-.069.109-.014.216-.035.322-.043ZM194.41 6.343c-.131.178-.394.236-.647.301-.143.037-.223.007-.212-.086.002-.03.05-.075.09-.082.261-.045.524-.08.787-.12l-.018-.013ZM84.6 4.345c.05-.05.083-.121.155-.144.162-.05.348.044.284.134a.331.331 0 0 1-.215.112c-.072.002-.147-.066-.224-.102ZM50.445 9.494l-.957-.083c.398-.076.398-.074.941.097l.016-.014ZM69.866 3.4c0-.028-.013-.073.003-.078a.357.357 0 0 1 .154-.014c.048.007.085.033.13.052-.043.019-.082.047-.128.052-.047.005-.103-.009-.16-.012ZM82.68 4.598c.08-.024.173-.08.237-.068.114.02.13.094.056.158-.027.022-.112.05-.125.041-.064-.038-.115-.086-.168-.131ZM79.337 5.055l-.138.005.058-.078.08.073ZM80.542 4.956c-.085.031-.168.066-.258.092-.01.003-.085-.05-.08-.071.024-.081.117-.114.245-.088.037.007.06.043.093.067ZM70.033 6.097c.07.04.141.078.203.121.005.006-.056.07-.075.066a1.461 1.461 0 0 1-.266-.057c-.016-.005-.008-.064.016-.086.021-.023.08-.03.122-.044ZM127.248 7.015c-.064-.035-.125-.07-.189-.104.088-.017.176-.042.266-.048.032-.004.101.03.106.053.016.071-.053.106-.183.099ZM121.423 7.491c.16-.024.319-.064.476-.066.064 0 .133.085.184.139.011.01-.045.059-.085.074-.043.016-.12.03-.154.018-.139-.054-.266-.118-.399-.179l-.022.014Z" fill="#0E2624"/><path d="M50.426 9.508c.213-.005.423-.017.636-.014.152.004.194.061.11.132-.027.02-.102.022-.152.022a1.029 1.029 0 0 1-.575-.154l-.019.014ZM72.108 7.008c-.101-.003-.208.003-.306-.01-.08-.013-.152-.049-.226-.075.037-.012.072-.036.11-.036.047 0 .097.015.14.031.088.033.173.07.26.104 0 .002.022-.014.022-.014ZM194.431 6.355l1.104-.192-.022-.012-1.101.192c-.002 0 .019.012.019.012ZM78.954 5.935c.114-.061.205-.16.394-.106-.03.02-.056.054-.09.059-.107.017-.216.022-.325.033l.02.014ZM56.24 4.657c-.005.03.006.072-.018.083a.283.283 0 0 1-.152.015c-.162-.045-.151-.093.022-.12.042-.008.098.013.148.022ZM86.35 4.269c-.042.012-.093.038-.127.033-.147-.023-.162-.071-.04-.118a.244.244 0 0 1 .14.003c.025.01.02.054.027.082ZM43.184 8.597l.107.065-.128.02.021-.085ZM41.514 8.391c.112-.001.223-.01.335-.005.05.002.138.021.146.042.03.081-.053.117-.197.076-.098-.028-.175-.085-.263-.128a.151.151 0 0 0-.021.015ZM58.443 8.293l.037-.073.112.048-.15.025ZM117.232 8.007c0 .023.01.062-.003.064-.037.009-.112.016-.12.004-.053-.065-.008-.09.123-.068ZM47.538 7.858a59.123 59.123 0 0 0-.098-.07c.042-.016.098-.056.125-.05.157.044.149.087-.027.12ZM112.418 7.57l-.038.072-.106-.047.144-.024ZM126.107 7.396l-.141-.03.114-.05.027.08ZM79.281 7.264c-.093.037-.186.078-.285.11-.045.013-.132.024-.156.008-.088-.062-.038-.104.127-.106l.333.002c.002 0-.019-.014-.019-.014ZM86.085 3.713l.223.059c-.032-.004-.072-.002-.099-.012-.037-.016-.069-.04-.1-.06l-.024.013ZM188.327 3.89a4.2 4.2 0 0 1-.157-.023l.136.037.021-.014ZM127.237 4.35l.205-.055c-.029.012-.058.03-.09.034-.043.007-.088.006-.131.006-.002.001.016.015.016.015ZM99.819 5.03c.367-.17.367-.17.702.004l.016-.015h-.731l.013.012ZM121.054 5.04l.242.056c-.04 0-.085.007-.115-.003-.042-.016-.072-.045-.109-.068l-.018.014ZM103.247 5.926c.234-.102.471-.085.705 0l.011-.014h-.726l.01.014Z" fill="#0E2624"/><path d="M78.933 5.919c-.046.022-.093.043-.139.066.054-.018.104-.035.157-.05a.119.119 0 0 0-.018-.016ZM59.709 6.366l.197-.118.047.06-.263.042.019.016ZM123.394 7.62l.005-.074.112.039-.117.036ZM130.666 7.7c.055-.043-.022-.001-.019-.012l.019.013ZM192.396 3.232l.019.014a.104.104 0 0 0-.019-.014ZM86.108 3.697l-.34-.247-.016.015h.383s-.024-.015-.024-.017c-.008.087-.019.175-.03.263.004.002.027-.014.027-.014ZM123.45 4.773c.003.091.003.185.005.277l.019-.012c0-.085-.003-.168-.003-.253l-.021-.012ZM189.633 5.029l.026-.017a.226.226 0 0 0-.026.017ZM188.947 5.252l.024-.015a.25.25 0 0 1-.024.015ZM198.2 5.476l.018-.01-.018.01ZM104.976 6.376l-.021-.014c0-.002.021.014.021.014ZM121.064 8.37l.367.24s.019-.013.022-.013l-.367-.238a.145.145 0 0 0-.022.012ZM122.104 8.604h.362l.011-.012h-.383l.01.012ZM162.212 7.254c.146-.056.284-.123.441-.158.083-.017.194.025.293.04-.08.03-.157.076-.242.085-.168.017-.338.014-.508.019a.224.224 0 0 0 .016.014Z" fill="#0E2624"/></svg>